<svg width="438" height="109" viewBox="0 0 438 109" fill="none" xmlns="http://www.w3.org/2000/svg">
<path d="M294.119 75.192C291.484 75.192 288.935 75.192 286.306 75.192C286.306 74.928 286.306 74.69 286.306 74.451C286.306 69.02 286.313 63.589 286.298 58.158C286.296 57.467 286.252 56.76 286.103 56.089C285.6 53.819 284.062 52.401 281.528 52.083C279.778 51.863 277.995 51.882 276.227 51.83C275.064 51.795 273.9 51.823 272.655 51.823C272.655 59.631 272.655 67.384 272.655 75.177C270.024 75.177 267.474 75.177 264.839 75.177C264.839 67.433 264.839 59.683 264.839 51.86C264.543 51.845 264.329 51.824 264.114 51.824C260.209 51.822 256.304 51.822 252.399 51.823C251.333 51.823 251.153 52.005 251.152 53.081C251.15 60.173 251.151 67.265 251.151 74.357C251.151 74.62 251.151 74.884 251.151 75.182C248.537 75.182 245.988 75.182 243.338 75.182C243.338 74.948 243.338 74.713 243.338 74.477C243.338 66.443 243.335 58.408 243.343 50.374C243.344 49.658 243.376 48.937 243.469 48.228C243.799 45.686 244.945 44.614 247.509 44.401C247.799 44.377 248.092 44.374 248.384 44.374C258.797 44.375 269.211 44.369 279.624 44.385C281.787 44.388 283.92 44.683 285.975 45.39C290.787 47.046 293.322 50.528 293.967 55.48C294.091 56.433 294.111 57.404 294.113 58.367C294.126 63.708 294.119 69.05 294.119 74.391C294.119 74.635 294.119 74.88 294.119 75.192Z" fill="#060606"/>
<path d="M320.729 56.615C320.68 55.639 320.701 54.761 320.576 53.905C320.409 52.759 319.657 52.08 318.512 51.918C318.07 51.855 317.619 51.828 317.172 51.827C311.562 51.821 305.952 51.823 300.342 51.823C300.073 51.823 299.805 51.823 299.481 51.823C299.481 49.342 299.481 46.892 299.481 44.372C299.667 44.372 299.84 44.372 300.013 44.372C306.004 44.373 311.997 44.331 317.987 44.408C319.421 44.426 320.912 44.657 322.269 45.111C326.011 46.363 327.864 49.193 328.097 53.025C328.272 55.91 328.205 58.811 328.206 61.705C328.207 64.509 328.164 67.314 328.122 70.118C328.115 70.586 328.043 71.058 327.947 71.518C327.506 73.631 326.157 74.762 323.7 75.068C322.989 75.156 322.269 75.211 321.553 75.213C316.93 75.226 312.307 75.249 307.685 75.199C306.439 75.186 305.169 75.046 303.955 74.768C300.367 73.947 298.04 71.264 297.724 67.496C297.596 65.972 297.615 64.385 297.892 62.887C298.512 59.535 300.786 57.492 304.328 56.93C305.628 56.723 306.96 56.643 308.278 56.63C312.137 56.592 315.997 56.616 319.857 56.616C320.1 56.615 320.343 56.615 320.729 56.615ZM320.667 62.601C320.463 62.586 320.352 62.571 320.241 62.571C316.207 62.57 312.174 62.569 308.14 62.574C307.873 62.574 307.603 62.603 307.339 62.647C305.853 62.896 305.107 63.815 305.175 65.301C305.241 66.748 306.042 67.569 307.54 67.71C307.874 67.741 308.211 67.749 308.547 67.75C311.483 67.753 314.418 67.753 317.354 67.751C318.093 67.75 318.833 67.749 319.571 67.721C320.231 67.696 320.639 67.32 320.657 66.67C320.692 65.333 320.667 63.994 320.667 62.601Z" fill="#060606"/>
<path d="M126.228 44.226C128.414 44.387 130.643 44.332 132.778 44.754C137.18 45.624 140.194 48.312 141.507 52.615C143.045 57.656 143.08 62.768 141.204 67.735C139.526 72.176 136.087 74.649 131.424 75.038C127.997 75.324 124.51 75.327 121.082 75.051C115.906 74.634 112.357 71.7909 110.83 66.7939C109.381 62.0519 109.381 57.2169 110.916 52.4869C112.462 47.722 115.924 45.1119 120.846 44.5369C122.614 44.3309 124.426 44.504 126.218 44.504C126.221 44.411 126.224 44.318 126.228 44.226ZM126.214 67.689C126.214 67.685 126.214 67.68 126.214 67.676C127.425 67.676 128.64 67.742 129.845 67.662C132.07 67.515 133.563 66.3829 134.147 64.3079C134.989 61.3119 134.976 58.2759 134.165 55.2719C133.676 53.4619 132.456 52.1979 130.587 52.0779C127.757 51.8949 124.899 51.852 122.07 52.027C119.822 52.166 118.53 53.6999 118.058 55.8699C117.493 58.4689 117.479 61.085 118.065 63.679C118.64 66.225 120.183 67.521 122.783 67.678C123.923 67.747 125.07 67.689 126.214 67.689Z" fill="#060606"/>
<path d="M383.435 44.235C385.6 44.387 387.807 44.323 389.921 44.736C394.317 45.596 397.357 48.251 398.689 52.555C400.255 57.617 400.288 62.749 398.406 67.737C396.73 72.179 393.288 74.649 388.624 75.038C385.197 75.324 381.71 75.327 378.282 75.051C373.138 74.637 369.592 71.822 368.054 66.855C366.573 62.07 366.574 57.188 368.14 52.421C369.693 47.694 373.157 45.103 378.052 44.538C379.82 44.334 381.632 44.505 383.424 44.505C383.429 44.414 383.432 44.324 383.435 44.235ZM383.482 51.913C383.482 51.915 383.482 51.917 383.482 51.919C382.227 51.919 380.967 51.846 379.718 51.935C377.423 52.098 375.962 53.291 375.378 55.505C374.645 58.286 374.67 61.096 375.331 63.892C375.834 66.017 377.172 67.425 379.345 67.57C382.043 67.75 384.771 67.755 387.469 67.582C389.683 67.44 391.01 65.988 391.498 63.839C392.113 61.131 392.134 58.404 391.494 55.702C390.93 53.322 389.472 52.098 387.043 51.927C385.862 51.844 384.67 51.913 383.482 51.913Z" fill="#060606"/>
<path d="M413.284 75.52C410.662 75.52 408.114 75.52 405.471 75.52C405.471 75.275 405.471 75.038 405.471 74.802C405.471 66.769 405.468 58.736 405.476 50.704C405.477 49.988 405.51 49.267 405.602 48.558C405.937 45.98 407.153 44.868 409.779 44.729C410.607 44.685 411.439 44.705 412.269 44.706C415.882 44.707 419.494 44.691 423.106 44.721C425.314 44.739 427.488 45.041 429.581 45.782C433.966 47.335 436.443 50.493 437.246 55.01C437.426 56.02 437.51 57.061 437.514 58.088C437.54 63.72 437.527 69.352 437.527 74.984C437.527 75.139 437.527 75.294 437.527 75.502C434.952 75.502 432.407 75.502 429.754 75.502C429.754 75.261 429.754 75.002 429.754 74.743C429.754 69.313 429.747 63.883 429.758 58.453C429.761 56.715 429.45 55.1 428.129 53.841C427.014 52.778 425.602 52.338 424.135 52.288C420.818 52.175 417.497 52.192 414.177 52.163C413.467 52.157 413.278 52.603 413.279 53.23C413.286 56.349 413.282 59.468 413.282 62.587C413.284 66.87 413.284 71.154 413.284 75.52Z" fill="#060606"/>
<path d="M154.579 75.1829C151.928 75.1829 149.379 75.1829 146.766 75.1829C146.766 74.9079 146.766 74.6669 146.766 74.4269C146.766 66.4389 146.763 58.4509 146.771 50.4629C146.772 49.7469 146.79 49.0249 146.886 48.3169C147.262 45.5589 148.513 44.4389 151.317 44.3889C153.605 44.3479 155.894 44.3549 158.183 44.3769C160.964 44.4029 163.749 44.3779 166.523 44.5409C169.1 44.6929 171.568 45.3829 173.737 46.8629C176.824 48.9699 178.293 52.0239 178.68 55.6479C178.813 56.8929 178.815 58.1559 178.818 59.4099C178.832 64.4139 178.824 69.4169 178.824 74.4209C178.824 74.6629 178.824 74.9049 178.824 75.1809C176.22 75.1809 173.676 75.1809 171.051 75.1809C171.051 74.8909 171.051 74.6289 171.051 74.3659C171.051 68.9579 171.044 63.5509 171.055 58.1429C171.059 56.4059 170.757 54.7899 169.445 53.5219C168.354 52.4679 166.966 52.0129 165.525 51.9609C162.164 51.8409 158.797 51.8569 155.433 51.8299C154.807 51.8249 154.578 52.2189 154.58 52.8009C154.583 54.2589 154.58 55.7179 154.58 57.1759C154.58 62.8979 154.58 68.6189 154.58 74.3409C154.579 74.6069 154.579 74.8709 154.579 75.1829Z" fill="#060606"/>
<path d="M105.988 51.823C105.69 51.823 105.425 51.823 105.161 51.823C100.652 51.823 96.142 51.817 91.633 51.829C90.94 51.831 90.239 51.863 89.555 51.968C87.403 52.297 86.021 53.516 85.52 55.654C84.869 58.428 84.838 61.217 85.559 63.977C86.172 66.324 87.661 67.5229 90.093 67.6709C91.569 67.7599 93.052 67.746 94.532 67.75C98.077 67.76 101.621 67.753 105.166 67.753C105.43 67.753 105.695 67.753 105.997 67.753C105.997 70.255 105.997 72.69 105.997 75.168C105.852 75.185 105.703 75.216 105.555 75.216C100.35 75.217 95.145 75.246 89.941 75.202C86.848 75.176 84.014 74.315 81.639 72.232C79.395 70.264 78.234 67.705 77.714 64.834C76.96 60.672 76.953 56.514 78.31 52.469C79.904 47.719 83.343 45.147 88.259 44.515C89.322 44.379 90.406 44.38 91.481 44.376C96.035 44.362 100.589 44.37 105.143 44.37C105.409 44.37 105.676 44.37 105.988 44.37C105.988 46.845 105.988 49.278 105.988 51.823Z" fill="#060606"/>
<path d="M194.229 75.188C191.563 75.188 189.014 75.188 186.395 75.188C186.395 67.387 186.395 59.617 186.395 51.78C184.991 51.78 183.657 51.78 182.284 51.78C182.284 49.301 182.284 46.889 182.284 44.406C183.622 44.406 184.955 44.406 186.394 44.406C186.394 44.057 186.373 43.775 186.397 43.497C186.568 41.537 186.587 39.546 186.962 37.625C187.594 34.384 189.614 32.318 192.96 31.99C195.846 31.707 198.762 31.73 201.705 31.616C201.705 34.092 201.705 36.391 201.705 38.789C201.151 38.789 200.621 38.783 200.092 38.79C198.971 38.806 197.847 38.782 196.73 38.861C195.326 38.961 194.53 39.68 194.345 41.063C194.204 42.122 194.214 43.2 194.153 44.341C196.747 44.341 199.249 44.341 201.805 44.341C201.805 46.835 201.805 49.264 201.805 51.758C199.299 51.758 196.798 51.758 194.228 51.758C194.229 59.593 194.229 67.364 194.229 75.188Z" fill="#060606"/>
<path d="M336.444 51.7769C335.029 51.7769 333.711 51.7769 332.343 51.7769C332.343 49.3049 332.343 46.8749 332.343 44.3759C333.701 44.3759 335.035 44.3759 336.443 44.3759C336.443 41.9199 336.443 39.5319 336.443 37.1129C339.067 37.1129 341.616 37.1129 344.237 37.1129C344.237 39.5099 344.237 41.8989 344.237 44.3529C346.81 44.3529 349.312 44.3529 351.862 44.3529C351.862 46.8489 351.862 49.2789 351.862 51.7749C349.333 51.7749 346.832 51.7749 344.29 51.7749C344.277 52.0329 344.258 52.2279 344.258 52.4239C344.256 56.4189 344.253 60.4129 344.258 64.4079C344.261 67.2879 345.119 68.1459 347.988 68.1529C349.221 68.1559 350.453 68.1529 351.737 68.1529C351.737 70.5189 351.737 72.8349 351.737 75.2369C348.636 75.0979 345.537 75.5029 342.472 74.8959C339.123 74.2329 337.447 71.9729 336.872 68.7909C336.618 67.3859 336.485 65.9419 336.465 64.5139C336.411 60.5429 336.445 56.5699 336.444 52.5979C336.444 52.3529 336.444 52.1099 336.444 51.7769Z" fill="#060606"/>
<path d="M72.011 75.1869C69.074 75.1869 66.213 75.1869 63.268 75.1869C63.268 74.9069 63.268 74.6459 63.268 74.3849C63.268 65.4989 63.268 56.6119 63.268 47.7259C63.268 45.4659 62.855 45.0539 60.608 45.0539C59.627 45.0539 58.645 45.0539 57.63 45.0539C57.63 42.1699 57.63 39.3519 57.63 36.5339C57.665 36.5069 57.7 36.4559 57.734 36.4559C60.49 36.4689 63.26 36.2309 65.988 36.7899C69.543 37.5179 71.221 39.2979 71.725 42.8809C71.89 44.0549 71.995 45.2479 71.997 46.4329C72.019 55.8349 72.01 65.2379 72.011 74.6399C72.011 74.7959 72.011 74.9519 72.011 75.1869Z" fill="#060606"/>
<path d="M226.76 75.189C224.12 75.189 221.573 75.189 218.942 75.189C218.942 74.921 218.942 74.681 218.942 74.44C218.942 67.644 218.915 60.848 218.963 54.052C218.973 52.584 219.109 51.085 219.436 49.658C220.151 46.527 222.099 44.888 225.302 44.521C226.168 44.422 227.045 44.38 227.918 44.376C231.551 44.36 235.185 44.369 238.818 44.369C239.061 44.369 239.303 44.369 239.589 44.369C239.589 46.85 239.589 49.282 239.589 51.82C239.356 51.82 239.121 51.82 238.886 51.82C236.015 51.82 233.144 51.816 230.273 51.824C229.849 51.825 229.42 51.853 229.001 51.915C227.761 52.099 226.984 52.892 226.832 54.13C226.778 54.574 226.764 55.025 226.763 55.472C226.759 61.73 226.76 67.987 226.76 74.245C226.76 74.538 226.76 74.829 226.76 75.189Z" fill="#060606"/>
<path d="M363.272 75.186C360.674 75.186 358.125 75.186 355.542 75.186C355.542 64.931 355.542 54.708 355.542 44.428C358.095 44.428 360.66 44.428 363.272 44.428C363.272 54.653 363.272 64.892 363.272 75.186Z" fill="#060606"/>
<path d="M205.173 44.4039C207.767 44.4039 210.315 44.4039 212.9 44.4039C212.9 54.6589 212.9 64.8809 212.9 75.1609C210.35 75.1609 207.786 75.1609 205.173 75.1609C205.173 64.9399 205.173 54.7019 205.173 44.4039Z" fill="#060606"/>
<path d="M355.557 33.417C358.153 33.417 360.699 33.417 363.282 33.417C363.282 36.38 363.282 39.299 363.282 42.282C360.731 42.282 358.169 42.282 355.557 42.282C355.557 39.363 355.557 36.423 355.557 33.417Z" fill="#060606"/>
<path d="M212.903 33.4309C212.903 36.4289 212.903 39.3479 212.903 42.3069C210.322 42.3069 207.775 42.3069 205.177 42.3069C205.177 39.3689 205.177 36.4299 205.177 33.4309C207.73 33.4309 210.293 33.4309 212.903 33.4309Z" fill="#060606"/>
<path d="M106 109H0V0H106V31.616H98V8H8V101H98V88.333H106V109Z" fill="#060606"/>
</svg>
