<svg width="104" height="56" viewBox="0 0 104 56" fill="none" xmlns="http://www.w3.org/2000/svg">
<path d="M43.94 51.6338C43.94 35.7222 43.94 20.1397 43.94 4.25431C43.1541 4.25431 42.427 4.26241 41.7002 4.25232C40.7179 4.23868 39.7341 4.2409 38.7539 4.18121C37.74 4.11946 37.1242 3.52732 37.1234 2.42808C37.1227 1.42265 37.69 0.755279 38.6169 0.736819C41.4898 0.679673 44.3644 0.71593 47.4126 0.71593C47.4126 11.8322 47.4126 22.797 47.4126 33.7619C47.538 33.8467 47.6633 33.9316 47.7886 34.0165C52.3986 29.9161 57.0087 25.8157 61.8812 21.4818C61.1354 21.3945 60.7191 21.344 60.3024 21.2973C58.9247 21.143 58.1553 20.461 58.1502 19.3876C58.1448 18.2686 58.8512 17.6274 60.337 17.6088C63.6904 17.5669 67.0445 17.5907 70.3983 17.5911C72.133 17.5913 73.8687 17.5586 75.6019 17.6154C76.9978 17.6612 77.6461 18.2325 77.7023 19.2887C77.7623 20.415 77.0607 21.1537 75.6471 21.2542C74.4443 21.3397 73.2319 21.2719 72.0237 21.2719C71.9482 21.4031 71.8726 21.5342 71.797 21.6654C75.4864 25.4399 79.1757 29.2143 82.9993 33.1261C86.8207 29.231 90.5051 25.4755 94.1895 21.7201C94.1491 21.5784 94.1087 21.4367 94.0683 21.2951C93.1809 21.2951 92.2935 21.3013 91.4062 21.2925C90.9444 21.2879 90.4751 21.3068 90.0228 21.2274C88.8978 21.0299 88.2048 20.2709 88.2288 19.3348C88.2536 18.3698 88.9206 17.662 90.1483 17.6387C93.5007 17.575 96.8549 17.5917 100.208 17.6223C101.22 17.6315 102.033 18.078 102.154 19.2934C102.248 20.2304 101.558 20.975 100.424 21.2192C100.03 21.304 99.6249 21.3295 99.136 21.3937C94.6216 26.0465 90.0693 30.7383 85.4042 35.5464C90.6206 40.9226 95.7518 46.211 100.912 51.5295C101.43 51.5764 101.942 51.6229 102.454 51.6692C103.438 51.7579 103.899 52.433 103.958 53.3752C104.02 54.3658 103.485 54.9935 102.578 55.2029C102.188 55.2931 101.774 55.2988 101.371 55.2996C97.902 55.3062 94.4325 55.3039 90.963 55.3011C90.6744 55.3009 90.3822 55.304 90.0977 55.2605C88.9821 55.0897 88.2886 54.3448 88.3794 53.3484C88.4784 52.2621 89.1294 51.6978 90.1194 51.6675C91.737 51.6179 93.3567 51.6442 94.9754 51.6282C95.2437 51.6256 95.5116 51.5707 96.1874 51.4932C91.6935 46.8819 87.4405 42.5178 83.0108 37.9722C78.7351 42.3272 74.5542 46.5856 70.0393 51.1842C70.9608 51.3982 71.4622 51.595 71.9702 51.6168C73.2404 51.6712 74.5155 51.6028 75.785 51.6659C76.9247 51.7226 77.6177 52.4333 77.6382 53.4183C77.6585 54.3934 76.9506 55.2397 75.8577 55.2526C71.6952 55.3015 67.5317 55.3022 63.3691 55.2579C62.2193 55.2457 61.5215 54.4985 61.4777 53.525C61.43 52.4658 62.131 51.7905 63.4021 51.642C64.0523 51.566 64.6987 51.4535 65.3468 51.3575C65.4041 51.2069 65.4615 51.0563 65.5188 50.9057C60.8717 45.8347 56.2245 40.7638 51.4168 35.5177C50.0829 36.6931 48.8159 37.8096 47.4619 39.0026C47.4619 44.3373 47.4619 49.6609 47.4619 55.1874C46.7121 55.2317 46.1042 55.2954 45.4961 55.2983C43.4145 55.3083 41.3321 55.3303 39.2514 55.2817C37.8539 55.2491 37.1078 54.5442 37.1168 53.4222C37.1258 52.2962 37.8368 51.682 39.3016 51.6428C40.7914 51.6027 42.2829 51.6338 43.94 51.6338ZM80.6027 35.5437C75.9796 30.834 71.5315 26.3026 66.9847 21.6706C62.6066 25.56 58.3331 29.3565 53.9693 33.2331C58.7015 38.363 63.2905 43.3378 67.9638 48.4039C72.2113 44.0821 76.3339 39.8872 80.6027 35.5437Z" fill="black"/>
<path d="M17.5048 51.6344C21.4258 51.6344 24.9994 51.6308 28.573 51.638C29.1492 51.6391 29.7368 51.6216 30.2989 51.7307C31.1382 51.8936 31.6042 52.4961 31.6206 53.4092C31.6369 54.3176 31.2007 54.9478 30.375 55.164C29.8787 55.2939 29.345 55.2982 28.8281 55.2986C20.103 55.3062 11.378 55.3042 2.65295 55.3038C2.42188 55.3038 2.18964 55.312 1.95997 55.2912C0.686258 55.1758 -0.010159 54.5141 0.000112009 53.4399C0.0105218 52.3498 0.690768 51.6677 1.98984 51.6522C5.34076 51.612 8.69233 51.6357 12.0437 51.6339C12.6639 51.6336 13.2842 51.6339 14.0085 51.6339C14.0085 36.0623 14.0085 20.6918 14.0085 5.08577C13.3159 5.27306 12.7154 5.4046 12.1333 5.59807C9.21307 6.56858 6.29766 7.55536 3.38049 8.53611C3.05095 8.6469 2.72713 8.79104 2.38982 8.85887C1.18392 9.10138 0.315251 8.60073 0.0686082 7.55053C-0.149547 6.62163 0.359422 5.71237 1.4436 5.32063C3.13652 4.70892 4.85479 4.17662 6.56079 3.60563C9.86305 2.50035 13.1639 1.39054 16.4665 0.286178C16.7304 0.197933 17.0025 0.137396 17.5047 0C17.5048 17.2294 17.5048 34.3014 17.5048 51.6344Z" fill="black"/>
</svg>
