<svg width="105" height="56" viewBox="0 0 105 56" fill="none" xmlns="http://www.w3.org/2000/svg">
<path d="M44.8448 51.6411C44.8448 35.7294 44.8448 20.1468 44.8448 4.2614C44.0588 4.2614 43.3318 4.26951 42.605 4.25941C41.6227 4.24578 40.6389 4.24799 39.6587 4.1883C38.6448 4.12655 38.029 3.53441 38.0282 2.43517C38.0275 1.42974 38.5948 0.762359 39.5217 0.7439C42.3946 0.686753 45.2692 0.723011 48.3174 0.723011C48.3174 11.8393 48.3174 22.8042 48.3174 33.7691C48.4428 33.854 48.5681 33.9388 48.6934 34.0237C53.3034 29.9233 57.9135 25.8229 62.786 21.489C62.0402 21.4017 61.6239 21.3512 61.2072 21.3045C59.8295 21.1501 59.0601 20.4681 59.0549 19.3947C59.0496 18.2757 59.7559 17.6346 61.2418 17.616C64.5952 17.574 67.9493 17.5979 71.3031 17.5983C73.0377 17.5985 74.7735 17.5658 76.5066 17.6226C77.9026 17.6683 78.5508 18.2396 78.6071 19.2959C78.6671 20.4222 77.9655 21.1608 76.5519 21.2613C75.3491 21.3469 74.1367 21.279 72.9285 21.279C72.8529 21.4102 72.7774 21.5414 72.7018 21.6726C76.3912 25.4471 80.0805 29.2215 83.9041 33.1333C87.7255 29.2382 91.4099 25.4827 95.0943 21.7273C95.0538 21.5856 95.0135 21.4439 94.9731 21.3022C94.0857 21.3022 93.1983 21.3085 92.311 21.2997C91.8492 21.2951 91.3799 21.314 90.9276 21.2346C89.8025 21.0371 89.1096 20.2781 89.1336 19.342C89.1584 18.377 89.8254 17.6691 91.0531 17.6458C94.4055 17.5822 97.7597 17.5989 101.113 17.6294C102.124 17.6386 102.938 18.0852 103.059 19.3006C103.152 20.2375 102.463 20.9822 101.329 21.2264C100.935 21.3111 100.53 21.3366 100.041 21.4008C95.5264 26.0537 90.9741 30.7455 86.309 35.5537C91.5254 40.9299 96.6566 46.2183 101.817 51.5368C102.335 51.5837 102.847 51.6302 103.359 51.6765C104.343 51.7652 104.804 52.4404 104.863 53.3825C104.924 54.3731 104.389 55.0008 103.483 55.2102C103.092 55.3005 102.679 55.3061 102.276 55.3069C98.8068 55.3136 95.3373 55.3112 91.8678 55.3084C91.5792 55.3082 91.2869 55.3113 91.0025 55.2678C89.8869 55.097 89.1934 54.3521 89.2842 53.3557C89.3832 52.2694 90.0342 51.7051 91.0242 51.6748C92.6418 51.6252 94.2615 51.6515 95.8801 51.6355C96.1485 51.6329 96.4164 51.578 97.0922 51.5006C92.5982 46.8892 88.3453 42.5251 83.9156 37.9795C79.6399 42.3344 75.459 46.5929 70.9441 51.1915C71.8656 51.4055 72.3669 51.6024 72.875 51.6241C74.1452 51.6785 75.4203 51.6101 76.6898 51.6732C77.8294 51.7299 78.5225 52.4406 78.543 53.4256C78.5633 54.4007 77.8553 55.247 76.7625 55.2599C72.6 55.3089 68.4364 55.3095 64.2739 55.2652C63.1241 55.253 62.4263 54.5058 62.3824 53.5323C62.3348 52.4731 63.0358 51.7978 64.3069 51.6493C64.9571 51.5733 65.6035 51.4608 66.2516 51.3648C66.3089 51.2142 66.3663 51.0636 66.4236 50.913C61.7764 45.842 57.1293 40.771 52.3216 35.5249C50.9876 36.7004 49.7206 37.8168 48.3667 39.0099C48.3667 44.3445 48.3667 49.6682 48.3667 55.1947C47.6168 55.239 47.009 55.3028 46.4009 55.3057C44.3193 55.3156 42.2368 55.3376 40.1561 55.2891C38.7587 55.2564 38.0126 54.5515 38.0216 53.4295C38.0306 52.3036 38.7416 51.6893 40.2063 51.6501C41.6962 51.61 43.1877 51.6411 44.8448 51.6411ZM81.5075 35.5509C76.8844 30.8412 72.4362 26.3098 67.8894 21.6778C63.5113 25.5672 59.2378 29.3637 54.8741 33.2403C59.6062 38.3702 64.1953 43.345 68.8686 48.4112C73.1161 44.0894 77.2387 39.8945 81.5075 35.5509Z" fill="black"/>
<path d="M18.4091 51.6416C22.3301 51.6416 25.9037 51.638 29.4773 51.6452C30.0535 51.6463 30.6411 51.6288 31.2032 51.7379C32.0425 51.9008 32.5085 52.5033 32.5249 53.4164C32.5412 54.3249 32.105 54.9551 31.2793 55.1712C30.783 55.3011 30.2493 55.3054 29.7324 55.3059C21.0073 55.3134 12.2823 55.3115 3.55724 55.311C3.32618 55.311 3.09394 55.3192 2.86426 55.2984C1.59055 55.183 0.894138 54.5213 0.904409 53.4471C0.914819 52.357 1.59506 51.6749 2.89414 51.6594C6.24506 51.6192 9.59663 51.6429 12.948 51.6411C13.5682 51.6408 14.1885 51.6411 14.9128 51.6411C14.9128 36.0695 14.9128 20.699 14.9128 5.09298C14.2202 5.28026 13.6197 5.4118 13.0376 5.60528C10.1174 6.57578 7.20196 7.56257 4.28478 8.54331C3.95524 8.6541 3.63143 8.79824 3.29412 8.86607C2.08821 9.10859 1.21955 8.60793 0.972905 7.55773C0.75475 6.62883 1.26372 5.71957 2.3479 5.32783C4.04081 4.71613 5.75909 4.18382 7.46508 3.61283C10.7674 2.50755 14.0682 1.39774 17.3708 0.29338C17.6347 0.205136 17.9068 0.144598 18.409 0.00720215C18.4091 17.2366 18.4091 34.3086 18.4091 51.6416Z" fill="black"/>
</svg>
