<?xml version="1.0" encoding="utf-8"?>
<!-- Generator: Adobe Illustrator 25.4.1, SVG Export Plug-In . SVG Version: 6.00 Build 0)  -->
<svg version="1.1" id="Layer_1" xmlns="http://www.w3.org/2000/svg" xmlns:xlink="http://www.w3.org/1999/xlink" x="0px" y="0px"
	 viewBox="0 0 147 140" style="enable-background:new 0 0 147 140;" xml:space="preserve">
<style type="text/css">
	.st0{fill:#FABF00;fill-opacity:0.12;}
	.st1{fill:none;stroke:#FABF00;stroke-width:3.61;}
	.st2{fill:#FFFFFF;}
</style>
<g>
	<path class="st0" d="M89.5,15.9c3.8-4.1,10.3-4.4,14.5-0.5c1.4,1.3,2.5,3,2.9,4.9l25.4,98.5c1.4,5.5-1.9,11-7.3,12.5
		c-1.7,0.4-3.4,0.4-5.1,0l-94.6-23.9c-5.5-1.4-8.8-6.9-7.4-12.4c0.4-1.7,1.3-3.2,2.4-4.5L89.5,15.9z"/>
	<path class="st1" d="M89.5,15.9c3.8-4.1,10.3-4.4,14.5-0.5c1.4,1.3,2.5,3,2.9,4.9l25.4,98.5c1.4,5.5-1.9,11-7.3,12.5
		c-1.7,0.4-3.4,0.4-5.1,0l-94.6-23.9c-5.5-1.4-8.8-6.9-7.4-12.4c0.4-1.7,1.3-3.2,2.4-4.5L89.5,15.9z"/>
</g>
<path class="st2" d="M17.2,80.2c-0.4,0.4-0.8,0.8-1.3,1c-0.5,0.2-1,0.3-1.4,0.3c-0.5,0-1-0.2-1.5-0.4c-1.1-0.5-2-1.4-2.6-2.4
	c-0.3-0.4-0.4-0.9-0.5-1.5c0-0.5,0-1,0.2-1.5c0.2-0.5,0.5-1,0.9-1.4c0.4-0.4,0.8-0.8,1.3-1c0.5-0.2,1-0.3,1.4-0.3
	c0.5,0,1,0.1,1.5,0.3c0.5,0.3,1,0.6,1.5,1c0.4,0.4,0.8,0.9,1.1,1.4c0.3,0.5,0.4,1,0.5,1.5c0,0.5,0,1-0.2,1.5
	C17.8,79.3,17.5,79.8,17.2,80.2z M15.8,78.9c0.3-0.3,0.4-0.7,0.4-1.1c-0.1-0.4-0.3-0.8-0.6-1.1l-1.2-1.1c-0.3-0.3-0.7-0.5-1.1-0.5
	c-0.4,0-0.8,0.2-1,0.5c-0.3,0.3-0.5,0.7-0.4,1.1c0.1,0.4,0.3,0.8,0.6,1.1l1.2,1.1c0.3,0.3,0.7,0.5,1.1,0.5
	C15.2,79.4,15.6,79.2,15.8,78.9z M20.8,76l-6-5.6l1.6-1.7l1.3,1.3l0.1-0.1c-0.1-0.2-0.3-0.4-0.3-0.6c-0.1-0.2-0.1-0.5-0.1-0.7
	c0-0.2,0-0.5,0.1-0.7c0.1-0.3,0.3-0.5,0.5-0.7l0.3-0.3l1.6,1.5l-0.4,0.4c-0.4,0.3-0.6,0.8-0.8,1.2c-0.1,0.4,0.1,0.8,0.4,1l3.5,3.3
	L20.8,76z M30.5,66.4c0.3,0.3,0.5,0.6,0.7,1c0.2,0.3,0.2,0.7,0.1,1.1c-0.1,0.5-0.3,1-0.5,1.4c-0.4,0.6-0.8,1.2-1.3,1.7
	c-0.4,0.5-0.9,0.9-1.3,1.2c-0.3,0.3-0.7,0.5-1.1,0.6c-0.3,0.1-0.6,0.1-0.9,0.1c-0.3-0.1-0.5-0.2-0.7-0.4C25.2,72.8,25,72.4,25,72
	c0-0.4,0.2-0.8,0.4-1.2l-0.1-0.1c-0.3,0.2-0.6,0.3-1,0.3c-0.3,0-0.6-0.2-0.9-0.4c-0.1-0.1-0.3-0.3-0.3-0.5C23,70,23,69.8,23,69.6
	c0-0.2,0.1-0.4,0.1-0.6c0.1-0.2,0.2-0.4,0.3-0.5l0,0c-0.5,0.2-1,0.3-1.5,0.2c-0.5-0.1-1-0.3-1.3-0.7c-0.6-0.5-0.9-1.2-0.9-2
	c0.1-1,0.6-1.9,1.3-2.5c0.3-0.3,0.6-0.7,1-0.9l-0.2-0.2c-0.3-0.2-0.4-0.5-0.5-0.9c0-0.3,0.2-0.6,0.4-0.9l0.9-1l1.3,1.2l-1.2,1.3
	l0.1,0.1c0.4-0.2,0.9-0.2,1.4-0.1c0.5,0.1,0.9,0.4,1.3,0.7c0.6,0.5,0.9,1.2,0.9,2c-0.1,0.9-0.5,1.8-1.2,2.5
	c-0.3,0.4-0.7,0.7-1.1,0.9c-0.1,0.3,0,0.5,0.2,0.7c0.1,0.1,0.3,0.2,0.5,0.2c0.2-0.1,0.5-0.3,0.6-0.5l1.6-1.7c0.5-0.6,1.2-1,1.9-1.2
	C29.5,65.7,30.1,65.9,30.5,66.4L30.5,66.4z M29.3,68.2c-0.1-0.2-0.4-0.2-0.6-0.2c-0.3,0.1-0.6,0.3-0.8,0.6L26,70.7
	c0,0.1,0,0.3,0.1,0.4c0.1,0.1,0.2,0.2,0.2,0.3c0.2,0.2,0.5,0.3,0.7,0.2c0.4-0.2,0.8-0.5,1.1-0.8l0.6-0.7c0.3-0.3,0.6-0.7,0.8-1.1
	C29.6,68.7,29.5,68.4,29.3,68.2L29.3,68.2z M23.9,66.2c0.3-0.2,0.4-0.6,0.5-0.9c0-0.3-0.1-0.6-0.4-0.8l-0.1-0.1
	C23.6,64.1,23.3,64,23,64c-0.7,0.2-1.3,0.8-1.4,1.5c0,0.3,0.1,0.6,0.4,0.8l0.1,0.1c0.2,0.2,0.5,0.4,0.8,0.3
	C23.3,66.7,23.6,66.5,23.9,66.2L23.9,66.2z M34.9,60.8c-0.3,0.3-0.6,0.5-1,0.5c-0.4,0-0.8-0.1-1.1-0.3l-0.1,0.1
	c0.3,0.4,0.4,0.9,0.3,1.4c-0.1,0.5-0.4,1-0.8,1.4c-0.4,0.5-1.1,0.9-1.8,0.9c-0.6,0-1.3-0.2-1.7-0.7c-0.6-0.5-0.9-1.2-0.8-2
	c0.2-0.9,0.6-1.7,1.3-2.3l0.9-1l-0.4-0.3c-0.4-0.5-1.2-0.5-1.7-0.1c-0.1,0.1-0.1,0.1-0.2,0.2c-0.3,0.3-0.5,0.6-0.5,1
	c-0.1,0.3-0.1,0.7,0,1l-1.8,0.2c-0.1-0.6-0.1-1.1,0-1.7c0.2-0.7,0.6-1.3,1.1-1.8c0.6-0.7,1.4-1.2,2.4-1.4c0.8-0.1,1.7,0.3,2.2,0.9
	l2.7,2.5l0.5-0.6l1.3,1.2L34.9,60.8z M31.7,62.2c0.2-0.2,0.4-0.6,0.5-0.9c0.1-0.3,0-0.7-0.3-0.9l-0.7-0.7l-0.8,0.8
	c-0.6,0.7-0.7,1.2-0.3,1.6l0.2,0.2c0.2,0.2,0.4,0.3,0.7,0.3C31.3,62.6,31.5,62.4,31.7,62.2z M36.9,58.8l-6-5.6l1.6-1.7l1,1l0.1-0.1
	c-0.2-0.4-0.3-0.9-0.3-1.3c0-0.5,0.3-1.1,0.7-1.4c0.5-0.6,1.2-0.9,1.9-0.8c0.8,0.1,1.6,0.6,2.2,1.2l3.8,3.5l-1.6,1.7l-3.6-3.4
	c-0.3-0.3-0.6-0.5-1-0.6c-0.3,0-0.7,0.1-0.9,0.4c-0.1,0.1-0.2,0.3-0.3,0.5c-0.1,0.2-0.1,0.3-0.2,0.5c0,0.2,0,0.3,0.1,0.5
	c0.1,0.2,0.2,0.3,0.3,0.5l3.9,3.6L36.9,58.8z M37.4,44.9c-0.2,0.3-0.6,0.5-0.9,0.5c-0.3,0-0.6-0.1-0.8-0.3l-0.2-0.2
	c-0.2-0.2-0.4-0.5-0.4-0.8c0-0.4,0.2-0.7,0.5-1c0.2-0.3,0.6-0.5,0.9-0.5c0.3,0,0.6,0.1,0.8,0.3l0.3,0.2c0.2,0.2,0.4,0.5,0.4,0.8
	C37.8,44.3,37.6,44.6,37.4,44.9z M37.2,46.3l1.6-1.7l6,5.6l-1.6,1.7L37.2,46.3z M48.3,46.8c-0.5,0.5-1,0.9-1.6,1.2
	c-0.6,0.2-1.2,0.3-1.8,0.3l-0.1-1.9c0.4,0,0.8-0.1,1.2-0.2c0.4-0.1,0.7-0.4,1-0.7c0.2-0.2,0.4-0.5,0.5-0.8c0-0.2-0.1-0.4-0.2-0.6
	c-0.3-0.3-0.6-0.2-1.1,0.1l-0.7,0.6c-1.4,1.2-2.7,1.3-3.7,0.3c-0.3-0.2-0.5-0.6-0.6-0.9C41,43.8,41,43.5,41,43.1
	c0-0.4,0.1-0.8,0.3-1.1c0.2-0.4,0.4-0.8,0.7-1.1c0.3-0.3,0.5-0.5,0.8-0.8c0.2-0.2,0.5-0.4,0.8-0.5c0.2-0.1,0.5-0.2,0.8-0.2
	c0.3-0.1,0.6-0.1,0.8-0.1l0.1,1.9c-0.3,0-0.7,0.1-1,0.2c-0.3,0.1-0.6,0.3-0.8,0.6c-0.2,0.2-0.4,0.5-0.4,0.8c0,0.2,0,0.4,0.2,0.5
	c0.1,0.1,0.3,0.2,0.5,0.2c0.2-0.1,0.5-0.2,0.7-0.3l0.7-0.6c1.4-1.2,2.6-1.2,3.7-0.3c0.3,0.3,0.5,0.6,0.6,0.9
	c0.1,0.4,0.2,0.7,0.2,1.1c0,0.4-0.2,0.8-0.3,1.2C48.9,46,48.6,46.4,48.3,46.8z M55.8,38.5c-0.3,0.3-0.6,0.5-1,0.5
	c-0.4,0-0.8-0.1-1.1-0.3l-0.1,0.1c0.3,0.4,0.4,0.9,0.3,1.4c-0.1,0.5-0.4,1-0.8,1.4c-0.4,0.5-1.1,0.9-1.8,0.9c-0.6,0-1.3-0.2-1.7-0.7
	c-0.6-0.5-0.9-1.2-0.8-2c0.2-0.9,0.6-1.7,1.3-2.3l0.9-1l-0.4-0.3c-0.4-0.5-1.2-0.5-1.7-0.1c-0.1,0.1-0.1,0.1-0.2,0.2
	c-0.3,0.3-0.5,0.6-0.5,1c-0.1,0.3-0.1,0.7,0,1l-1.8,0.2c-0.1-0.6-0.1-1.1,0-1.7c0.2-0.7,0.6-1.3,1.1-1.8c0.6-0.7,1.4-1.2,2.3-1.4
	c0.8-0.1,1.7,0.3,2.2,0.9l2.6,2.5l0.5-0.6l1.3,1.2L55.8,38.5z M52.5,39.8c0.2-0.2,0.4-0.5,0.5-0.8c0.1-0.3,0-0.7-0.3-0.9L52,37.5
	l-0.8,0.8c-0.6,0.7-0.7,1.2-0.2,1.6l0.2,0.2c0.2,0.2,0.4,0.3,0.7,0.2C52.1,40.3,52.4,40.1,52.5,39.8z M59.6,34.3
	c-0.4,0.5-1,0.9-1.7,0.9c-0.7,0-1.3-0.3-1.7-0.8l-2.9-2.7l-0.8,0.8l-1.3-1.2l0.4-0.4c0.2-0.2,0.3-0.4,0.3-0.6
	c-0.1-0.2-0.2-0.4-0.4-0.6l-1-0.9l1.4-1.5l1.6,1.5l1.1-1.2l1.3,1.2l-1.1,1.2l3.4,3.2l1-1.1l1.3,1.2L59.6,34.3z M55.9,25
	c-0.2,0.3-0.6,0.5-0.9,0.5c-0.3,0-0.6-0.1-0.8-0.3L53.9,25c-0.2-0.2-0.4-0.5-0.4-0.8c0-0.4,0.2-0.7,0.5-1c0.2-0.3,0.6-0.5,0.9-0.5
	c0.3,0,0.6,0.1,0.8,0.3l0.3,0.2c0.2,0.2,0.4,0.5,0.4,0.8C56.3,24.4,56.1,24.8,55.9,25z M55.7,26.4l1.6-1.7l6,5.6L61.7,32L55.7,26.4z
	 M67.2,26.4c-0.4,0.4-0.8,0.8-1.3,1c-0.5,0.2-1,0.3-1.4,0.3c-0.5,0-1-0.2-1.5-0.4c-0.5-0.2-1.1-0.6-1.5-1C61,26,60.6,25.5,60.3,25
	c-0.3-0.4-0.4-0.9-0.5-1.5c-0.1-0.5,0-1,0.2-1.5c0.2-0.5,0.5-1,0.9-1.4c0.4-0.4,0.8-0.8,1.3-1c0.5-0.2,1-0.3,1.5-0.3
	c0.5,0,1,0.1,1.5,0.4c0.5,0.3,1,0.6,1.5,1c0.4,0.4,0.8,0.9,1.1,1.4c0.3,0.5,0.4,1,0.5,1.5c0.1,0.5,0,1-0.2,1.5
	C67.9,25.6,67.6,26.1,67.2,26.4L67.2,26.4z M65.8,25.2c0.3-0.3,0.4-0.7,0.4-1.1c-0.1-0.4-0.3-0.8-0.6-1.1l-1.2-1
	c-0.3-0.3-0.7-0.5-1.1-0.5c-0.8,0.1-1.4,0.7-1.5,1.5c0.1,0.4,0.3,0.8,0.6,1.1l1.2,1.1c0.3,0.3,0.7,0.5,1.1,0.5
	C65.2,25.8,65.6,25.6,65.8,25.2L65.8,25.2z M70.8,22.3l-6-5.6l1.6-1.7l1,1l0.1-0.1c-0.2-0.4-0.3-0.9-0.3-1.3
	c0.1-0.5,0.3-1.1,0.7-1.4c0.5-0.6,1.2-0.9,1.9-0.8c0.8,0.1,1.6,0.6,2.2,1.2l3.7,3.5l-1.6,1.7l-3.6-3.4c-0.3-0.3-0.6-0.5-1-0.6
	c-0.3,0-0.7,0.1-0.9,0.4c-0.1,0.1-0.2,0.3-0.3,0.4c-0.1,0.2-0.1,0.3-0.2,0.5c0,0.2,0,0.3,0.1,0.5c0.1,0.2,0.2,0.3,0.3,0.4l3.9,3.6
	L70.8,22.3z"/>
</svg>
