<?xml version="1.0" encoding="utf-8"?>
<!-- Generator: Adobe Illustrator 25.4.1, SVG Export Plug-In . SVG Version: 6.00 Build 0)  -->
<svg version="1.1" id="Layer_1" xmlns="http://www.w3.org/2000/svg" xmlns:xlink="http://www.w3.org/1999/xlink" x="0px" y="0px"
	 viewBox="0 0 144 135" style="enable-background:new 0 0 144 135;" xml:space="preserve">
<style type="text/css">
	.st0{fill:#FFFFFF;}
	.st1{fill:#0BAB74;fill-opacity:0.12;stroke:#0BAB74;stroke-width:3.61;}
</style>
<g>
	<path class="st0" d="M14.4,85.7l-6.1-5.5l1.6-1.7l1,0.9l0.1-0.1c-0.2-0.4-0.3-0.8-0.3-1.3c0-0.5,0.3-1,0.6-1.4
		c0.3-0.4,0.8-0.7,1.3-0.8c0.5-0.1,1,0,1.5,0.2l0,0c-0.2-0.4-0.3-1-0.3-1.4c0-0.3,0.1-0.5,0.2-0.8c0.1-0.3,0.3-0.5,0.5-0.8
		c0.4-0.5,1.1-0.8,1.8-0.8c0.8,0.1,1.6,0.5,2.2,1.1l3.8,3.4l-1.6,1.7l-3.7-3.3c-0.8-0.7-1.4-0.8-1.9-0.2c-0.2,0.2-0.4,0.6-0.4,0.9
		c0,0.4,0.1,0.7,0.4,0.9l3.9,3.6l-1.5,1.7L14,78.8c-0.8-0.7-1.4-0.8-1.9-0.2c-0.1,0.1-0.2,0.3-0.3,0.4c-0.1,0.3-0.1,0.7,0,1
		c0.1,0.2,0.2,0.3,0.3,0.4L16,84L14.4,85.7z M26.3,72.9c-0.4,0.4-0.8,0.8-1.4,1c-0.5,0.2-1,0.3-1.5,0.3c-0.5,0-1-0.1-1.5-0.3
		c-1.1-0.5-2-1.3-2.6-2.4c-0.3-0.4-0.4-0.9-0.5-1.5c0-0.5,0-1,0.2-1.5c0.2-0.5,0.5-1,0.9-1.4c0.4-0.4,0.9-0.8,1.4-1
		c0.5-0.2,1-0.3,1.5-0.3c0.5,0,1,0.2,1.5,0.4c0.5,0.2,0.9,0.5,1.3,0.9l0.5,0.5l-3.5,3.9l0.1,0.1c0.3,0.3,0.8,0.5,1.3,0.5
		c0.5,0,1-0.3,1.3-0.7c0.3-0.3,0.5-0.7,0.6-1.1c0-0.4,0-0.7,0-1.1l1.9,0.1c0.1,0.6,0,1.2-0.2,1.7C27.1,71.9,26.7,72.4,26.3,72.9z
		 M21.1,68.3c-0.3,0.3-0.4,0.7-0.4,1.1c0.1,0.4,0.3,0.8,0.6,1.1l0.1,0.1l1.9-2.1l-0.1-0.1c-0.3-0.3-0.7-0.5-1.1-0.6
		C21.8,67.9,21.4,68,21.1,68.3L21.1,68.3z M31.6,66.7c-0.4,0.5-1,0.9-1.7,0.9c-0.7,0-1.3-0.3-1.7-0.7l-3-2.7l-0.8,0.9l-1.3-1.2
		l0.4-0.4c0.2-0.2,0.3-0.4,0.3-0.6c-0.1-0.2-0.2-0.4-0.4-0.6l-1-0.9l1.4-1.5l1.6,1.5l1.1-1.2l1.3,1.2l-1.1,1.2l3.4,3.1l1-1.1
		l1.3,1.2L31.6,66.7z M25.1,56.6l1.6-1.7l3.5,3.2l0.1-0.1c-0.2-0.4-0.3-0.9-0.3-1.3c0-0.5,0.3-1.1,0.7-1.4c0.5-0.6,1.2-0.9,1.9-0.8
		c0.8,0.1,1.6,0.5,2.2,1.1l3.8,3.4L37,60.7l-3.7-3.3c-0.3-0.3-0.6-0.5-1-0.6c-0.3,0-0.7,0.1-0.9,0.4c-0.1,0.1-0.2,0.3-0.3,0.5
		C31.1,57.8,31,58,31,58.2c0,0.2,0,0.3,0.1,0.5c0.1,0.2,0.2,0.3,0.3,0.4l3.9,3.6l-1.5,1.7L25.1,56.6z M42.4,55.2
		c-0.4,0.4-0.8,0.8-1.3,1c-0.4,0.2-0.9,0.3-1.4,0.3c-0.5,0-1-0.1-1.5-0.4c-0.6-0.3-1.1-0.6-1.5-1c-0.5-0.4-0.8-0.9-1.2-1.4
		c-0.2-0.5-0.4-0.9-0.5-1.5c0-0.5,0-1,0.2-1.5c0.2-0.5,0.5-1,0.8-1.4c0.4-0.4,0.8-0.8,1.3-1c0.4-0.2,0.9-0.3,1.4-0.3
		c0.5,0,1,0.1,1.5,0.3c0.6,0.3,1.1,0.6,1.5,1c0.5,0.4,0.8,0.9,1.1,1.4c0.3,0.5,0.4,1,0.5,1.5c0.1,0.5,0,1-0.2,1.5
		C43,54.3,42.8,54.8,42.4,55.2z M41,53.9c0.3-0.3,0.4-0.7,0.4-1.1c-0.1-0.4-0.3-0.8-0.6-1.1l-1.2-1.1c-0.3-0.3-0.7-0.5-1.1-0.5
		c-0.8,0.1-1.4,0.8-1.4,1.6c0.1,0.4,0.3,0.8,0.6,1.1l1.2,1.1c0.3,0.3,0.7,0.5,1.1,0.5C40.4,54.4,40.8,54.2,41,53.9L41,53.9z
		 M48.3,46.3L48.3,46.3c0.1,0.3,0.1,0.5,0.2,0.7c0,0.2,0,0.5,0,0.7c0,0.2-0.1,0.5-0.2,0.7c-0.1,0.2-0.2,0.5-0.4,0.6
		c-0.6,0.7-1.5,1.1-2.4,1c-2.2-0.6-4-2.2-4.7-4.3c-0.2-0.9,0.1-1.8,0.8-2.5c0.3-0.4,0.8-0.6,1.3-0.8c0.5-0.1,1-0.1,1.4,0.2l0-0.1
		l-3.5-3.2l1.5-1.7l8.6,7.8l-1.5,1.7L48.3,46.3z M47,47.2c0.3-0.3,0.4-0.6,0.5-1c0-0.4-0.1-0.7-0.4-0.9l-1.8-1.6
		c-0.3-0.3-0.6-0.4-1-0.3c-0.4,0.1-0.7,0.3-1,0.6c-0.3,0.3-0.4,0.7-0.3,1.1c0.1,0.4,0.3,0.9,0.6,1.1l1,1c0.3,0.3,0.8,0.5,1.2,0.5
		C46.3,47.8,46.7,47.6,47,47.2z M54.7,41.6c-0.4,0.4-0.8,0.8-1.3,1c-0.4,0.2-0.9,0.3-1.4,0.3c-0.5,0-1-0.1-1.5-0.3
		c-0.6-0.3-1.1-0.6-1.5-1c-0.5-0.4-0.8-0.9-1.2-1.4c-0.3-0.4-0.4-0.9-0.5-1.5c0-0.5,0-1,0.2-1.5c0.2-0.5,0.5-1,0.9-1.4
		c0.4-0.4,0.8-0.8,1.3-1c0.4-0.2,0.9-0.3,1.4-0.3c0.5,0,1,0.1,1.5,0.3c0.6,0.3,1.1,0.6,1.5,1c0.5,0.4,0.8,0.9,1.1,1.4
		c0.3,0.5,0.4,1,0.5,1.5c0.1,0.5,0,1-0.2,1.5C55.3,40.7,55,41.2,54.7,41.6L54.7,41.6z M53.3,40.3c0.3-0.3,0.4-0.7,0.4-1.1
		c-0.1-0.4-0.3-0.8-0.6-1.1L51.8,37c-0.3-0.3-0.7-0.5-1.1-0.5c-0.4,0-0.8,0.2-1,0.5c-0.3,0.3-0.4,0.7-0.4,1.1
		c0.1,0.4,0.4,0.8,0.7,1.1l1.2,1.1c0.3,0.3,0.7,0.5,1.1,0.5C52.8,40.8,53.1,40.6,53.3,40.3L53.3,40.3z M59.7,35.7
		c-0.6,0.9-1.8,1.2-2.8,0.6c0,0,0,0,0,0c-0.2-0.1-0.3-0.2-0.4-0.4l-6.9-6.3l1.5-1.7l7.2,6.6l0.7-0.8l1.3,1.2L59.7,35.7z M63.7,31.5
		c-0.4,0.4-0.8,0.8-1.3,1c-0.5,0.2-0.9,0.3-1.5,0.3c-0.5,0-1-0.1-1.5-0.3c-0.5-0.3-1.1-0.6-1.5-1c-0.5-0.4-0.8-0.9-1.1-1.4
		c-0.3-0.4-0.4-0.9-0.5-1.5c0-0.5,0-1,0.2-1.5c0.2-0.5,0.5-1,0.9-1.4c0.4-0.4,0.8-0.8,1.3-1c0.4-0.2,0.9-0.3,1.4-0.3
		c0.5,0,1,0.1,1.5,0.3c0.6,0.3,1.1,0.6,1.5,1c0.5,0.4,0.8,0.9,1.2,1.4c0.3,0.5,0.4,1,0.5,1.5c0.1,0.5,0,1-0.2,1.5
		C64.4,30.6,64.1,31.1,63.7,31.5L63.7,31.5z M62.3,30.3c0.3-0.3,0.4-0.7,0.4-1.1c-0.1-0.4-0.3-0.8-0.6-1.1L60.9,27
		c-0.3-0.3-0.7-0.5-1.1-0.5c-0.4,0-0.8,0.2-1,0.5c-0.3,0.3-0.4,0.7-0.4,1.1c0.1,0.4,0.3,0.8,0.6,1.1l1.2,1.1
		c0.3,0.3,0.7,0.5,1.2,0.5C61.8,30.8,62.1,30.6,62.3,30.3L62.3,30.3z M72.8,22.1c0.3,0.3,0.5,0.6,0.7,1c0.1,0.4,0.2,0.7,0.1,1.1
		c-0.1,0.5-0.3,1-0.5,1.4c-0.4,0.6-0.8,1.2-1.3,1.7c-0.4,0.5-0.9,0.9-1.3,1.2c-0.3,0.3-0.7,0.5-1.1,0.6c-0.3,0.1-0.6,0.2-0.9,0.1
		c-0.7-0.2-1.2-0.7-1.3-1.4c0-0.4,0.1-0.8,0.4-1.2l-0.1-0.1c-0.3,0.2-0.6,0.4-1,0.3c-0.3,0-0.6-0.2-0.9-0.4
		c-0.1-0.1-0.2-0.3-0.3-0.5c-0.1-0.2-0.1-0.4-0.1-0.5c0-0.2,0.1-0.4,0.1-0.6c0.1-0.2,0.2-0.4,0.2-0.5v0c-0.4,0.2-1,0.3-1.4,0.2
		c-0.5-0.1-0.9-0.3-1.3-0.7c-0.6-0.5-0.9-1.2-0.9-2c0.1-0.9,0.5-1.8,1.2-2.5c0.3-0.3,0.6-0.7,1-0.9L64,18.2
		c-0.3-0.2-0.4-0.5-0.5-0.9c0-0.3,0.2-0.7,0.4-0.9l0.9-1l1.2,1.2L64.9,18l0.1,0.1c0.4-0.2,0.9-0.2,1.4-0.1c0.5,0.1,0.9,0.3,1.3,0.7
		c0.6,0.5,0.9,1.2,0.9,2c-0.1,0.9-0.6,1.8-1.2,2.4c-0.3,0.4-0.7,0.7-1.1,1c-0.1,0.3,0,0.5,0.2,0.7c0.1,0.1,0.3,0.2,0.5,0.1
		c0.2-0.1,0.5-0.3,0.6-0.5l1.6-1.8c0.5-0.6,1.2-1,1.9-1.2C71.7,21.4,72.4,21.6,72.8,22.1L72.8,22.1z M71.6,23.9
		c-0.2-0.1-0.4-0.2-0.6-0.2c-0.3,0.1-0.6,0.3-0.8,0.6l-1.8,2.1c0,0.1,0,0.3,0.1,0.4c0.1,0.1,0.1,0.2,0.2,0.3
		c0.2,0.2,0.5,0.3,0.8,0.1c0.4-0.2,0.8-0.5,1.1-0.8l0.6-0.7c0.3-0.3,0.6-0.7,0.7-1.1C72,24.4,71.9,24.1,71.6,23.9L71.6,23.9z
		 M66.2,22c0.3-0.2,0.4-0.6,0.5-0.9c0-0.3-0.1-0.6-0.4-0.8l-0.1-0.1c-0.2-0.2-0.5-0.3-0.8-0.3c-0.4,0.1-0.7,0.3-0.9,0.5
		c-0.3,0.3-0.4,0.6-0.5,1c0,0.3,0.1,0.6,0.4,0.8l0.1,0.1c0.2,0.2,0.5,0.4,0.8,0.3C65.6,22.5,66,22.3,66.2,22z M67.2,14
		c-0.2,0.3-0.6,0.5-0.9,0.6c-0.3,0-0.6-0.1-0.8-0.3L65.2,14c-0.2-0.2-0.4-0.5-0.4-0.8c0-0.4,0.2-0.7,0.4-1c0.2-0.3,0.6-0.5,0.9-0.5
		c0.3,0,0.6,0.1,0.8,0.3l0.3,0.2c0.2,0.2,0.4,0.5,0.4,0.8C67.6,13.4,67.5,13.8,67.2,14L67.2,14z M67.1,15.4l1.6-1.7l6.1,5.5L73.1,21
		L67.1,15.4z M78.1,15.7c-0.4,0.5-1,0.9-1.6,1.2c-0.6,0.2-1.2,0.3-1.8,0.3l-0.1-1.9c0.4,0,0.8-0.1,1.2-0.2c0.4-0.2,0.7-0.4,1-0.7
		c0.2-0.2,0.4-0.5,0.5-0.8c0-0.2-0.1-0.4-0.2-0.6c-0.3-0.3-0.6-0.2-1.1,0.2l-0.7,0.6c-1.4,1.2-2.7,1.3-3.7,0.4
		c-0.3-0.2-0.5-0.5-0.7-0.9c-0.1-0.3-0.2-0.7-0.2-1c0-0.4,0.1-0.8,0.2-1.1c0.2-0.4,0.5-0.8,0.8-1.1c0.2-0.3,0.5-0.5,0.8-0.8
		c0.2-0.2,0.5-0.4,0.8-0.5c0.2-0.1,0.5-0.2,0.8-0.2c0.3-0.1,0.6-0.1,0.9-0.1l0.1,1.9c-0.3,0-0.7,0.1-1,0.3c-0.3,0.1-0.6,0.3-0.8,0.6
		c-0.2,0.2-0.4,0.5-0.4,0.8c0,0.2,0,0.4,0.2,0.5c0.1,0.1,0.3,0.2,0.5,0.2c0.2-0.1,0.5-0.2,0.6-0.3l0.7-0.6c1.4-1.2,2.6-1.3,3.6-0.4
		c0.3,0.3,0.5,0.6,0.7,0.9c0.1,0.4,0.2,0.7,0.2,1.1c0,0.4-0.1,0.8-0.3,1.2C78.8,15,78.5,15.3,78.1,15.7L78.1,15.7z M83.3,9.8
		c-0.4,0.5-1,0.9-1.7,0.9c-0.6,0-1.3-0.2-1.7-0.7l-3-2.7l-0.8,0.8L74.8,7l0.4-0.4c0.2-0.2,0.3-0.4,0.3-0.6c-0.1-0.2-0.2-0.4-0.4-0.6
		l-1-0.9l1.4-1.5l1.6,1.5l1.1-1.2l1.3,1.2l-1.1,1.2l3.4,3.1l1-1.1l1.3,1.2L83.3,9.8z"/>
	<path class="st1" d="M92.5,15.2c3.8-4.1,10.3-4.4,14.5-0.5c1.4,1.3,2.5,3,2.9,4.9l25.4,98.5c1.4,5.5-1.8,11-7.3,12.5
		c-1.7,0.4-3.4,0.4-5.1,0l-94.6-23.9c-5.5-1.4-8.8-6.9-7.4-12.4c0.4-1.7,1.3-3.2,2.4-4.5L92.5,15.2z"/>
</g>
</svg>
