<?xml version="1.0" encoding="utf-8"?>
<!-- Generator: Adobe Illustrator 25.4.1, SVG Export Plug-In . SVG Version: 6.00 Build 0)  -->
<svg version="1.1" id="Layer_1" xmlns="http://www.w3.org/2000/svg" xmlns:xlink="http://www.w3.org/1999/xlink" x="0px" y="0px"
	 viewBox="0 0 144 135" style="enable-background:new 0 0 144 135;" xml:space="preserve">
<style type="text/css">
	.st0{fill:#4978BC;fill-opacity:0.12;}
	.st1{fill:none;stroke:#4978BC;stroke-width:3.61;}
	.st2{fill:#FFFFFF;}
</style>
<g>
	<path class="st0" d="M87.9,8.9c3.8-4.1,10.3-4.4,14.4-0.6c1.4,1.3,2.5,3.1,3,5l25.4,98.5c1.4,5.5-1.9,11-7.4,12.5
		c-1.7,0.4-3.4,0.4-5,0l-94.6-23.9c-5.5-1.4-8.8-6.9-7.4-12.4c0.4-1.7,1.3-3.2,2.4-4.5L87.9,8.9z"/>
	<path class="st1" d="M87.9,8.9c3.8-4.1,10.3-4.4,14.4-0.6c1.4,1.3,2.5,3.1,3,5l25.4,98.5c1.4,5.5-1.9,11-7.4,12.5
		c-1.7,0.4-3.4,0.4-5,0l-94.6-23.9c-5.5-1.4-8.8-6.9-7.4-12.4c0.4-1.7,1.3-3.2,2.4-4.5L87.9,8.9z"/>
</g>
<path class="st2" d="M19.5,57.5l1.5-1.7l1,0.9l0,0c-0.3-0.4-0.4-0.9-0.3-1.3c0.1-0.5,0.3-1,0.6-1.3c0.6-0.7,1.5-1.1,2.4-1
	c1.1,0.2,2.1,0.7,2.9,1.5c0.9,0.7,1.6,1.6,1.9,2.7c0.2,0.9-0.1,1.8-0.8,2.5c-0.2,0.2-0.4,0.4-0.6,0.5c-0.2,0.1-0.4,0.2-0.7,0.3
	c-0.2,0-0.5,0-0.7,0c-0.2,0-0.5-0.1-0.7-0.2l-0.1,0.1l3.3,3l-1.5,1.7L19.5,57.5z M27,59c0.3-0.3,0.4-0.7,0.4-1.1
	c0-0.5-0.3-0.9-0.6-1.2l-1.1-0.9c-0.3-0.3-0.8-0.5-1.2-0.5c-0.4,0-0.8,0.2-1.1,0.5c-0.3,0.3-0.4,0.6-0.5,1c0,0.3,0.1,0.7,0.4,0.9
	l1.7,1.6c0.2,0.3,0.6,0.4,0.9,0.3C26.4,59.5,26.7,59.3,27,59z M33.6,54.2c-0.6,0.9-1.8,1.2-2.8,0.6c0,0,0,0,0,0
	c-0.2-0.1-0.3-0.2-0.4-0.4l-6.9-6.2l1.5-1.7l7.2,6.5l0.7-0.8l1.3,1.2L33.6,54.2z M39.3,47.9c-0.3,0.3-0.6,0.5-1,0.5
	c-0.4,0-0.8-0.1-1.1-0.3l-0.1,0.1c0.3,0.4,0.4,0.9,0.3,1.4c-0.1,0.5-0.4,1-0.8,1.4c-0.4,0.6-1.1,0.9-1.8,1c-0.6,0-1.3-0.2-1.7-0.7
	c-0.6-0.5-0.9-1.2-0.8-2c0.1-0.9,0.6-1.7,1.2-2.4l0.9-1l-0.4-0.3c-0.4-0.5-1.2-0.5-1.7-0.1c-0.1,0.1-0.1,0.2-0.2,0.2
	c-0.3,0.3-0.5,0.6-0.5,1c-0.1,0.3-0.1,0.6,0,1l-1.8,0.2c-0.1-0.6-0.1-1.1,0-1.7c0.2-0.7,0.6-1.3,1.1-1.8c0.6-0.8,1.4-1.3,2.3-1.5
	c0.8-0.1,1.7,0.2,2.2,0.8l2.7,2.4l0.5-0.6l1.3,1.2L39.3,47.9z M36.1,49.3c0.2-0.2,0.4-0.6,0.5-0.9c0.1-0.3-0.1-0.7-0.3-0.9l-0.7-0.7
	l-0.8,0.8c-0.6,0.7-0.7,1.2-0.2,1.6l0.2,0.2c0.2,0.2,0.4,0.3,0.7,0.2C35.7,49.7,35.9,49.6,36.1,49.3z M43.1,43.8
	c-0.4,0.5-1,0.9-1.7,1c-0.7,0-1.3-0.3-1.8-0.8l-3-2.7l-0.8,0.9L34.5,41l0.4-0.4c0.2-0.2,0.3-0.4,0.3-0.6c-0.1-0.2-0.2-0.4-0.4-0.6
	l-1-0.9l1.4-1.6l1.7,1.5l1.1-1.2l1.3,1.2l-1.1,1.2l3.4,3.1l1-1.1l1.3,1.2L43.1,43.8z M40.7,36.8l-0.8,0.8l-1.3-1.2l0.8-0.9L38.6,35
	c-0.5-0.4-0.8-1-0.9-1.7c0-0.7,0.3-1.3,0.8-1.8l1-1.1l1.3,1.2l-1.1,1.2l1.2,1l1.1-1.2l1.3,1.2l-1.1,1.2l4.8,4.3l-1.5,1.7L40.7,36.8z
	 M51.3,34.9c-0.4,0.4-0.8,0.8-1.3,1c-0.5,0.2-0.9,0.3-1.5,0.3c-0.5,0-1-0.1-1.5-0.3c-0.5-0.3-1.1-0.6-1.5-1
	c-0.5-0.4-0.8-0.9-1.1-1.4c-0.3-0.4-0.4-0.9-0.5-1.5c-0.1-0.5,0-1,0.1-1.5c0.4-1,1.2-1.9,2.2-2.4c0.5-0.2,0.9-0.3,1.5-0.3
	c0.5,0,1,0.1,1.5,0.3c0.6,0.3,1.1,0.6,1.5,1c0.4,0.4,0.8,0.9,1.1,1.4c0.3,0.5,0.4,1,0.5,1.5c0.1,0.5,0,1-0.2,1.5
	C51.9,34.1,51.6,34.6,51.3,34.9L51.3,34.9z M49.9,33.7c0.3-0.3,0.4-0.7,0.4-1.1c-0.1-0.4-0.3-0.8-0.6-1.1l-1.2-1.1
	c-0.3-0.3-0.7-0.5-1.2-0.5c-0.4,0-0.8,0.2-1,0.5c-0.3,0.3-0.4,0.7-0.4,1.1c0.1,0.4,0.3,0.8,0.6,1.1l1.2,1.1c0.3,0.3,0.7,0.5,1.2,0.5
	C49.3,34.2,49.7,34,49.9,33.7L49.9,33.7z M54.8,30.7l-6.1-5.5l1.5-1.7l1.3,1.2v-0.1c-0.1-0.2-0.3-0.4-0.3-0.6
	c-0.1-0.2-0.1-0.5-0.2-0.7c0-0.2,0-0.5,0.1-0.7c0.1-0.3,0.3-0.5,0.5-0.7l0.3-0.3l1.6,1.4l-0.4,0.4c-0.4,0.4-0.7,0.8-0.8,1.3
	c-0.1,0.4,0.1,0.8,0.4,1l3.5,3.3L54.8,30.7z M59,26l-6.1-5.5l1.5-1.7l1,0.9l0.1-0.1c-0.2-0.4-0.3-0.8-0.3-1.3c0-0.5,0.3-1,0.6-1.3
	c0.3-0.4,0.8-0.7,1.3-0.8c0.5-0.1,1,0,1.5,0.2l0,0c-0.1-0.2-0.2-0.4-0.2-0.7c-0.1-0.5,0-1.1,0.2-1.6c0.1-0.3,0.3-0.5,0.5-0.8
	c0.4-0.5,1.1-0.8,1.8-0.8c0.8,0.1,1.6,0.5,2.2,1.1l3.8,3.4L65.4,19l-3.7-3.3c-0.8-0.7-1.4-0.8-1.9-0.2c-0.2,0.2-0.4,0.6-0.4,0.9
	c0,0.4,0.1,0.7,0.4,0.9l3.9,3.6l-1.6,1.7l-3.7-3.3c-0.8-0.7-1.4-0.8-1.9-0.2c-0.1,0.1-0.2,0.3-0.3,0.4c-0.1,0.2-0.1,0.3-0.1,0.5
	c0,0.2,0,0.3,0.1,0.5c0.1,0.2,0.2,0.3,0.3,0.4l3.9,3.6L59,26z"/>
</svg>
