<svg width="100" height="100" viewBox="0 0 100 100" fill="none" xmlns="http://www.w3.org/2000/svg">
<path d="M49.9997 98.1481C76.5912 98.1481 98.1479 76.5915 98.1479 50C98.1479 23.4085 76.5912 1.85185 49.9997 1.85185C23.4082 1.85185 1.85156 23.4085 1.85156 50C1.85156 76.5915 23.4082 98.1481 49.9997 98.1481Z" fill="#181818" stroke="#DADADA" stroke-width="2"/>
<path d="M50.093 96.4815C75.7129 96.4815 96.4819 75.7125 96.4819 50.0926C96.4819 24.4727 75.7129 3.7037 50.093 3.7037C24.4731 3.7037 3.7041 24.4727 3.7041 50.0926C3.7041 75.7125 24.4731 96.4815 50.093 96.4815Z" fill="url(#paint0_linear)"/>
<path d="M17.7773 65.1852H82.407V70.3704H17.7773V65.1852Z" fill="#F3342F"/>
<path fill-rule="evenodd" clip-rule="evenodd" d="M21.7863 34.0741H25.49V36.6667H28.0826V34.0741H31.7863V36.892C35.3646 37.5187 37.2039 39.4044 37.2039 41.9594C37.2039 44.3504 35.3392 46.0159 32.684 46.4961V46.7005C35.6107 46.813 38.1479 48.7133 38.1479 51.7378C38.1479 54.66 35.8574 56.9033 31.7863 57.4594V60H28.0826V57.5926H25.49V60H21.7863V57.5926H18.8887V36.6667H21.7863V34.0741ZM24.7302 53.5157V48.5294H28.4476C30.6779 48.5294 32.0468 49.5513 32.0468 51.1554C32.0468 52.637 30.8666 53.5157 28.3413 53.5157H24.7302ZM24.7302 45.27V40.6822H28.0581C30.0052 40.6822 31.2444 41.5507 31.2444 42.9404C31.2444 44.4117 29.8753 45.27 27.9637 45.27H24.7302Z" fill="white"/>
<path d="M40.3701 58.1482H57.4001V53.7037H40.3701V58.1482ZM41.1109 40.3704H56.662V36.1111H41.1109V40.3704ZM42.5923 48.7037H55.1849V45H42.5923V48.7037Z" fill="white"/>
<path d="M70.0711 58.1482C77.4567 58.1482 82.0373 54.0054 82.0373 47.1189C82.0373 40.243 77.4567 36.1111 70.0593 36.1111H61.1113V58.1482H70.0711ZM66.97 53.6074V40.652H69.7634C73.9297 40.652 76.1667 42.3735 76.1667 47.1189C76.1667 51.8857 73.9297 53.6074 69.8463 53.6074H66.97Z" fill="white"/>
<defs>
<linearGradient id="paint0_linear" x1="19.9078" y1="13.2407" x2="85.7411" y2="83.9815" gradientUnits="userSpaceOnUse">
<stop/>
<stop offset="1" stop-color="#181818"/>
</linearGradient>
</defs>
</svg>
