<?xml version="1.0" encoding="UTF-8" standalone="no"?>
<!DOCTYPE svg PUBLIC "-//W3C//DTD SVG 1.1//EN" "http://www.w3.org/Graphics/SVG/1.1/DTD/svg11.dtd">
<svg width="100%" height="100%" viewBox="0 0 2463 2463" version="1.1" xmlns="http://www.w3.org/2000/svg" xmlns:xlink="http://www.w3.org/1999/xlink" xml:space="preserve" xmlns:serif="http://www.serif.com/" style="fill-rule:evenodd;clip-rule:evenodd;stroke-linejoin:round;stroke-miterlimit:2;">
    <g transform="matrix(1,0,0,1,-13921.4,-23430.9)">
        <g transform="matrix(2.1992,0,0,2.1992,16915.4,28002.1)">
            <g transform="matrix(1,0,0,1,47.9877,-30.1804)">
                <circle cx="-849.6" cy="-1488.57" r="559.809" style="fill:rgb(255,149,0);"/>
            </g>
            <g transform="matrix(1.06237,0,0,1.06237,50.3423,104.127)">
                <g transform="matrix(1.94441,0.484795,-0.484795,1.94441,646.002,2798.41)">
                    <g transform="matrix(436.893,0,0,436.893,-1455.69,-1775.79)">
                        <path d="M0.501,0L0.043,0L0.043,-0.172L0.13,-0.256C0.149,-0.273 0.167,-0.291 0.184,-0.308C0.184,-0.308 0.198,-0.322 0.226,-0.35C0.237,-0.361 0.248,-0.374 0.257,-0.388C0.266,-0.402 0.272,-0.413 0.274,-0.42C0.275,-0.427 0.276,-0.434 0.276,-0.441C0.276,-0.458 0.271,-0.469 0.261,-0.474C0.251,-0.479 0.233,-0.481 0.208,-0.481C0.16,-0.481 0.116,-0.477 0.076,-0.47L0.055,-0.466L0.045,-0.637C0.114,-0.662 0.187,-0.674 0.263,-0.674C0.338,-0.674 0.397,-0.657 0.441,-0.623C0.484,-0.588 0.505,-0.541 0.505,-0.48C0.505,-0.419 0.495,-0.371 0.475,-0.336C0.455,-0.301 0.418,-0.265 0.363,-0.227L0.296,-0.18L0.501,-0.18L0.501,0Z" style="fill:white;fill-rule:nonzero;"/>
                    </g>
                    <g transform="matrix(436.893,0,0,436.893,-1215.4,-1775.79)">
                        <path d="M0.467,-0.659L0.467,0L0.24,0L0.24,-0.416L0.102,-0.361L0.042,-0.523L0.276,-0.659L0.467,-0.659Z" style="fill:white;fill-rule:nonzero;"/>
                    </g>
                </g>
                <g transform="matrix(6.29099,0,0,6.29099,-2825.13,-3726.3)">
                    <g transform="matrix(1.09648,0,0,1.09648,-214.908,-2227.54)">
                        <circle cx="489.8" cy="2350.3" r="22.156" style="fill:white;"/>
                    </g>
                    <g transform="matrix(1,0,0,1,289.607,317.505)">
                        <g>
                            <g>
                                <path d="M63.033,39.745C58.759,56.888 41.396,67.321 24.251,63.046C7.113,58.772 -3.32,41.408 0.956,24.266C5.228,7.121 22.591,-3.313 39.731,0.961C56.874,5.235 67.306,22.601 63.033,39.745ZM46.103,27.445C46.74,23.187 43.498,20.898 39.065,19.371L40.503,13.603L36.992,12.728L35.592,18.344C34.669,18.114 33.721,17.897 32.779,17.682L34.189,12.029L30.68,11.154L29.241,16.92C28.477,16.746 27.727,16.574 26.999,16.393L27.003,16.375L22.161,15.166L21.227,18.916C21.227,18.916 23.832,19.513 23.777,19.55C25.199,19.905 25.456,20.846 25.413,21.592L23.775,28.163C23.873,28.188 24,28.224 24.14,28.28C24.023,28.251 23.898,28.219 23.769,28.188L21.473,37.393C21.299,37.825 20.858,38.473 19.864,38.227C19.899,38.278 17.312,37.59 17.312,37.59L15.569,41.609L20.138,42.748C20.988,42.961 21.821,43.184 22.641,43.394L21.188,49.228L24.695,50.103L26.134,44.331C27.092,44.591 28.022,44.831 28.932,45.057L27.498,50.802L31.009,51.677L32.462,45.854C38.449,46.987 42.951,46.53 44.846,41.115C46.373,36.755 44.77,34.24 41.62,32.6C43.914,32.071 45.641,30.562 46.103,27.445ZM38.081,38.694C36.996,43.054 29.655,40.697 27.275,40.106L29.203,32.377C31.583,32.971 39.215,34.147 38.081,38.694ZM39.167,27.382C38.177,31.348 32.067,29.333 30.085,28.839L31.833,21.829C33.815,22.323 40.198,23.245 39.167,27.382Z" style="fill:rgb(255,149,0);fill-rule:nonzero;"/>
                            </g>
                        </g>
                    </g>
                </g>
            </g>
        </g>
    </g>
</svg>
