<svg width="76" height="76" viewBox="0 0 76 76" fill="none" xmlns="http://www.w3.org/2000/svg">
<path d="M32.5714 52.6954L19 39.1213L22.8353 35.286L32.5714 45.0194L53.1593 24.4288L57 28.2695L32.5714 52.6954Z" fill="#09AA74"/>
<path d="M38 0C30.4843 0 23.1374 2.22866 16.8883 6.40415C10.6393 10.5796 5.76872 16.5144 2.89259 23.458C0.0164648 30.4016 -0.736062 38.0421 0.730176 45.4134C2.19641 52.7847 5.81556 59.5556 11.13 64.87C16.4444 70.1844 23.2153 73.8036 30.5866 75.2698C37.9579 76.7361 45.5984 75.9835 52.542 73.1074C59.4856 70.2313 65.4204 65.3607 69.5958 59.1117C73.7713 52.8626 76 45.5157 76 38C76 27.9218 71.9964 18.2563 64.8701 11.1299C57.7437 4.00356 48.0782 0 38 0ZM38 70.5714C31.558 70.5714 25.2606 68.6611 19.9043 65.0821C14.548 61.5031 10.3732 56.4162 7.90794 50.4645C5.44269 44.5129 4.79766 37.9639 6.05444 31.6456C7.31121 25.3274 10.4133 19.5237 14.9685 14.9685C19.5237 10.4133 25.3274 7.3112 31.6456 6.05442C37.9639 4.79765 44.5129 5.44267 50.4646 7.90792C56.4162 10.3732 61.5032 14.5479 65.0822 19.9043C68.6611 25.2606 70.5714 31.558 70.5714 38C70.5714 46.6385 67.1398 54.9231 61.0315 61.0315C54.9232 67.1398 46.6385 70.5714 38 70.5714Z" fill="#09AA74"/>
</svg>
