<svg width="64" height="64" viewBox="0 0 64 64" fill="none" xmlns="http://www.w3.org/2000/svg">
<g clip-path="url(#clip0)">
<path d="M32.0258 64.0251C49.6851 64.0251 64.0008 49.7094 64.0008 32.0501C64.0008 14.3908 49.6851 0.0750732 32.0258 0.0750732C14.3665 0.0750732 0.0507812 14.3908 0.0507812 32.0501C0.0507812 49.7094 14.3665 64.0251 32.0258 64.0251Z" fill="#EDF0F2"/>
<path d="M52.3254 56.725C47.4504 60.75 41.4754 63.225 35.1754 63.825C26.7504 64.65 18.3254 62.1 11.7504 56.725C5.20041 51.35 1.05041 43.6 0.200409 35.15C-0.424592 28.85 0.825409 22.525 3.80041 16.95C6.77541 11.375 11.3504 6.80002 16.9254 3.82502C22.5004 0.850018 28.8254 -0.424982 35.1254 0.200018C41.4254 0.825018 47.3754 3.27502 52.2754 7.30002L45.8254 15.175C42.5004 12.45 38.4254 10.75 34.1254 10.35C29.8254 9.92502 25.5254 10.8 21.7254 12.825C17.9254 14.85 14.8254 17.975 12.7754 21.775C10.7504 25.575 9.90041 29.9 10.3254 34.175C10.9004 39.925 13.7254 45.225 18.2004 48.875C22.6754 52.55 28.4254 54.275 34.1754 53.7C38.4754 53.275 42.5254 51.575 45.8504 48.85L52.3254 56.725Z" fill="url(#paint0_linear)"/>
<path d="M32.125 58.225C46.55 58.225 58.225 46.525 58.225 32.125C58.225 17.7 46.55 6 32.125 6C17.7 6 6 17.7 6 32.125C6 46.55 17.7 58.225 32.125 58.225Z" fill="white"/>
<path d="M32.3 36.975L40.575 32.175L30.75 27.125L32.3 36.975Z" fill="#AAB8C1"/>
<path d="M24.0508 32.2L32.3258 37V28.15L24.0508 32.2Z" fill="#AAB8C1"/>
<path d="M32.3004 18.725L24.0254 32.2L34.8504 27.375L32.3004 18.725Z" fill="#283947"/>
<path d="M32.3008 18.725V28.5L40.5758 32.2L32.3008 18.725Z" fill="#657786"/>
<path d="M32.3008 45.175L33.3758 39.125L24.0508 33.725L32.3008 45.175Z" fill="#283947"/>
<path d="M32.3008 38.525V45.175L40.5758 33.725L32.3008 38.525Z" fill="#657786"/>
</g>
<defs>
<linearGradient id="paint0_linear" x1="23.0239" y1="3.58639" x2="33.0474" y2="59.1596" gradientUnits="userSpaceOnUse">
<stop stop-color="#27D3A2"/>
<stop offset="1" stop-color="#9388FD"/>
</linearGradient>
<clipPath id="clip0">
<rect width="64" height="64" fill="white"/>
</clipPath>
</defs>
</svg>
