<svg width="64" height="64" viewBox="0 0 64 64" fill="none" xmlns="http://www.w3.org/2000/svg">
<g clip-path="url(#clip0)">
<path d="M34.5771 33.5104L45.7984 44.7317C46.013 44.9474 46.1791 45.2064 46.2857 45.4913C46.3924 45.7763 46.4371 46.0807 46.4169 46.3842C46.3967 46.6878 46.3121 46.9836 46.1687 47.2519C46.0252 47.5202 45.8263 47.7549 45.5851 47.9403C42.5904 50.2923 38.994 51.7536 35.2074 52.1566C31.4209 52.5596 27.5974 51.8882 24.1748 50.2192C20.7521 48.5502 17.8687 45.9511 15.8546 42.7194C13.8405 39.4878 12.7771 35.7543 12.7863 31.9464C12.7955 28.1385 13.8768 24.4101 15.9065 21.1882C17.9362 17.9664 20.8322 15.3812 24.2628 13.7287C27.6935 12.0762 31.5202 11.4233 35.3047 11.8446C39.0892 12.2659 42.6786 13.7444 45.6619 16.1109C45.8917 16.2996 46.0792 16.5347 46.2121 16.8007C46.345 17.0667 46.4204 17.3578 46.4332 17.6548C46.4461 17.9519 46.3962 18.2484 46.2869 18.5249C46.1775 18.8015 46.011 19.0518 45.7984 19.2597L34.5685 30.4896C34.3711 30.6876 34.2146 30.9224 34.1077 31.1808C33.9991 31.4521 33.944 31.7419 33.9456 32.0341C33.9423 32.3274 34.0004 32.6181 34.1163 32.8875C34.2211 33.1469 34.3779 33.3822 34.5771 33.5787V33.5104ZM32 0C25.671 0 19.4841 1.87677 14.2218 5.39297C8.95939 8.90918 4.85787 13.9069 2.43587 19.7541C0.0138652 25.6014 -0.619842 32.0355 0.614885 38.2429C1.84961 44.4503 4.89732 50.1521 9.3726 54.6274C13.8479 59.1027 19.5497 62.1504 25.7571 63.3851C31.9645 64.6199 38.3986 63.9862 44.2459 61.5641C50.0931 59.1421 55.0908 55.0406 58.607 49.7783C62.1232 44.5159 64 38.329 64 32C64 23.5131 60.6286 15.3737 54.6274 9.37258C48.6263 3.37142 40.4869 0 32 0V0Z" fill="#69E2DC"/>
</g>
<defs>
<clipPath id="clip0">
<rect width="64" height="64" fill="white"/>
</clipPath>
</defs>
</svg>
