<svg width="190" height="28" viewBox="0 0 190 28" fill="none" xmlns="http://www.w3.org/2000/svg">
<g clip-path="url(#clip0)">
<path fill-rule="evenodd" clip-rule="evenodd" d="M19.3331 7.51644C21.6372 9.80067 22.6971 12.359 22.6971 15.6483C22.6971 22.0442 18.0121 26.4908 11.2995 26.4908H4.72519L0.900391 22.699V1.0749H7.59764C11.192 1.0749 14.2181 2.35408 16.2764 4.50125L19.3331 7.51644ZM4.52551 4.48602H4.47941V5.24743L7.75123 8.46059V7.68395L4.52551 4.48602ZM8.30422 7.57735L5.18601 4.48602H4.74056L7.85877 7.57735H8.30422ZM9.39483 7.57735L6.27661 4.48602H5.40106L8.51927 7.57735H9.39483ZM7.64371 4.48602H6.49166L9.60987 7.57735H10.7619L7.64371 4.48602ZM11.8832 7.59258L8.82648 4.56216C8.50391 4.51648 8.1967 4.50125 7.85877 4.48602L10.977 7.57735H11.2995C11.4992 7.57735 11.6989 7.57735 11.8832 7.59258ZM12.8663 7.69918L9.88636 4.7449C9.62523 4.68399 9.34874 4.63831 9.07224 4.59262L12.1137 7.60781C12.3748 7.62304 12.6359 7.66872 12.8663 7.69918ZM13.7572 7.91237L10.8541 5.03424C10.639 4.9581 10.4086 4.88196 10.1782 4.82104L13.1428 7.76009C13.3579 7.80577 13.5576 7.85146 13.7572 7.91237ZM14.0952 8.01897C14.2949 8.11034 14.5099 8.20171 14.6942 8.29308L11.8679 5.49109C11.6682 5.38449 11.4531 5.27789 11.2381 5.18652L14.0952 8.01897ZM4.47941 11.2626L5.0324 11.8108L4.90952 11.9326L4.47941 11.5062V19.4858H7.75123V8.67378L4.47941 5.49109V6.23727L7.58227 9.29814L7.45939 9.40474L4.47941 6.46569V7.2271L7.06001 9.80067L6.95248 9.9225L4.47941 7.45553V8.23216L6.5531 10.3032L6.44558 10.425L4.47941 8.46059V9.23723L6.04621 10.8057L5.93869 10.9276L4.47941 9.46565V10.2575L5.53931 11.3083L5.41641 11.4301L4.47941 10.4859V11.2626ZM14.4485 7.83623C13.9262 7.02914 13.235 6.34387 12.4055 5.81088L14.4485 7.83623ZM19.0259 7.821L17.7817 6.55706C18.6112 8.09511 19.1488 9.99864 19.1488 11.9783C19.1488 12.1915 19.1488 12.4047 19.1335 12.6027L22.267 15.7244V15.6483C22.267 12.4656 21.2225 10.0596 19.0259 7.821ZM8.18134 19.4706C12.6513 19.2269 15.5391 16.3183 15.5391 11.9783C15.5391 10.8514 15.3394 9.8159 14.9707 8.90221C14.0337 8.26262 12.9585 8.00374 11.2995 8.00374H8.18134V19.4706ZM18.4883 15.892L21.7448 19.1203C22.052 18.1305 22.2363 17.0645 22.267 15.9376L19.1181 12.8159C19.0413 13.9123 18.8263 14.9326 18.4883 15.892ZM21.6833 19.2726L18.4269 16.0442C18.135 16.8057 17.7664 17.5214 17.3209 18.161L20.6388 21.4503C21.0689 20.7802 21.4222 20.0493 21.6833 19.2726ZM19.2871 23.0949C19.7633 22.6381 20.178 22.1203 20.5466 21.5721L17.2441 18.298C16.8601 18.831 16.43 19.3335 15.9384 19.7751L19.2871 23.0949ZM14.4792 20.9173L17.8432 24.2522C18.3194 23.9325 18.7648 23.5822 19.1795 23.2015L15.8309 19.8817C15.4162 20.2625 14.9707 20.6127 14.4792 20.9173ZM13.0046 21.7244L16.3686 25.0593C16.8294 24.8461 17.2748 24.6025 17.7049 24.3436L14.3409 21.0086C13.9262 21.2827 13.4807 21.5112 13.0046 21.7244ZM11.5607 22.2573L14.9093 25.5771C15.3548 25.4553 15.8002 25.2878 16.2149 25.1203L12.851 21.7853C12.4362 21.968 12.0061 22.1355 11.5607 22.2573ZM10.1629 22.5924L13.4961 25.8969C13.9262 25.8208 14.3409 25.7294 14.7403 25.6228L11.4071 22.3183C11.0077 22.4249 10.593 22.5162 10.1629 22.5924ZM9.96317 22.6228C9.59451 22.699 9.21049 22.7446 8.82648 22.7751L12.129 26.0339C12.5284 26.0187 12.9124 25.973 13.2964 25.9273L9.96317 22.6228ZM10.8541 26.0644H11.2995C11.5146 26.0644 11.7143 26.0644 11.914 26.0492L8.62679 22.7903C8.28886 22.8056 7.95093 22.8208 7.59764 22.8208H7.58227L10.8541 26.0644ZM1.6377 22.8208L4.90952 26.0644H5.12457L1.86812 22.8208H1.6377ZM2.08317 22.8208L5.35497 26.0644H5.63147L2.35965 22.8208H2.08317ZM2.5747 22.8208L5.84652 26.0644H6.19982L2.928 22.8208H2.5747ZM3.14305 22.8208L6.41486 26.0644H6.86032L3.58851 22.8208H3.14305ZM3.80356 22.8208L7.07536 26.0644H7.61299L4.34118 22.8208H3.80356ZM4.55622 22.8208L7.82804 26.0644H8.47318L5.20138 22.8208H4.55622ZM5.43178 22.8208L8.7036 26.0644H9.48699L6.21517 22.8208H5.43178ZM6.43022 22.8208L9.70204 26.0644H10.639L7.35186 22.8208H6.43022ZM39.6092 19.5163L43.434 23.3081V26.4908H28.6571L24.8323 22.699V1.0749H39.1638L42.9885 4.86673V7.86669H32.0979L32.0825 10.0443H37.4126L41.2374 13.8361V16.897H32.0825V19.5163H39.6092ZM42.5585 5.04947L39.2866 1.80586V4.34897L42.5585 7.4403V5.04947ZM31.975 7.4403L28.7185 4.34897H28.4881L31.7446 7.4403H31.975ZM32.5894 7.4403L29.3176 4.34897H28.9489L32.2054 7.4403H32.5894ZM33.3574 7.4403L30.0856 4.34897H29.548L32.8198 7.4403H33.3574ZM34.2791 7.4403L31.0226 4.34897H30.316L33.5878 7.4403H34.2791ZM35.5079 7.4403L32.2207 4.34897H31.253L34.5095 7.4403H35.5079ZM36.7368 7.4403L33.4496 4.34897H32.4665L35.7383 7.4403H36.7368ZM38.0117 7.4403L34.7399 4.34897H33.6954L36.9672 7.4403H38.0117ZM39.2406 7.4403L35.9995 4.34897H34.9703L38.2421 7.4403H39.2406ZM40.3158 7.4403L37.0593 4.34897H36.2145L39.4863 7.4403H40.3158ZM41.2374 7.4403L37.981 4.34897H37.2744L40.5616 7.4403H41.2374ZM41.8519 7.4403L38.6108 4.34897H38.196L41.4832 7.4403H41.8519ZM42.3127 7.4403L39.0716 4.34897H38.8258L42.0976 7.4403H42.3127ZM28.3806 8.79561L29.1333 9.51133L29.0104 9.61793L28.3806 9.02403V10.0443H31.6524V7.56212L28.3806 4.4708V5.11038L31.2223 7.80578L31.0841 7.89714L28.3806 5.3388V6.0393L30.7 8.23216L30.5618 8.33876L28.3806 6.2525V6.95299L30.1778 8.65855L30.0395 8.76515L28.3806 7.18142V7.88191L29.6555 9.08494L29.5326 9.19154L28.3806 8.09511V8.79561ZM37.5355 10.7753V13.3793H37.5202L40.8073 16.4706V14.0189L37.5355 10.7753ZM31.7599 16.4706H32.0364L28.7646 13.3793H28.4881L31.7599 16.4706ZM28.995 13.3793L32.2668 16.4706H32.8044L29.548 13.3793H28.995ZM29.7784 13.3793L33.0349 16.4706H33.8797L30.5925 13.3793H29.7784ZM30.8383 13.3793L34.1101 16.4706H35.2621L32.0057 13.3793H30.8383ZM36.7368 16.4706L33.4957 13.3793H32.2361L35.4926 16.4706H36.7368ZM38.2114 16.4706L34.9396 13.3793H33.7107L36.9825 16.4706H38.2114ZM39.2713 16.4706L36.0302 13.3793H35.17L38.4418 16.4706H39.2713ZM40.0393 16.4706L36.7829 13.3793H36.2452L39.517 16.4706H40.0393ZM36.9979 13.3793L40.2851 16.4706H40.5616L37.3051 13.3793H36.9979ZM28.3806 18.7853L28.78 19.166L28.6571 19.2878L28.3806 19.029V19.5163H31.6524V16.5772L28.3806 13.4859V14.1559L31.2223 16.8666L31.1148 16.9732L28.3806 14.3844V15.1001L30.7461 17.3386L30.6232 17.4452L28.3806 15.3133V16.0138L30.2546 17.7955L30.1317 17.9021L28.3806 16.2422V16.9427L29.763 18.2523L29.6402 18.3589L28.3806 17.1711V17.8716L29.2715 18.7092L29.1486 18.8158L28.3806 18.0848V18.7853ZM39.7321 20.2472V22.8208L43.0039 26.0644V23.4908L39.7321 20.2472ZM27.0596 22.8208H25.5696L28.8414 26.0644H30.3314L27.0596 22.8208ZM28.611 22.8208H27.2746L30.5464 26.0644H31.8982L28.611 22.8208ZM28.826 22.8208L32.1132 26.0644H33.3114L30.0242 22.8208H28.826ZM30.2392 22.8208L33.5264 26.0644H34.5863L31.3145 22.8208H30.2392ZM32.4665 22.8208H31.5295L34.8013 26.0644H35.7537L32.4665 22.8208ZM36.7982 26.0644L33.5264 22.8208H32.6816L35.9687 26.0644H36.7982ZM33.7414 22.8208L37.0133 26.0644H37.7506L34.4788 22.8208H33.7414ZM34.6938 22.8208L37.9656 26.0644H38.6261L35.339 22.8208H34.6938ZM35.554 22.8208L38.8412 26.0644H39.4095L36.1224 22.8208H35.554ZM36.3374 22.8208L39.6246 26.0644H40.1161L36.8289 22.8208H36.3374ZM37.044 22.8208L40.3312 26.0644H40.7613L37.4741 22.8208H37.044ZM37.6891 22.8208L40.9763 26.0644H41.345L38.0578 22.8208H37.6891ZM38.2728 22.8208L41.56 26.0644H41.8672L38.5954 22.8208H38.2728ZM38.8105 22.8208L42.0823 26.0644H42.3588L39.0716 22.8208H38.8105ZM39.2866 22.8208L42.5738 26.0644H42.7889L39.5017 22.8208H39.2866ZM63.9405 7.98851H52.6197V10.7753H58.211L62.0357 14.5671V17.6737H52.6197V26.4908H49.2096L45.3848 22.699V1.0749H60.1157L63.9405 4.86673V7.98851ZM60.2386 1.80586V4.4708L63.495 7.56212H63.5104V5.04947L60.2386 1.80586ZM52.2817 7.56212H52.5275L49.2557 4.4708H49.0407L52.2817 7.56212ZM53.1266 7.56212L49.8394 4.4708H49.5015L52.7426 7.56212H53.1266ZM53.91 7.56212L50.6228 4.4708H50.0852L53.3416 7.56212H53.91ZM54.9084 7.56212L51.6366 4.4708H50.8686L54.125 7.56212H54.9084ZM56.2909 7.56212L53.0191 4.4708H51.8824L55.1235 7.56212H56.2909ZM57.6119 7.56212L54.3401 4.4708H53.2495L56.5213 7.56212H57.6119ZM59.0558 7.56212L55.784 4.4708H54.5705L57.8423 7.56212H59.0558ZM60.4229 7.56212L57.1664 4.4708H55.999L59.2862 7.56212H60.4229ZM61.4367 7.56212L58.1649 4.4708H57.3968L60.6533 7.56212H61.4367ZM62.2201 7.56212L58.9483 4.4708H58.3953L61.6671 7.56212H62.2201ZM62.8038 7.56212L59.5473 4.4708H59.1787L62.4505 7.56212H62.8038ZM59.7777 4.4708L63.0342 7.56212H63.2646L60.0082 4.4708H59.7777ZM48.9178 10.7753H52.1896V7.68395L48.9178 4.57739V5.09515L51.8363 7.88191L51.7288 7.98851L48.9178 5.32358V6.02407L51.3601 8.35399L51.2372 8.47581L48.9178 6.2525V6.95299L50.8839 8.82606L50.7611 8.94789L48.9178 7.18142V7.88191L50.4078 9.29814L50.3002 9.40474L48.9178 8.09511V8.81084L49.9316 9.77021L49.8241 9.87681L48.9178 9.02403V9.72453L49.4554 10.2423L49.3479 10.3489L48.9178 9.93772V10.7753ZM58.3338 11.5062V14.1559L61.6057 17.2473V14.7498L58.3338 11.5062ZM49.0099 14.1559L52.2664 17.2473H52.5736L49.3018 14.1559H49.0099ZM49.5322 14.1559L52.7886 17.2473H53.3109L50.0545 14.1559H49.5322ZM50.2849 14.1559L53.526 17.2473H54.4937L51.2065 14.1559H50.2849ZM51.4369 14.1559L54.7087 17.2473H55.9069L52.6504 14.1559H51.4369ZM52.8808 14.1559L56.1219 17.2473H57.5044L54.2633 14.1559H52.8808ZM54.4783 14.1559L57.7348 17.2473H58.9483L55.6765 14.1559H54.4783ZM55.8915 14.1559L59.1787 17.2473H60.1003L56.8592 14.1559H55.8915ZM57.0743 14.1559L60.3307 17.2473H60.853L57.5965 14.1559H57.0743ZM57.8116 14.1559L61.0834 17.2473H61.3752L58.1188 14.1559H57.8116ZM48.9178 22.8208L52.1896 26.0644V17.3234L52.1589 17.3539L48.9178 14.293V14.7955L51.8517 17.5975L51.7441 17.7041L48.9178 15.0239V15.7244L51.3755 18.0696L51.2526 18.1914L48.9178 15.9529V16.6534L50.8993 18.5417L50.7764 18.6635L48.9178 16.8818V17.5823L50.4231 19.0137L50.3156 19.1203L48.9178 17.7955V18.5112L49.9469 19.4858L49.8394 19.5924L48.9178 18.7244V19.4401L49.4708 19.9579L49.3632 20.0645L48.9178 19.6381V22.8208ZM46.1221 22.8208L49.3939 26.0644H50.0237L46.7673 22.8208H46.1221ZM47.5353 22.8208H46.9823L50.2542 26.0644H50.8071L47.5353 22.8208ZM47.7504 22.8208L51.0375 26.0644H51.4369L48.1805 22.8208H47.7504ZM48.3955 22.8208L51.6673 26.0644H51.9592L48.7027 22.8208H48.3955ZM69.0709 1.0749L72.8957 4.86673V26.4908H69.4242L65.5994 22.699V1.0749H69.0709ZM69.1938 2.04951L72.4656 5.29312V5.04947L69.1938 1.80586V2.04951ZM69.1938 2.70432L72.4656 5.94793V5.52154L69.1938 2.27793V2.70432ZM69.1938 3.60279L72.4656 6.8464V6.16113L69.1938 2.91752V3.60279ZM69.1938 4.86673L72.4656 8.11034V7.07482L69.1938 3.83121V4.86673ZM69.1938 6.58752L72.4656 9.83113V8.32353L69.1938 5.07992V6.58752ZM69.1938 8.96312L72.4656 12.2067V10.0443L69.1938 6.80071V8.96312ZM69.1938 22.8208L72.4656 26.0644V12.4199L69.1938 9.17631V22.8208ZM67.0433 22.8208H66.3367L69.6086 26.0644H70.2998L67.0433 22.8208ZM71.0832 26.0644L67.8114 22.8208H67.2584L70.5302 26.0644H71.0832ZM68.0264 22.8208L71.3136 26.0644H71.713L68.4565 22.8208H68.0264ZM68.6716 22.8208L71.9434 26.0644H72.2352L68.9788 22.8208H68.6716ZM102.465 6.20681C103.955 7.66872 104.662 9.32859 104.662 11.3844C104.662 15.6483 101.374 18.7549 96.8123 18.7549H92.9107V26.4908H89.4545L85.6297 22.699V1.0749H93.3715C96.075 1.0749 98.2408 2.03428 99.4082 3.19163L102.465 6.20681ZM89.2088 9.75498L89.5313 10.0748L89.4084 10.1966L89.2088 9.99864V12.1154H92.327V7.42507L89.2088 4.33374V4.98855L91.8969 7.71441L91.7893 7.821L89.2088 5.23221V5.96316L91.4207 8.18648L91.3132 8.29308L89.2088 6.19158V6.90731L90.9599 8.65855L90.837 8.76515L89.2088 7.13573V7.85146L90.4837 9.13063L90.3608 9.23723L89.2088 8.07988V8.79561L90.0075 9.6027L89.8846 9.7093L89.2088 9.03926V9.75498ZM92.711 7.27279L89.7617 4.33374H89.4238L92.4038 7.28802L92.542 7.27279H92.711ZM93.4022 7.27279L90.4376 4.33374H89.9768L92.9414 7.27279H93.4022ZM94.2778 7.27279L91.3132 4.33374H90.6526L93.6173 7.27279H94.2778ZM95.2916 7.27279L92.327 4.33374H91.5282L94.4928 7.27279H95.2916ZM93.4329 4.33374H92.542L95.5066 7.27279H96.3975L93.4329 4.33374ZM97.2731 7.27279L94.4007 4.42511C94.1702 4.37943 93.9091 4.3642 93.6633 4.34897L96.6126 7.27279H97.2731ZM97.5956 6.92254L95.3223 4.66876C95.1226 4.59262 94.8922 4.53171 94.6771 4.48602L97.5189 7.30324C97.5803 7.30324 97.6417 7.30324 97.7032 7.31847C97.6725 7.18142 97.6417 7.05959 97.5956 6.92254ZM97.4574 6.57229C97.1195 5.81088 96.5204 5.21698 95.7216 4.83627L97.4574 6.57229ZM102.158 6.51138L100.806 5.15606C101.175 5.97839 101.42 6.99868 101.42 8.01897C101.42 8.20171 101.42 8.38445 101.405 8.55196L104.231 11.0951C104.17 9.28291 103.479 7.85146 102.158 6.51138ZM93.2793 12.1154C95.9367 12.1154 97.7953 10.4859 97.7953 8.17125C97.7953 8.0342 97.7953 7.89714 97.78 7.76009C97.5189 7.7144 97.2424 7.69918 96.9812 7.69918H92.7571V12.1154H93.2793ZM103.801 13.8818C104.078 13.1204 104.231 12.2829 104.231 11.3844V11.3083L101.39 8.73469C101.313 9.6027 101.098 10.4098 100.76 11.1408L103.801 13.8818ZM100.683 11.2778C100.407 11.8413 100.069 12.3438 99.654 12.8006L102.818 15.6483C103.187 15.161 103.509 14.6128 103.74 14.0341L100.683 11.2778ZM101.605 16.8209C102.02 16.5011 102.388 16.1508 102.726 15.7549L99.5465 12.9072C99.1932 13.2879 98.8091 13.6077 98.379 13.9123L101.605 16.8209ZM97.0734 14.628L100.345 17.5823C100.76 17.3843 101.129 17.1711 101.482 16.9122L98.2408 14.0037C97.8722 14.2321 97.4881 14.4453 97.0734 14.628ZM95.7831 15.0696L99.0856 18.0391C99.4697 17.9325 99.8537 17.7955 100.207 17.6432L96.9198 14.6889C96.5511 14.8412 96.1671 14.963 95.7831 15.0696ZM94.5389 15.2981L97.8568 18.2676C98.2254 18.2219 98.5787 18.161 98.9167 18.0848L95.6141 15.1001C95.2608 15.1915 94.9075 15.2524 94.5389 15.2981ZM96.6433 18.3285H96.8123C97.0887 18.3285 97.3652 18.3132 97.6264 18.298L94.3238 15.3285C94.0166 15.359 93.6941 15.3742 93.3715 15.3894L96.6433 18.3285ZM92.2962 15.3894L95.5681 18.3285H96.3975L93.1411 15.3894H92.2962ZM92.4806 26.0644V18.3285H92.4959L89.2241 15.3894H89.2088V16.1661L92.0505 18.7244L91.9276 18.831L89.2088 16.3793V17.1864L91.5128 19.2574L91.39 19.364L89.2088 17.3995V18.1914L90.9752 19.7904L90.8677 19.897L89.2088 18.4046V19.2117L90.4376 20.3234L90.3301 20.43L89.2088 19.4249V20.2015L89.9153 20.8411L89.8078 20.9629L89.2088 20.43V22.8208L92.4806 26.0644ZM89.4545 15.3894L92.711 18.3285H93.0489L89.7771 15.3894H89.4545ZM89.9921 15.3894L93.264 18.3285H93.6787L90.4069 15.3894H89.9921ZM90.6526 15.3894L93.9091 18.3285H94.4314L91.1749 15.3894H90.6526ZM91.3746 15.3894L94.6618 18.3285H95.3376L92.0812 15.3894H91.3746ZM86.367 22.8208L89.6388 26.0644H90.3147L87.0583 22.8208H86.367ZM87.8263 22.8208H87.2733L90.5451 26.0644H91.0981L87.8263 22.8208ZM88.0413 22.8208L91.3285 26.0644H91.7279L88.4714 22.8208H88.0413ZM88.6865 22.8208L91.9583 26.0644H92.2502L88.9937 22.8208H88.6865ZM124.984 1.05968L128.655 4.69922V16.7295C128.655 22.8208 124.999 26.8106 119.454 26.8106C116.52 26.8106 114.416 25.9883 112.511 24.1L109.362 21.0086C107.626 19.3183 106.689 16.7752 106.689 13.5164V1.05968H110.145L113.97 4.8515V17.0645C113.97 18.0087 114.078 18.9224 114.323 19.7447C114.83 19.8665 115.383 19.9427 115.967 19.9427C119.438 19.9427 121.528 17.5061 121.528 13.3945V1.05968H124.984ZM113.54 5.03424L110.268 1.79063V2.03428L113.54 5.27789V5.03424ZM125.107 2.04951L128.225 5.14084V4.88196L125.107 1.80586V2.04951ZM113.54 5.9327V5.50631L110.268 2.2627V2.68909L113.54 5.9327ZM125.107 2.70432L128.225 5.79565V5.36926L125.107 2.27793V2.70432ZM113.54 6.83117V6.1459L110.268 2.90229V3.58756L113.54 6.83117ZM125.107 3.60279L128.225 6.69412V6.00885L125.107 2.91752V3.60279ZM113.54 8.09511V7.05959L110.268 3.81598V4.8515L113.54 8.09511ZM125.107 4.86673L128.225 7.95806V6.92254L125.107 3.83121V4.86673ZM113.54 9.8159V8.30831L110.268 5.0647V6.57229L113.54 9.8159ZM125.107 6.58752L128.225 9.67885V8.17125L125.107 5.07992V6.58752ZM113.54 12.1915V10.0291L110.268 6.78548V8.94789L113.54 12.1915ZM128.225 9.89204L125.107 6.80071V8.96312L128.225 12.0544V9.89204ZM110.268 9.16108V13.3945C110.268 16.562 111.589 18.7701 113.847 19.5924C113.648 18.8005 113.54 17.9478 113.54 17.0645V12.4047L110.268 9.16108ZM127.703 20.4147C128.04 19.3031 128.225 18.0696 128.225 16.7295V12.2676L125.107 9.17631V13.5164C125.107 14.9326 124.938 16.2117 124.6 17.3386L127.703 20.4147ZM124.538 17.4909C124.308 18.2371 124.001 18.9224 123.617 19.5163L126.704 22.5771C127.088 21.968 127.411 21.298 127.641 20.567L124.538 17.4909ZM125.521 24.0695C125.936 23.6583 126.305 23.2167 126.627 22.7142L123.54 19.6533C123.217 20.1559 122.849 20.5975 122.434 21.0086L125.521 24.0695ZM121.144 21.9832L124.262 25.0746C124.676 24.8157 125.06 24.5111 125.414 24.1761L122.311 21.1C121.958 21.435 121.574 21.7244 121.144 21.9832ZM119.869 22.6228L123.002 25.7294C123.386 25.5619 123.77 25.3791 124.123 25.1507L121.005 22.0594C120.652 22.2726 120.268 22.4553 119.869 22.6228ZM111.144 22.2117L112.818 23.7954C113.141 24.1 113.463 24.3741 113.786 24.6177L111.543 22.3944L111.144 22.2117ZM112.357 22.699C112.204 22.6381 112.05 22.5924 111.896 22.5315L114.477 25.0898C114.707 25.2269 114.922 25.3639 115.153 25.4705L112.357 22.699ZM118.609 23.0035L121.758 26.1253C122.127 26.0339 122.48 25.9273 122.833 25.7903L119.7 22.6837C119.346 22.8056 118.978 22.9122 118.609 23.0035ZM112.664 22.7903L115.568 25.6685C115.767 25.7446 115.967 25.836 116.182 25.8969L113.202 22.9426C113.018 22.8969 112.849 22.8513 112.664 22.7903ZM113.509 23.0188L116.52 26.0035C116.735 26.0644 116.95 26.1253 117.18 26.171L114.124 23.1406C113.909 23.0949 113.709 23.0644 113.509 23.0188ZM117.411 23.2015L120.56 26.3233C120.913 26.2928 121.251 26.2319 121.574 26.1558L118.425 23.034C118.102 23.1101 117.764 23.171 117.411 23.2015ZM114.369 23.171L117.442 26.2167C117.687 26.2624 117.933 26.2928 118.179 26.3233L115.091 23.2624C114.846 23.2472 114.615 23.2167 114.369 23.171ZM116.336 23.2929L119.454 26.3842C119.761 26.3842 120.068 26.369 120.36 26.3385L117.227 23.232C116.935 23.2624 116.627 23.2776 116.336 23.2929ZM115.322 23.2776L118.409 26.3385C118.686 26.369 118.947 26.3842 119.239 26.3842L116.121 23.2929H115.906C115.706 23.2929 115.522 23.2929 115.322 23.2776ZM145.705 19.4401L149.53 23.232V26.4908H135.536L131.712 22.699V1.0749H135.168L138.993 4.86673V19.4401H145.705ZM138.562 5.04947L135.291 1.80586V2.03428L138.562 5.27789V5.04947ZM138.562 5.9327V5.50631L135.291 2.2627V2.68909L138.562 5.9327ZM138.562 6.83117V6.1459L135.291 2.90229V3.58756L138.562 6.83117ZM138.562 8.09511V7.05959L135.291 3.81598V4.8515L138.562 8.09511ZM138.562 9.8159V8.30831L135.291 5.0647V6.57229L138.562 9.8159ZM138.562 12.1915V10.0291L135.291 6.78548V8.94789L138.562 12.1915ZM135.291 19.4401H138.562V12.4047L135.291 9.16108V19.4401ZM149.1 26.0644V23.4147L145.828 20.1711V22.8208L149.1 26.0644ZM132.449 22.8208L135.721 26.0644H137.149L133.862 22.8208H132.449ZM134.077 22.8208L137.364 26.0644H138.655L135.367 22.8208H134.077ZM135.583 22.8208L138.87 26.0644H140.022L136.735 22.8208H135.583ZM136.95 22.8208L140.237 26.0644H141.251L137.979 22.8208H136.95ZM138.194 22.8208L141.481 26.0644H142.387L139.115 22.8208H138.194ZM139.331 22.8208L142.602 26.0644H143.416L140.129 22.8208H139.331ZM140.344 22.8208L143.632 26.0644H144.353L141.066 22.8208H140.344ZM141.281 22.8208L144.569 26.0644H145.198L141.911 22.8208H141.281ZM142.126 22.8208L145.413 26.0644H145.966L142.695 22.8208H142.126ZM142.91 22.8208L146.181 26.0644H146.673L143.386 22.8208H142.91ZM143.601 22.8208L146.888 26.0644H147.303L144.031 22.8208H143.601ZM144.246 22.8208L147.518 26.0644H147.886L144.599 22.8208H144.246ZM144.83 22.8208L148.101 26.0644H148.409L145.137 22.8208H144.83ZM145.352 22.8208L148.624 26.0644H148.885L145.613 22.8208H145.352ZM166.027 16.0899C167.21 17.2625 167.717 18.5569 167.717 20.3386C167.717 24.1609 164.676 26.8106 160.267 26.8106C157.072 26.8715 154.691 25.9426 153.201 24.8157L149.422 21.0695V17.4757L149.791 17.3234C151.45 18.8615 153.754 19.7295 156.15 19.7295C158.147 19.7295 159.76 19.0137 160.39 17.9325C157.994 16.7752 155.183 16.1356 153.601 14.1407L151.281 11.2169C150.175 9.8159 149.638 8.79561 149.638 7.12051C149.638 3.37436 152.648 0.800796 157.041 0.800796C159.269 0.755111 161.527 1.34901 163.155 2.39976L166.949 6.16113V9.57225L166.611 9.73976C164.875 8.47582 162.894 7.76009 161.05 7.76009C158.931 7.76009 157.349 8.59764 156.934 9.90727C159.084 10.6687 161.388 11.4301 162.848 12.9072L166.027 16.0899ZM163.247 3.10026V5.90225H163.232L166.519 9.16108V6.34387L163.247 3.10026ZM157.702 4.10532C157.579 4.09009 157.456 4.09009 157.349 4.09009C157.118 4.09009 156.888 4.10532 156.657 4.12055L159.975 7.40984C160.282 7.36416 160.62 7.3337 160.958 7.3337L157.702 4.10532ZM162.049 7.39461L158.869 4.24237C158.562 4.18146 158.239 4.13578 157.917 4.10532L161.173 7.3337C161.465 7.3337 161.757 7.36416 162.049 7.39461ZM159.791 7.4403L156.458 4.13578C156.058 4.19669 155.69 4.27283 155.336 4.37943L158.7 7.71441C159.038 7.59258 159.407 7.50121 159.791 7.4403ZM163.078 7.59258L160.006 4.54694C159.729 4.45557 159.438 4.3642 159.146 4.30329L162.31 7.4403C162.556 7.47075 162.817 7.53167 163.078 7.59258ZM158.547 7.77532L155.183 4.44034C154.737 4.59262 154.369 4.80582 154.061 5.0647L157.456 8.43013C157.763 8.17125 158.132 7.95806 158.547 7.77532ZM164.061 7.89714L161.158 5.01901C160.897 4.89719 160.62 4.77536 160.344 4.66876L163.37 7.66872C163.6 7.72963 163.831 7.80578 164.061 7.89714ZM156.519 9.75498C156.673 9.28291 156.949 8.87175 157.333 8.5215L153.939 5.15606C153.508 5.552 153.232 6.0393 153.155 6.57229L156.273 9.66362L156.519 9.75498ZM164.983 8.27785L162.402 5.71951C162.141 5.552 161.88 5.38449 161.603 5.24743L164.414 8.0342C164.599 8.11034 164.798 8.18648 164.983 8.27785ZM162.955 6.05453L165.428 8.50627C165.582 8.58241 165.751 8.67378 165.92 8.78038L163.093 5.97839L162.955 6.05453ZM153.14 6.89208C153.14 8.17125 154.323 8.88698 155.92 9.52656L153.14 6.77026V6.89208ZM154.276 14.2473C154.829 14.8412 155.597 15.3133 156.473 15.7397L152.94 12.2372C152.756 12.1306 152.571 12.024 152.402 11.9174C152.955 12.6788 153.57 13.4859 154.276 14.2473ZM154.476 12.9681C154.107 12.8159 153.739 12.6483 153.401 12.4808L156.888 15.9376C157.226 16.0899 157.579 16.2422 157.948 16.3945L154.476 12.9681ZM154.829 13.1052L158.316 16.5468C158.593 16.6686 158.869 16.7752 159.146 16.897L155.628 13.4098C155.367 13.3184 155.106 13.2118 154.829 13.1052ZM155.966 13.5316L159.53 17.0645C159.76 17.1559 159.991 17.2625 160.221 17.3691L156.581 13.7448C156.381 13.6839 156.166 13.6077 155.966 13.5316ZM160.59 17.5061C160.605 17.43 160.636 17.3539 160.651 17.2777L157.41 14.0493C157.256 13.9884 157.087 13.9275 156.934 13.8818L160.59 17.5061ZM157.779 14.1864L160.682 17.0645C160.697 17.0036 160.697 16.9275 160.697 16.8666V16.8513L158.178 14.3539L157.779 14.1864ZM160.682 16.6229L160.636 16.3945L158.915 14.6889C158.808 14.628 158.685 14.5823 158.562 14.5214L160.682 16.6229ZM165.72 16.3945L163.984 14.6737C164.199 15.2524 164.322 15.9072 164.322 16.6686C164.322 17.0493 164.292 17.4148 164.23 17.7803L167.272 20.7954C167.287 20.6432 167.287 20.4909 167.287 20.3386C167.287 18.6483 166.826 17.4909 165.72 16.3945ZM160.513 16.0442C160.298 15.6331 159.914 15.2828 159.422 14.9783L160.513 16.0442ZM167.256 20.9934L164.199 17.963C164.046 18.6635 163.785 19.3183 163.416 19.897L166.642 23.0949C166.964 22.4553 167.179 21.7548 167.256 20.9934ZM165.551 24.5111C165.951 24.1304 166.288 23.704 166.55 23.232L163.324 20.034C163.032 20.4909 162.679 20.8868 162.264 21.2523L165.551 24.5111ZM160.989 22.1051L164.322 25.4248C164.737 25.1812 165.106 24.9223 165.444 24.6177L162.141 21.3437C161.788 21.633 161.404 21.8919 160.989 22.1051ZM151.02 22.0442L153.478 24.4807C153.708 24.6482 153.939 24.8157 154.2 24.968L151.419 22.2269L151.02 22.0442ZM159.699 22.6533L163.047 25.973C163.447 25.836 163.831 25.6837 164.184 25.4857L160.851 22.1812C160.497 22.3639 160.113 22.5315 159.699 22.6533ZM151.803 22.3792L154.691 25.2421C154.86 25.3182 155.029 25.4096 155.213 25.4857L152.233 22.5315L151.803 22.3792ZM152.556 22.6228L155.582 25.638C155.766 25.6989 155.966 25.7751 156.166 25.836L153.063 22.7599L152.556 22.6228ZM158.455 22.9578L161.788 26.2624C162.172 26.2015 162.54 26.1253 162.878 26.0187L159.545 22.7142C159.192 22.8056 158.839 22.8969 158.455 22.9578ZM153.355 22.836L156.473 25.9273C156.688 25.9883 156.903 26.0492 157.134 26.0949L153.954 22.9426C153.754 22.9122 153.555 22.8665 153.355 22.836ZM154.215 22.9883L157.395 26.1405C157.64 26.1862 157.871 26.2319 158.117 26.2624L154.906 23.0644C154.66 23.0492 154.445 23.0188 154.215 22.9883ZM161.588 26.2928L158.27 22.9883C157.948 23.0492 157.61 23.0797 157.272 23.1101L160.574 26.3842C160.928 26.369 161.266 26.3385 161.588 26.2928ZM155.152 23.0949L158.393 26.2928C158.67 26.3233 158.931 26.3537 159.207 26.369L155.935 23.1254C155.674 23.1254 155.413 23.1101 155.152 23.0949ZM159.422 26.369C159.699 26.3842 159.991 26.3842 160.267 26.3842H160.344L157.057 23.1101C156.888 23.1254 156.734 23.1254 156.565 23.1254H156.15L159.422 26.369ZM184.982 19.5163L188.807 23.3081V26.4908H174.03L170.205 22.699V1.0749H184.537L188.362 4.86673V7.86669H177.471L177.456 10.0443H182.786L186.611 13.8361V16.897H177.456V19.5163H184.982ZM187.932 5.04947L184.66 1.80586V4.34897L187.932 7.4403V5.04947ZM177.348 7.4403L174.092 4.34897H173.861L177.118 7.4403H177.348ZM177.963 7.4403L174.691 4.34897H174.322L177.579 7.4403H177.963ZM178.731 7.4403L175.459 4.34897H174.921L178.193 7.4403H178.731ZM179.652 7.4403L176.396 4.34897H175.689L178.961 7.4403H179.652ZM180.881 7.4403L177.594 4.34897H176.626L179.883 7.4403H180.881ZM182.11 7.4403L178.823 4.34897H177.84L181.111 7.4403H182.11ZM183.385 7.4403L180.113 4.34897H179.069L182.34 7.4403H183.385ZM184.614 7.4403L181.373 4.34897H180.343L183.615 7.4403H184.614ZM185.689 7.4403L182.433 4.34897H181.588L184.859 7.4403H185.689ZM186.611 7.4403L183.354 4.34897H182.648L185.935 7.4403H186.611ZM187.225 7.4403L183.984 4.34897H183.569L186.856 7.4403H187.225ZM187.686 7.4403L184.445 4.34897H184.199L187.471 7.4403H187.686ZM173.754 8.79561L174.506 9.51133L174.384 9.61793L173.754 9.02403V10.0443H177.026V7.56212L173.754 4.4708V5.11038L176.595 7.80578L176.457 7.89714L173.754 5.3388V6.0393L176.073 8.23216L175.935 8.33876L173.754 6.2525V6.95299L175.551 8.65855L175.413 8.76515L173.754 7.18142V7.88191L175.029 9.08494L174.906 9.19154L173.754 8.09511V8.79561ZM182.909 10.7753V13.3793H182.893L186.181 16.4706V14.0189L182.909 10.7753ZM177.133 16.4706H177.41L174.138 13.3793H173.861L177.133 16.4706ZM174.368 13.3793L177.64 16.4706H178.178L174.921 13.3793H174.368ZM175.152 13.3793L178.408 16.4706H179.253L175.966 13.3793H175.152ZM176.211 13.3793L179.483 16.4706H180.635L177.379 13.3793H176.211ZM182.11 16.4706L178.869 13.3793H177.609L180.866 16.4706H182.11ZM183.585 16.4706L180.313 13.3793H179.084L182.356 16.4706H183.585ZM184.644 16.4706L181.403 13.3793H180.543L183.815 16.4706H184.644ZM185.412 16.4706L182.156 13.3793H181.618L184.89 16.4706H185.412ZM182.371 13.3793L185.658 16.4706H185.935L182.678 13.3793H182.371ZM173.754 18.7853L174.153 19.166L174.03 19.2878L173.754 19.029V19.5163H177.026V16.5772L173.754 13.4859V14.1559L176.595 16.8666L176.488 16.9732L173.754 14.3844V15.1001L176.119 17.3386L175.996 17.4452L173.754 15.3133V16.0138L175.628 17.7955L175.505 17.9021L173.754 16.2422V16.9427L175.136 18.2523L175.013 18.3589L173.754 17.1711V17.8716L174.645 18.7092L174.522 18.8158L173.754 18.0848V18.7853ZM185.105 20.2472V22.8208L188.377 26.0644V23.4908L185.105 20.2472ZM172.433 22.8208H170.943L174.215 26.0644H175.705L172.433 22.8208ZM173.984 22.8208H172.648L175.92 26.0644H177.271L173.984 22.8208ZM174.199 22.8208L177.486 26.0644H178.685L175.397 22.8208H174.199ZM175.612 22.8208L178.9 26.0644H179.959L176.688 22.8208H175.612ZM177.84 22.8208H176.903L180.174 26.0644H181.127L177.84 22.8208ZM182.171 26.0644L178.9 22.8208H178.055L181.342 26.0644H182.171ZM179.115 22.8208L182.386 26.0644H183.124L179.852 22.8208H179.115ZM180.067 22.8208L183.339 26.0644H183.999L180.712 22.8208H180.067ZM180.927 22.8208L184.214 26.0644H184.783L181.496 22.8208H180.927ZM181.711 22.8208L184.998 26.0644H185.489L182.202 22.8208H181.711ZM182.417 22.8208L185.704 26.0644H186.134L182.847 22.8208H182.417ZM183.062 22.8208L186.349 26.0644H186.718L183.431 22.8208H183.062ZM183.646 22.8208L186.933 26.0644H187.24L183.969 22.8208H183.646ZM184.184 22.8208L187.455 26.0644H187.732L184.445 22.8208H184.184ZM184.66 22.8208L187.947 26.0644H188.162L184.875 22.8208H184.66Z" fill="black"/>
</g>
<defs>
<clipPath id="clip0">
<rect width="188.332" height="26.4124" fill="white" transform="translate(0.6875 0.593506)"/>
</clipPath>
</defs>
</svg>
