<svg width="164" height="23" viewBox="0 0 164 23" fill="none" xmlns="http://www.w3.org/2000/svg">
<path fill-rule="evenodd" clip-rule="evenodd" d="M16.2364 6.02861C18.2428 8.01772 19.1657 10.2455 19.1657 13.1099C19.1657 18.6794 15.086 22.5515 9.24067 22.5515H3.51571L0.185059 19.2496V0.4193H6.01704C9.14705 0.4193 11.7821 1.53321 13.5745 3.40298L16.2364 6.02861ZM3.34182 3.38971H3.30168V4.05275L6.15079 6.85078V6.17448L3.34182 3.38971ZM6.63234 6.08165L3.91699 3.38971H3.52909L6.24443 6.08165H6.63234ZM7.58204 6.08165L4.86669 3.38971H4.10426L6.8196 6.08165H7.58204ZM6.05717 3.38971H5.05395L7.7693 6.08165H8.77251L6.05717 3.38971ZM9.74896 6.09491L7.08712 3.45602C6.80622 3.41623 6.53871 3.40297 6.24443 3.38971L8.95978 6.08165H9.24067C9.41456 6.08165 9.58845 6.08165 9.74896 6.09491ZM10.605 6.18774L8.01007 3.61515C7.78268 3.5621 7.5419 3.52232 7.30114 3.48254L9.94961 6.10817C10.177 6.12143 10.4044 6.16122 10.605 6.18774ZM11.3808 6.37339L8.85277 3.8671C8.66551 3.8008 8.46486 3.73449 8.26422 3.68145L10.8458 6.24078C11.0331 6.28056 11.207 6.32035 11.3808 6.37339ZM11.6751 6.46621C11.849 6.54578 12.0363 6.62534 12.1968 6.70491L9.73558 4.26493C9.56169 4.1721 9.37444 4.07927 9.18717 3.99971L11.6751 6.46621ZM3.30168 9.29076L3.78323 9.76815L3.67622 9.87423L3.30168 9.50293V16.4516H6.15079V7.03643L3.30168 4.26493V4.9147L6.00366 7.58012L5.89666 7.67294L3.30168 5.11361V5.77665L5.54888 8.01772L5.45524 8.12381L3.30168 5.97556V6.65186L5.10746 8.45533L5.01383 8.56141L3.30168 6.85078V7.52708L4.66605 8.89293L4.57242 8.99902L3.30168 7.72599V8.41555L4.22465 9.33054L4.11763 9.43663L3.30168 8.61446V9.29076ZM11.9828 6.30708C11.528 5.60426 10.9261 5.00753 10.2037 4.5434L11.9828 6.30708ZM15.9688 6.29382L14.8854 5.19318C15.6077 6.53252 16.0759 8.19011 16.0759 9.91401C16.0759 10.0997 16.0759 10.2853 16.0625 10.4577L18.7912 13.1762V13.1099C18.7912 10.3384 17.8816 8.24316 15.9688 6.29382ZM6.52533 16.4383C10.4178 16.2261 12.9325 13.6933 12.9325 9.91401C12.9325 8.93272 12.7586 8.03099 12.4376 7.23534C11.6216 6.67839 10.6853 6.45295 9.24067 6.45295H6.52533V16.4383ZM15.5007 13.322L18.3364 16.1333C18.6039 15.2714 18.7644 14.3431 18.7912 13.3618L16.0491 10.6434C15.9822 11.5981 15.795 12.4866 15.5007 13.322ZM18.2829 16.2659L15.4472 13.4546C15.193 14.1177 14.872 14.7409 14.4841 15.2979L17.3733 18.1622C17.7479 17.5787 18.0555 16.9422 18.2829 16.2659ZM16.1962 19.5944C16.6109 19.1966 16.9721 18.7457 17.2931 18.2683L14.4172 15.4172C14.0828 15.8814 13.7083 16.319 13.2802 16.7035L16.1962 19.5944ZM12.0095 17.6981L14.9389 20.6022C15.3535 20.3237 15.7414 20.0187 16.1026 19.6872L13.1866 16.7964C12.8255 17.1279 12.4376 17.4329 12.0095 17.6981ZM10.7254 18.4009L13.6548 21.305C14.0561 21.1194 14.444 20.9072 14.8185 20.6818L11.8891 17.7777C11.528 18.0164 11.1401 18.2153 10.7254 18.4009ZM9.46807 18.865L12.3841 21.7559C12.772 21.6498 13.1599 21.5039 13.521 21.3581L10.5917 18.454C10.2305 18.6131 9.85597 18.759 9.46807 18.865ZM8.25084 19.1568L11.1535 22.0344C11.528 21.9681 11.8891 21.8885 12.2369 21.7957L9.3343 18.9181C8.98652 19.0109 8.62537 19.0905 8.25084 19.1568ZM8.07695 19.1833C7.75593 19.2496 7.42152 19.2894 7.08712 19.3159L9.96298 22.1537C10.3108 22.1405 10.6452 22.1007 10.9796 22.0609L8.07695 19.1833ZM8.85277 22.1802H9.24067C9.42794 22.1802 9.60183 22.1802 9.77572 22.167L6.91323 19.3292C6.61896 19.3424 6.32469 19.3557 6.01704 19.3557H6.00366L8.85277 22.1802ZM0.827112 19.3557L3.67622 22.1802H3.86349L1.02776 19.3557H0.827112ZM1.21503 19.3557L4.06412 22.1802H4.30489L1.45579 19.3557H1.21503ZM1.64305 19.3557L4.49216 22.1802H4.79982L1.95071 19.3557H1.64305ZM2.13798 19.3557L4.98707 22.1802H5.37499L2.52588 19.3557H2.13798ZM2.71315 19.3557L5.56224 22.1802H6.03041L3.18131 19.3557H2.71315ZM3.36857 19.3557L6.21768 22.1802H6.77947L3.93037 19.3557H3.36857ZM4.13101 19.3557L6.98011 22.1802H7.66229L4.81318 19.3557H4.13101ZM5.00045 19.3557L7.84956 22.1802H8.6655L5.80301 19.3557H5.00045ZM33.8928 16.4781L37.2235 19.78V22.5515H24.3557L21.025 19.2496V0.4193H33.5049L36.8356 3.72123V6.33361H27.3519L27.3385 8.2299H31.98L35.3107 11.5318V14.1972H27.3385V16.4781H33.8928ZM36.461 3.88036L33.6119 1.05582V3.27037L36.461 5.9623V3.88036ZM27.2449 5.9623L24.4092 3.27037H24.2085L27.0443 5.9623H27.2449ZM27.78 5.9623L24.9308 3.27037H24.6098L27.4455 5.9623H27.78ZM28.4488 5.9623L25.5996 3.27037H25.1315L27.9806 5.9623H28.4488ZM29.2513 5.9623L26.4156 3.27037H25.8003L28.6494 5.9623H29.2513ZM30.3214 5.9623L27.4589 3.27037H26.6162L29.452 5.9623H30.3214ZM31.3915 5.9623L28.529 3.27037H27.6729L30.522 5.9623H31.3915ZM32.5017 5.9623L29.6526 3.27037H28.743L31.5921 5.9623H32.5017ZM33.5718 5.9623L30.7494 3.27037H29.8532L32.7024 5.9623H33.5718ZM34.5081 5.9623L31.6724 3.27037H30.9367L33.7858 5.9623H34.5081ZM35.3107 5.9623L32.475 3.27037H31.8597L34.7221 5.9623H35.3107ZM35.8457 5.9623L33.0234 3.27037H32.6622L35.5247 5.9623H35.8457ZM36.247 5.9623L33.4247 3.27037H33.2106L36.0597 5.9623H36.247ZM24.1149 7.14251L24.7703 7.76577L24.6633 7.85859L24.1149 7.34142V8.2299H26.964V6.06839L24.1149 3.37645V3.93341L26.5895 6.28056L26.4691 6.36013L24.1149 4.13232V4.74231L26.1347 6.65186L26.0143 6.74469L24.1149 4.92796V5.53796L25.6799 7.02317L25.5595 7.11599L24.1149 5.73687V6.34687L25.2251 7.39447L25.1181 7.48729L24.1149 6.53252V7.14251ZM32.087 8.86641V11.134H32.0737L34.9362 13.8259V11.691L32.087 8.86641ZM27.0576 13.8259H27.2984L24.4493 11.134H24.2085L27.0576 13.8259ZM24.65 11.134L27.499 13.8259H27.9672L25.1315 11.134H24.65ZM25.3321 11.134L28.1679 13.8259H28.9035L26.0411 11.134H25.3321ZM26.2551 11.134L29.1042 13.8259H30.1074L27.2717 11.134H26.2551ZM31.3915 13.8259L28.5691 11.134H27.4723L30.308 13.8259H31.3915ZM32.6756 13.8259L29.8265 11.134H28.7564L31.6055 13.8259H32.6756ZM33.5985 13.8259L30.7762 11.134H30.0271L32.8762 13.8259H33.5985ZM34.2674 13.8259L31.4316 11.134H30.9635L33.8126 13.8259H34.2674ZM31.6189 11.134L34.4814 13.8259H34.7221L31.8864 11.134H31.6189ZM24.1149 15.8416L24.4627 16.1731L24.3557 16.2792L24.1149 16.0538V16.4781H26.964V13.9188L24.1149 11.2268V11.8103L26.5895 14.1707L26.4958 14.2635L24.1149 12.0092V12.6325L26.1748 14.5818L26.0678 14.6746L24.1149 12.8181V13.4281L25.7468 14.9796L25.6398 15.0725L24.1149 13.627V14.237L25.3187 15.3775L25.2117 15.4703L24.1149 14.4359V15.0459L24.8907 15.7753L24.7837 15.8681L24.1149 15.2316V15.8416ZM33.9998 17.1146V19.3557L36.8489 22.1802V19.9392L33.9998 17.1146ZM22.9646 19.3557H21.6671L24.5162 22.1802H25.8137L22.9646 19.3557ZM24.3155 19.3557H23.1518L26.0009 22.1802H27.178L24.3155 19.3557ZM24.5028 19.3557L27.3653 22.1802H28.4086L25.5461 19.3557H24.5028ZM25.7334 19.3557L28.5959 22.1802H29.5188L26.6697 19.3557H25.7334ZM27.6729 19.3557H26.857L29.7061 22.1802H30.5354L27.6729 19.3557ZM31.445 22.1802L28.5959 19.3557H27.8602L30.7227 22.1802H31.445ZM28.7832 19.3557L31.6323 22.1802H32.2743L29.4252 19.3557H28.7832ZM29.6125 19.3557L32.4616 22.1802H33.0368L30.1743 19.3557H29.6125ZM30.3615 19.3557L33.224 22.1802H33.7189L30.8565 19.3557H30.3615ZM31.0437 19.3557L33.9062 22.1802H34.3342L31.4718 19.3557H31.0437ZM31.659 19.3557L34.5215 22.1802H34.896L32.0335 19.3557H31.659ZM32.2208 19.3557L35.0833 22.1802H35.4043L32.5418 19.3557H32.2208ZM32.7291 19.3557L35.5916 22.1802H35.8591L33.01 19.3557H32.7291ZM33.1973 19.3557L36.0464 22.1802H36.2871L33.4247 19.3557H33.1973ZM33.6119 19.3557L36.4744 22.1802H36.6617L33.7992 19.3557H33.6119ZM55.0806 6.43969H45.2224V8.86641H50.0913L53.4219 12.1683V14.8735H45.2224V22.5515H42.2529L38.9223 19.2496V0.4193H51.7499L55.0806 3.72123V6.43969ZM51.8569 1.05582V3.37645L54.6927 6.06839H54.706V3.88036L51.8569 1.05582ZM44.9281 6.06839H45.1421L42.293 3.37645H42.1058L44.9281 6.06839ZM45.6638 6.06839L42.8013 3.37645H42.507L45.3294 6.06839H45.6638ZM46.346 6.06839L43.4835 3.37645H43.0153L45.8511 6.06839H46.346ZM47.2154 6.06839L44.3663 3.37645H43.6975L46.5332 6.06839H47.2154ZM48.4193 6.06839L45.5702 3.37645H44.5803L47.4027 6.06839H48.4193ZM49.5696 6.06839L46.7205 3.37645H45.7708L48.6199 6.06839H49.5696ZM50.827 6.06839L47.9779 3.37645H46.9212L49.7703 6.06839H50.827ZM52.0174 6.06839L49.1817 3.37645H48.1651L51.0276 6.06839H52.0174ZM52.9003 6.06839L50.0512 3.37645H49.3823L52.2181 6.06839H52.9003ZM53.5824 6.06839L50.7333 3.37645H50.2518L53.1009 6.06839H53.5824ZM54.0907 6.06839L51.255 3.37645H50.934L53.7831 6.06839H54.0907ZM51.4556 3.37645L54.2914 6.06839H54.492L51.6563 3.37645H51.4556ZM41.9988 8.86641H44.8479V6.17448L41.9988 3.46928V3.92015L44.5402 6.34687L44.4466 6.43969L41.9988 4.11906V4.72905L44.1255 6.75795L44.0185 6.86404L41.9988 4.92796V5.53796L43.7109 7.16903L43.6039 7.27512L41.9988 5.73687V6.34687L43.2962 7.58012L43.2026 7.67294L41.9988 6.53252V7.15577L42.8816 7.9912L42.7879 8.08403L41.9988 7.34142V7.95142L42.4669 8.40229L42.3733 8.49511L41.9988 8.13707V8.86641ZM50.1983 9.50293V11.8103L53.0474 14.5022V12.3275L50.1983 9.50293ZM42.079 11.8103L44.9147 14.5022H45.1823L42.3332 11.8103H42.079ZM42.5338 11.8103L45.3695 14.5022H45.8243L42.9886 11.8103H42.5338ZM43.1892 11.8103L46.0116 14.5022H46.8543L43.9918 11.8103H43.1892ZM44.1924 11.8103L47.0415 14.5022H48.0849L45.2491 11.8103H44.1924ZM45.4498 11.8103L48.2721 14.5022H49.476L46.6536 11.8103H45.4498ZM46.8409 11.8103L49.6766 14.5022H50.7333L47.8842 11.8103H46.8409ZM48.0715 11.8103L50.934 14.5022H51.7365L48.9142 11.8103H48.0715ZM49.1014 11.8103L51.9372 14.5022H52.392L49.5562 11.8103H49.1014ZM49.7435 11.8103L52.5926 14.5022H52.8467L50.011 11.8103H49.7435ZM41.9988 19.3557L44.8479 22.1802V14.5685L44.8211 14.5951L41.9988 11.9297V12.3673L44.5536 14.8072L44.4599 14.9001L41.9988 12.5662V13.1762L44.1389 15.2183L44.0319 15.3244L41.9988 13.3751V13.9851L43.7243 15.6294L43.6173 15.7355L41.9988 14.184V14.794L43.3096 16.0405L43.216 16.1333L41.9988 14.9796V15.6029L42.8949 16.4516L42.8013 16.5444L41.9988 15.7885V16.4118L42.4803 16.8627L42.3867 16.9555L41.9988 16.5842V19.3557ZM39.5643 19.3557L42.4134 22.1802H42.9618L40.1261 19.3557H39.5643ZM40.7949 19.3557H40.3134L43.1625 22.1802H43.644L40.7949 19.3557ZM40.9822 19.3557L43.8447 22.1802H44.1924L41.3567 19.3557H40.9822ZM41.544 19.3557L44.3931 22.1802H44.6472L41.8115 19.3557H41.544ZM59.5482 0.4193L62.8788 3.72123V22.5515H59.8558L56.5252 19.2496V0.4193H59.5482ZM59.6552 1.26799L62.5043 4.09254V3.88036L59.6552 1.05582V1.26799ZM59.6552 1.8382L62.5043 4.66275V4.29145L59.6552 1.4669V1.8382ZM59.6552 2.62059L62.5043 5.44513V4.8484L59.6552 2.02385V2.62059ZM59.6552 3.72123L62.5043 6.54578V5.64404L59.6552 2.8195V3.72123ZM59.6552 5.2197L62.5043 8.04425V6.73143L59.6552 3.90688V5.2197ZM59.6552 7.28838L62.5043 10.1129V8.2299L59.6552 5.40535V7.28838ZM59.6552 19.3557L62.5043 22.1802V10.2986L59.6552 7.47403V19.3557ZM57.7826 19.3557H57.1672L60.0164 22.1802H60.6183L57.7826 19.3557ZM61.3005 22.1802L58.4514 19.3557H57.9698L60.8189 22.1802H61.3005ZM58.6386 19.3557L61.5011 22.1802H61.8489L59.0131 19.3557H58.6386ZM59.2004 19.3557L62.0495 22.1802H62.3037L59.4679 19.3557H59.2004ZM88.6278 4.88818C89.9253 6.16122 90.5406 7.60664 90.5406 9.39684C90.5406 13.1099 87.6781 15.8151 83.7054 15.8151H80.3079V22.5515H77.2983L73.9676 19.2496V0.4193H80.7092C83.0634 0.4193 84.9494 1.25473 85.966 2.26255L88.6278 4.88818ZM77.0843 7.97794L77.3652 8.25642L77.2581 8.3625L77.0843 8.19011V10.0334H79.7996V5.94904L77.0843 3.25711V3.82732L79.4251 6.201L79.3314 6.29382L77.0843 4.03949V4.67601L79.0104 6.61208L78.9168 6.70491L77.0843 4.87492V5.49818L78.6091 7.02317L78.5021 7.11599L77.0843 5.69709V6.32034L78.1945 7.43425L78.0875 7.52708L77.0843 6.51926V7.14251L77.7798 7.84533L77.6728 7.93816L77.0843 7.35469V7.97794ZM80.134 5.81644L77.5658 3.25711H77.2715L79.8665 5.8297L79.9869 5.81644H80.134ZM80.7359 5.81644L78.1543 3.25711H77.7531L80.3346 5.81644H80.7359ZM81.4984 5.81644L78.9168 3.25711H78.3416L80.9232 5.81644H81.4984ZM82.3812 5.81644L79.7996 3.25711H79.104L81.6856 5.81644H82.3812ZM80.7627 3.25711H79.9869L82.5685 5.81644H83.3443L80.7627 3.25711ZM84.1067 5.81644L81.6054 3.33667C81.4047 3.29689 81.1773 3.28363 80.9633 3.27037L83.5315 5.81644H84.1067ZM84.3876 5.51144L82.4079 3.54884C82.234 3.48254 82.0334 3.4295 81.8462 3.38971L84.3207 5.84296C84.3742 5.84296 84.4277 5.84296 84.4812 5.85622C84.4545 5.73687 84.4277 5.63078 84.3876 5.51144ZM84.2672 5.20644C83.9729 4.5434 83.4513 4.02623 82.7557 3.69471L84.2672 5.20644ZM88.3603 5.1534L87.1832 3.97319C87.5042 4.68927 87.7183 5.57774 87.7183 6.46621C87.7183 6.62534 87.7183 6.78447 87.7049 6.93034L90.1661 9.14489C90.1126 7.56686 89.5106 6.32035 88.3603 5.1534ZM80.6289 10.0334C82.943 10.0334 84.5615 8.61446 84.5615 6.59882C84.5615 6.47947 84.5615 6.36013 84.5481 6.24078C84.3207 6.201 84.0799 6.18774 83.8526 6.18774H80.1741V10.0334H80.6289ZM89.7915 11.5716C90.0323 10.9086 90.1661 10.1792 90.1661 9.39684V9.33054L87.6915 7.08947C87.6246 7.84533 87.4374 8.54815 87.1431 9.18467L89.7915 11.5716ZM87.0762 9.30402C86.8354 9.79467 86.5412 10.2323 86.18 10.6301L88.9355 13.1099C89.2565 12.6855 89.5374 12.2081 89.738 11.7042L87.0762 9.30402ZM87.8788 14.1309C88.2399 13.8525 88.5609 13.5475 88.8552 13.2027L86.0864 10.7229C85.7787 11.0544 85.4443 11.3329 85.0698 11.5981L87.8788 14.1309ZM83.9328 12.2214L86.7819 14.794C87.1431 14.6216 87.4641 14.4359 87.7718 14.2105L84.9494 11.6777C84.6284 11.8766 84.294 12.0623 83.9328 12.2214ZM82.8092 12.606L85.6851 15.1918C86.0195 15.099 86.3539 14.9796 86.6615 14.847L83.799 12.2744C83.478 12.407 83.1436 12.5131 82.8092 12.606ZM81.7258 12.8049L84.615 15.3907C84.936 15.3509 85.2437 15.2979 85.5379 15.2316L82.6621 12.6325C82.3544 12.712 82.0468 12.7651 81.7258 12.8049ZM83.5583 15.4438H83.7054C83.9462 15.4438 84.187 15.4305 84.4144 15.4172L81.5385 12.8314C81.271 12.8579 80.9901 12.8712 80.7092 12.8844L83.5583 15.4438ZM79.7729 12.8844L82.622 15.4438H83.3443L80.5085 12.8844H79.7729ZM79.9334 22.1802V15.4438H79.9467L77.0976 12.8844H77.0843V13.5607L79.5588 15.7885L79.4518 15.8814L77.0843 13.7464V14.4492L79.0907 16.2527L78.9837 16.3455L77.0843 14.6349V15.3244L78.6225 16.7168L78.5289 16.8096L77.0843 15.5101V16.2129L78.1543 17.1809L78.0607 17.2737L77.0843 16.3985V17.0748L77.6996 17.6318L77.6059 17.7379L77.0843 17.2737V19.3557L79.9334 22.1802ZM77.2983 12.8844L80.134 15.4438H80.4283L77.5792 12.8844H77.2983ZM77.7664 12.8844L80.6155 15.4438H80.9767L78.1276 12.8844H77.7664ZM78.3416 12.8844L81.1773 15.4438H81.6321L78.7964 12.8844H78.3416ZM78.9703 12.8844L81.8328 15.4438H82.4213L79.5856 12.8844H78.9703ZM74.6097 19.3557L77.4588 22.1802H78.0473L75.2116 19.3557H74.6097ZM75.8804 19.3557H75.3989L78.248 22.1802H78.7295L75.8804 19.3557ZM76.0677 19.3557L78.9302 22.1802H79.2779L76.4422 19.3557H76.0677ZM76.6295 19.3557L79.4786 22.1802H79.7327L76.897 19.3557H76.6295ZM108.237 0.406039L111.434 3.57537V14.0514C111.434 19.3557 108.251 22.83 103.422 22.83C100.867 22.83 99.0344 22.1139 97.3758 20.4696L94.6337 17.7777C93.1222 16.3057 92.3063 14.0912 92.3063 11.2534V0.406039H95.3159L98.6465 3.70797V14.3431C98.6465 15.1653 98.7402 15.9609 98.9542 16.677C99.3956 16.7831 99.8771 16.8494 100.385 16.8494C103.408 16.8494 105.228 14.7277 105.228 11.1473V0.406039H108.237ZM98.272 3.8671L95.4229 1.04256V1.25473L98.272 4.07927V3.8671ZM108.344 1.26799L111.06 3.95993V3.73449L108.344 1.05582V1.26799ZM98.272 4.64949V4.27819L95.4229 1.45364V1.82494L98.272 4.64949ZM108.344 1.8382L111.06 4.53014V4.15884L108.344 1.4669V1.8382ZM98.272 5.43187V4.83514L95.4229 2.01059V2.60733L98.272 5.43187ZM108.344 2.62059L111.06 5.31253V4.71579L108.344 2.02385V2.62059ZM98.272 6.53252V5.63078L95.4229 2.80624V3.70797L98.272 6.53252ZM108.344 3.72123L111.06 6.41317V5.51144L108.344 2.8195V3.72123ZM98.272 8.03098V6.71817L95.4229 3.89362V5.20644L98.272 8.03098ZM108.344 5.2197L111.06 7.91164V6.59882L108.344 3.90688V5.2197ZM98.272 10.0997V8.21664L95.4229 5.39209V7.27512L98.272 10.0997ZM111.06 8.09729L108.344 5.40535V7.28838L111.06 9.98032V8.09729ZM95.4229 7.46077V11.1473C95.4229 13.9055 96.5732 15.8283 98.5395 16.5444C98.3656 15.8548 98.272 15.1122 98.272 14.3431V10.2853L95.4229 7.46077ZM110.605 17.2605C110.899 16.2924 111.06 15.2183 111.06 14.0514V10.166L108.344 7.47403V11.2534C108.344 12.4866 108.197 13.6005 107.903 14.5818L110.605 17.2605ZM107.849 14.7144C107.649 15.3642 107.381 15.9609 107.047 16.4781L109.735 19.1435C110.07 18.6131 110.351 18.0296 110.551 17.3931L107.849 14.7144ZM108.705 20.4431C109.066 20.085 109.388 19.7005 109.668 19.2629L106.98 16.5974C106.699 17.0351 106.378 17.4196 106.017 17.7777L108.705 20.4431ZM104.893 18.6263L107.609 21.3183C107.97 21.0928 108.304 20.8276 108.612 20.5359L105.91 17.8572C105.602 18.149 105.268 18.4009 104.893 18.6263ZM103.783 19.1833L106.512 21.8885C106.846 21.7426 107.18 21.5835 107.488 21.3846L104.773 18.6926C104.465 18.8783 104.131 19.0374 103.783 19.1833ZM96.1853 18.8253L97.6433 20.2044C97.9242 20.4696 98.2051 20.7083 98.486 20.9205L96.5331 18.9844L96.1853 18.8253ZM97.242 19.2496C97.1083 19.1966 96.9745 19.1568 96.8408 19.1037L99.0879 21.3315C99.2886 21.4509 99.4758 21.5702 99.6765 21.6631L97.242 19.2496ZM102.686 19.5148L105.428 22.2333C105.749 22.1537 106.057 22.0609 106.365 21.9415L103.636 19.2363C103.328 19.3424 103.007 19.4353 102.686 19.5148ZM97.5096 19.3292L100.038 21.8355C100.212 21.9018 100.385 21.9813 100.573 22.0344L97.9777 19.4618C97.8172 19.422 97.6701 19.3822 97.5096 19.3292ZM98.2453 19.5281L100.867 22.1272C101.054 22.1802 101.241 22.2333 101.442 22.2731L98.7803 19.6342C98.593 19.5944 98.4191 19.5679 98.2453 19.5281ZM101.643 19.6872L104.385 22.4057C104.693 22.3791 104.987 22.3261 105.268 22.2598L102.526 19.5413C102.245 19.6076 101.95 19.6607 101.643 19.6872ZM98.9943 19.6607L101.67 22.3128C101.884 22.3526 102.098 22.3791 102.312 22.4057L99.623 19.7403C99.409 19.727 99.2083 19.7005 98.9943 19.6607ZM100.706 19.7668L103.422 22.4587C103.689 22.4587 103.957 22.4454 104.211 22.4189L101.482 19.7137C101.228 19.7403 100.961 19.7535 100.706 19.7668ZM99.8236 19.7535L102.512 22.4189C102.753 22.4454 102.98 22.4587 103.235 22.4587L100.519 19.7668H100.332C100.158 19.7668 99.9975 19.7668 99.8236 19.7535ZM126.282 16.4118L129.612 19.7137V22.5515H117.427L114.096 19.2496V0.4193H117.106L120.436 3.72123V16.4118H126.282ZM120.062 3.88036L117.213 1.05582V1.25473L120.062 4.07927V3.88036ZM120.062 4.64949V4.27819L117.213 1.45364V1.82494L120.062 4.64949ZM120.062 5.43187V4.83514L117.213 2.01059V2.60733L120.062 5.43187ZM120.062 6.53252V5.63078L117.213 2.80624V3.70797L120.062 6.53252ZM120.062 8.03098V6.71817L117.213 3.89362V5.20644L120.062 8.03098ZM120.062 10.0997V8.21664L117.213 5.39209V7.27512L120.062 10.0997ZM117.213 16.4118H120.062V10.2853L117.213 7.46077V16.4118ZM129.238 22.1802V19.8729L126.389 17.0483V19.3557L129.238 22.1802ZM114.738 19.3557L117.587 22.1802H118.831L115.969 19.3557H114.738ZM116.156 19.3557L119.018 22.1802H120.142L117.279 19.3557H116.156ZM117.467 19.3557L120.329 22.1802H121.332L118.47 19.3557H117.467ZM118.657 19.3557L121.52 22.1802H122.402L119.553 19.3557H118.657ZM119.741 19.3557L122.603 22.1802H123.392L120.543 19.3557H119.741ZM120.73 19.3557L123.58 22.1802H124.289L121.426 19.3557H120.73ZM121.613 19.3557L124.476 22.1802H125.104L122.242 19.3557H121.613ZM122.429 19.3557L125.292 22.1802H125.84L122.978 19.3557H122.429ZM123.165 19.3557L126.027 22.1802H126.509L123.66 19.3557H123.165ZM123.847 19.3557L126.696 22.1802H127.124L124.262 19.3557H123.847ZM124.449 19.3557L127.312 22.1802H127.673L124.824 19.3557H124.449ZM125.011 19.3557L127.86 22.1802H128.181L125.318 19.3557H125.011ZM125.519 19.3557L128.368 22.1802H128.636L125.787 19.3557H125.519ZM125.974 19.3557L128.823 22.1802H129.05L126.201 19.3557H125.974ZM143.978 13.4944C145.008 14.5155 145.45 15.6427 145.45 17.1942C145.45 20.5226 142.801 22.83 138.962 22.83C136.18 22.8831 134.107 22.0741 132.809 21.0928L129.519 17.8307V14.7012L129.84 14.5685C131.284 15.9079 133.291 16.6637 135.377 16.6637C137.116 16.6637 138.521 16.0405 139.069 15.099C136.982 14.0912 134.535 13.5342 133.157 11.797L131.137 9.25097C130.174 8.03098 129.706 7.14251 129.706 5.68383C129.706 2.42168 132.328 0.180605 136.153 0.180605C138.093 0.140823 140.059 0.657995 141.477 1.57299L144.781 4.8484V7.81881L144.486 7.96468C142.975 6.86404 141.249 6.24078 139.644 6.24078C137.798 6.24078 136.421 6.97012 136.059 8.11055C137.932 8.77359 139.939 9.43663 141.209 10.7229L143.978 13.4944ZM141.557 2.18298V4.62297H141.544L144.406 7.46077V5.00753L141.557 2.18298ZM136.728 3.05819C136.621 3.04493 136.514 3.04493 136.421 3.04493C136.22 3.04493 136.019 3.05819 135.819 3.07146L138.708 5.93578C138.975 5.896 139.27 5.86948 139.564 5.86948L136.728 3.05819ZM140.514 5.92252L137.745 3.17754C137.477 3.1245 137.196 3.08472 136.916 3.05819L139.751 5.86948C140.005 5.86948 140.26 5.896 140.514 5.92252ZM138.547 5.9623L135.645 3.08472C135.297 3.13776 134.976 3.20406 134.668 3.29689L137.598 6.201C137.892 6.09491 138.213 6.01535 138.547 5.9623ZM141.41 6.09491L138.735 3.44276C138.494 3.36319 138.24 3.28363 137.986 3.23058L140.741 5.9623C140.955 5.98883 141.183 6.04187 141.41 6.09491ZM137.464 6.25404L134.535 3.34993C134.147 3.48254 133.826 3.66819 133.558 3.89362L136.514 6.82425C136.782 6.59882 137.103 6.41317 137.464 6.25404ZM142.266 6.36013L139.738 3.85384C139.511 3.74776 139.27 3.64167 139.029 3.54884L141.664 6.16122C141.865 6.21426 142.065 6.28056 142.266 6.36013ZM135.698 7.97794C135.832 7.56686 136.073 7.20882 136.407 6.90382L133.451 3.97319C133.077 4.31797 132.836 4.74231 132.769 5.20644L135.484 7.89838L135.698 7.97794ZM143.069 6.69165L140.821 4.46384C140.594 4.31797 140.367 4.1721 140.126 4.05275L142.574 6.47947C142.734 6.54578 142.908 6.61208 143.069 6.69165ZM141.303 4.75557L143.456 6.89056C143.59 6.95686 143.737 7.03643 143.884 7.12925L141.423 4.68927L141.303 4.75557ZM132.756 5.48492C132.756 6.59882 133.786 7.22208 135.177 7.77903L132.756 5.37883V5.48492ZM133.745 11.8899C134.227 12.407 134.896 12.8181 135.658 13.1894L132.582 10.1394C132.421 10.0466 132.261 9.9538 132.114 9.86097C132.595 10.524 133.13 11.2268 133.745 11.8899ZM133.919 10.776C133.598 10.6434 133.277 10.4975 132.983 10.3516L136.019 13.3618C136.314 13.4944 136.621 13.627 136.942 13.7596L133.919 10.776ZM134.227 10.8953L137.263 13.8922C137.504 13.9983 137.745 14.0912 137.986 14.1972L134.923 11.1605C134.695 11.081 134.468 10.9881 134.227 10.8953ZM135.217 11.2666L138.32 14.3431C138.521 14.4227 138.721 14.5155 138.922 14.6083L135.752 11.4523C135.578 11.3992 135.391 11.3329 135.217 11.2666ZM139.243 14.7277C139.256 14.6614 139.283 14.5951 139.296 14.5288L136.474 11.7175C136.34 11.6644 136.193 11.6114 136.059 11.5716L139.243 14.7277ZM136.795 11.8368L139.323 14.3431C139.337 14.2901 139.337 14.2238 139.337 14.1707V14.1575L137.143 11.9827L136.795 11.8368ZM139.323 13.9586L139.283 13.7596L137.785 12.2744C137.691 12.2214 137.584 12.1816 137.477 12.1286L139.323 13.9586ZM143.711 13.7596L142.199 12.2612C142.386 12.7651 142.493 13.3353 142.493 13.9983C142.493 14.3299 142.467 14.6481 142.413 14.9664L145.062 17.592C145.075 17.4594 145.075 17.3268 145.075 17.1942C145.075 15.7222 144.674 14.7144 143.711 13.7596ZM139.176 13.4546C138.989 13.0966 138.654 12.7916 138.226 12.5264L139.176 13.4546ZM145.048 17.7644L142.386 15.1255C142.253 15.7355 142.025 16.3057 141.704 16.8096L144.513 19.5944C144.794 19.0374 144.981 18.4274 145.048 17.7644ZM143.563 20.8276C143.911 20.4961 144.206 20.1248 144.433 19.7137L141.624 16.929C141.37 17.3268 141.062 17.6716 140.701 17.9898L143.563 20.8276ZM139.591 18.7324L142.493 21.6233C142.855 21.4111 143.176 21.1857 143.47 20.9205L140.594 18.0694C140.286 18.3213 139.952 18.5468 139.591 18.7324ZM130.91 18.6794L133.05 20.8011C133.251 20.947 133.451 21.0928 133.679 21.2255L131.257 18.8385L130.91 18.6794ZM138.467 19.2098L141.383 22.1007C141.731 21.9813 142.065 21.8487 142.373 21.6763L139.47 18.7987C139.163 18.9579 138.828 19.1037 138.467 19.2098ZM131.592 18.9711L134.107 21.4642C134.254 21.5305 134.401 21.61 134.561 21.6763L131.966 19.1037L131.592 18.9711ZM132.247 19.1833L134.882 21.8089C135.043 21.862 135.217 21.9283 135.391 21.9813L132.689 19.3026L132.247 19.1833ZM137.384 19.475L140.286 22.3526C140.621 22.2996 140.942 22.2333 141.236 22.1405L138.333 19.2629C138.026 19.3424 137.718 19.422 137.384 19.475ZM132.943 19.3689L135.658 22.0609C135.845 22.1139 136.033 22.167 136.233 22.2068L133.465 19.4618C133.291 19.4353 133.117 19.3955 132.943 19.3689ZM133.692 19.5016L136.461 22.2465C136.675 22.2863 136.875 22.3261 137.089 22.3526L134.294 19.5679C134.08 19.5546 133.893 19.5281 133.692 19.5016ZM140.112 22.3791L137.223 19.5016C136.942 19.5546 136.648 19.5811 136.354 19.6076L139.23 22.4587C139.537 22.4454 139.832 22.4189 140.112 22.3791ZM134.508 19.5944L137.33 22.3791C137.571 22.4057 137.798 22.4322 138.039 22.4454L135.19 19.6209C134.963 19.6209 134.735 19.6076 134.508 19.5944ZM138.226 22.4454C138.467 22.4587 138.721 22.4587 138.962 22.4587H139.029L136.166 19.6076C136.019 19.6209 135.886 19.6209 135.738 19.6209H135.377L138.226 22.4454ZM160.484 16.4781L163.815 19.78V22.5515H150.947L147.616 19.2496V0.4193H160.096L163.427 3.72123V6.33361H153.943L153.93 8.2299H158.571L161.902 11.5318V14.1972H153.93V16.4781H160.484ZM163.052 3.88036L160.203 1.05582V3.27037L163.052 5.9623V3.88036ZM153.836 5.9623L151.001 3.27037H150.8L153.636 5.9623H153.836ZM154.371 5.9623L151.522 3.27037H151.201L154.037 5.9623H154.371ZM155.04 5.9623L152.191 3.27037H151.723L154.572 5.9623H155.04ZM155.843 5.9623L153.007 3.27037H152.392L155.241 5.9623H155.843ZM156.913 5.9623L154.05 3.27037H153.208L156.043 5.9623H156.913ZM157.983 5.9623L155.12 3.27037H154.264L157.113 5.9623H157.983ZM159.093 5.9623L156.244 3.27037H155.334L158.184 5.9623H159.093ZM160.163 5.9623L157.341 3.27037H156.445L159.294 5.9623H160.163ZM161.1 5.9623L158.264 3.27037H157.528L160.377 5.9623H161.1ZM161.902 5.9623L159.066 3.27037H158.451L161.314 5.9623H161.902ZM162.437 5.9623L159.615 3.27037H159.254L162.116 5.9623H162.437ZM162.838 5.9623L160.016 3.27037H159.802L162.651 5.9623H162.838ZM150.706 7.14251L151.362 7.76577L151.255 7.85859L150.706 7.34142V8.2299H153.555V6.06839L150.706 3.37645V3.93341L153.181 6.28056L153.061 6.36013L150.706 4.13232V4.74231L152.726 6.65186L152.606 6.74469L150.706 4.92796V5.53796L152.271 7.02317L152.151 7.11599L150.706 5.73687V6.34687L151.817 7.39447L151.71 7.48729L150.706 6.53252V7.14251ZM158.678 8.86641V11.134H158.665L161.528 13.8259V11.691L158.678 8.86641ZM153.649 13.8259H153.89L151.041 11.134H150.8L153.649 13.8259ZM151.241 11.134L154.09 13.8259H154.559L151.723 11.134H151.241ZM151.924 11.134L154.759 13.8259H155.495L152.632 11.134H151.924ZM152.846 11.134L155.696 13.8259H156.699L153.863 11.134H152.846ZM157.983 13.8259L155.161 11.134H154.064L156.899 13.8259H157.983ZM159.267 13.8259L156.418 11.134H155.348L158.197 13.8259H159.267ZM160.19 13.8259L157.368 11.134H156.619L159.468 13.8259H160.19ZM160.859 13.8259L158.023 11.134H157.555L160.404 13.8259H160.859ZM158.21 11.134L161.073 13.8259H161.314L158.478 11.134H158.21ZM150.706 15.8416L151.054 16.1731L150.947 16.2792L150.706 16.0538V16.4781H153.555V13.9188L150.706 11.2268V11.8103L153.181 14.1707L153.087 14.2635L150.706 12.0092V12.6325L152.766 14.5818L152.659 14.6746L150.706 12.8181V13.4281L152.338 14.9796L152.231 15.0725L150.706 13.627V14.237L151.91 15.3775L151.803 15.4703L150.706 14.4359V15.0459L151.482 15.7753L151.375 15.8681L150.706 15.2316V15.8416ZM160.591 17.1146V19.3557L163.44 22.1802V19.9392L160.591 17.1146ZM149.556 19.3557H148.258L151.108 22.1802H152.405L149.556 19.3557ZM150.907 19.3557H149.743L152.592 22.1802H153.769L150.907 19.3557ZM151.094 19.3557L153.957 22.1802H155L152.138 19.3557H151.094ZM152.325 19.3557L155.187 22.1802H156.11L153.261 19.3557H152.325ZM154.264 19.3557H153.448L156.298 22.1802H157.127L154.264 19.3557ZM158.036 22.1802L155.187 19.3557H154.452L157.314 22.1802H158.036ZM155.375 19.3557L158.224 22.1802H158.866L156.017 19.3557H155.375ZM156.204 19.3557L159.053 22.1802H159.628L156.766 19.3557H156.204ZM156.953 19.3557L159.815 22.1802H160.31L157.448 19.3557H156.953ZM157.635 19.3557L160.498 22.1802H160.926L158.063 19.3557H157.635ZM158.25 19.3557L161.113 22.1802H161.487L158.625 19.3557H158.25ZM158.812 19.3557L161.675 22.1802H161.996L159.133 19.3557H158.812ZM159.321 19.3557L162.183 22.1802H162.451L159.601 19.3557H159.321ZM159.789 19.3557L162.638 22.1802H162.879L160.016 19.3557H159.789ZM160.203 19.3557L163.066 22.1802H163.253L160.391 19.3557H160.203Z" fill="black"/>
</svg>
