<svg width="64" height="64" viewBox="0 0 64 64" fill="none" xmlns="http://www.w3.org/2000/svg">
<path d="M31.9887 63.9774C49.6556 63.9774 63.9774 49.6556 63.9774 31.9887C63.9774 14.3218 49.6556 0 31.9887 0C14.3218 0 0 14.3218 0 31.9887C0 49.6556 14.3218 63.9774 31.9887 63.9774Z" fill="#8150E6"/>
<path d="M62.6556 40.6349L40.0806 18.3308L27.2129 15.9153L19.6729 44.3597L38.681 63.1421C50.2168 60.704 59.4725 51.9449 62.6556 40.6349Z" fill="#3C176B"/>
<path d="M29.38 41.8765V24.2906H33.8047C35.2946 24.2906 36.6717 24.4712 37.9133 24.855C39.1549 25.2388 40.2385 25.8257 41.1415 26.6159C41.277 26.7287 41.3899 26.8416 41.5027 26.9545C41.5253 24.5615 40.6675 22.1912 39.4484 20.0465C38.0939 19.6628 36.6943 19.4596 35.272 19.4596H24.5264V41.8314C26.1518 41.8765 27.7546 42.012 29.38 41.8765Z" fill="#6B42BD"/>
<path d="M47.9819 27.8123C47.2143 25.9386 46.1759 24.3809 44.8891 23.1619C43.6023 21.9202 42.1349 20.9947 40.4644 20.4077C40.1258 20.2948 39.7872 20.182 39.4485 20.0691C40.6676 22.2137 41.5254 24.6067 41.5028 26.977C42.2478 27.722 42.7219 30.6342 43.1508 31.7403L29.3575 44.3823V41.8991C27.7321 42.0345 26.1293 41.8991 24.5039 41.8765V49.1908H34.6852C36.3332 49.1908 38.0037 48.8973 39.7194 48.2878C41.4351 47.6783 42.9928 46.7753 44.3924 45.5562C45.7921 44.3372 46.9434 42.7795 47.8238 40.9284C48.7043 39.0546 49.1558 36.8423 49.1558 34.2913C49.1332 31.7178 48.7494 29.6634 47.9819 27.8123Z" fill="#9B74EC"/>
<path d="M28.1385 39.5513C29.651 39.5513 31.0958 39.3707 32.4277 38.9869C33.7822 38.6032 34.9561 38.0162 35.9494 37.2261C36.9427 36.436 37.7328 35.3749 38.3198 34.1107C38.9067 32.824 39.1776 31.2889 39.1776 29.4603C39.1776 27.6543 38.9293 26.2547 38.4101 24.9679C37.8908 23.6811 37.191 22.6201 36.2654 21.83C35.3624 21.0398 34.2788 20.4303 33.0372 20.0691C31.7956 19.6853 30.4185 19.5047 28.9286 19.5047H24.5039V39.5964H28.1385V39.5513ZM19.6729 14.6511H30.4185C32.2245 14.6511 33.9402 14.9446 35.6108 15.5541C37.2813 16.1636 38.7487 17.0892 40.0355 18.3083C41.3222 19.5499 42.3381 21.1076 43.1282 22.9587C43.8958 24.8324 44.2796 26.8868 44.2796 29.4151C44.2796 31.9661 43.8281 34.1785 42.9476 36.0522C42.0672 37.9259 40.9159 39.461 39.5162 40.68C38.1166 41.8991 36.5589 42.8247 34.8432 43.4116C33.1275 44.0211 31.457 44.3146 29.809 44.3146H19.6729V14.6511Z" fill="white"/>
</svg>
