<svg width="188" height="37" viewBox="0 0 188 37" fill="none" xmlns="http://www.w3.org/2000/svg">
<g clip-path="url(#clip0)">
<path d="M16.4297 18.5413C16.4297 19.5465 17.2027 20.3284 18.1966 20.3284C19.1905 20.3284 19.9635 19.5465 19.9635 18.5413C19.9635 17.536 19.1905 16.7542 18.1966 16.7542C17.2027 16.7542 16.4297 17.536 16.4297 18.5413ZM31.3381 16.7542C30.3442 16.7542 29.5712 17.536 29.5712 18.5413C29.5712 19.5465 30.3442 20.3284 31.3381 20.3284C32.332 20.3284 33.105 19.5465 33.105 18.5413C33.105 17.536 32.332 16.7542 31.3381 16.7542ZM31.3381 30.2693C30.3442 30.2693 29.5712 31.0511 29.5712 32.0564C29.5712 33.0616 30.3442 33.8435 31.3381 33.8435C32.332 33.8435 33.105 33.0616 33.105 32.0564C33.105 31.0511 32.332 30.2693 31.3381 30.2693Z" fill="black"/>
<path d="M35.0931 1.89795C33.3262 -0.335951 30.1236 -0.447646 28.2463 1.33948L28.0254 1.56287L27.5837 1.89795C25.8168 3.34999 23.1664 3.23829 21.5099 1.56287V1.45117C20.9577 0.892695 20.1847 0.445915 19.4117 0.222524C19.3012 0.222524 19.0804 0.110829 18.9699 0.110829H17.203C17.0926 0.110829 16.9821 0.110829 16.8717 0.222524H16.6508C16.5404 0.222524 16.43 0.33422 16.3196 0.33422C16.3196 0.33422 16.2091 0.33422 16.2091 0.445915C16.0987 0.445915 15.9883 0.55761 15.8778 0.55761C15.8778 0.55761 15.7674 0.55761 15.7674 0.669305C15.657 0.781 15.5465 0.781 15.4361 0.892695C15.4361 0.892695 15.3257 0.892695 15.3257 1.00439C15.2152 1.11609 15.1048 1.11609 14.9944 1.22778L14.8839 1.33948L14.6631 1.56287L14.2213 1.89795C12.4544 3.34999 9.80402 3.23829 8.25796 1.56287C8.25796 1.56287 8.14753 1.56287 8.14753 1.45117L7.92666 1.22778C7.26407 0.669305 6.49104 0.222524 5.60757 0.110829H5.16584H3.73022H3.61979C3.61979 0.222524 3.50935 0.222524 3.39892 0.33422H3.28849C2.73632 0.55761 2.18416 0.781 1.74243 1.22778L1.632 1.33948L1.3007 1.67456C0.858967 2.12134 0.638101 2.67982 0.417236 3.1266C0.417236 3.23829 0.306803 3.34999 0.306803 3.46168C0.306803 3.57338 0.19637 3.68507 0.19637 3.90846C0.0859375 4.69033 0.0859375 5.47219 0.306803 6.25406C0.306803 6.36575 0.417236 6.47745 0.417236 6.58914V6.70084C0.417236 6.81253 0.527668 6.92423 0.527668 7.03592C0.638101 7.14762 0.638101 7.25931 0.748534 7.4827C0.969399 7.5944 1.19026 7.81779 1.3007 7.92948L1.52156 8.15287L1.74243 8.37626C3.39892 10.0517 3.39892 12.9558 1.632 14.7429C1.41113 14.9663 1.07983 15.3014 0.969399 15.5247C0.858967 15.6364 0.858967 15.7481 0.748534 15.9715V16.0832C0.638101 16.1949 0.638101 16.3066 0.527668 16.4183V16.53C0.527668 16.6417 0.417236 16.7534 0.417236 16.8651V16.9768C0.417236 17.0885 0.417236 17.2002 0.306803 17.3119V18.9873C0.306803 19.099 0.306803 19.2107 0.417236 19.3224V19.4341C0.638101 20.2159 1.07983 20.9978 1.74243 21.668C3.50935 23.4551 3.50935 26.3592 1.74243 28.1463L1.632 28.258L1.41113 28.4814V28.5931C1.3007 28.7048 1.19026 28.8165 1.19026 28.9282C1.19026 28.9282 1.19026 29.0399 1.07983 29.0399C0.969399 29.1515 0.969399 29.2632 0.858967 29.3749L0.748534 29.4866C0.748534 29.5983 0.638101 29.5983 0.638101 29.71C0.638101 29.8217 0.527668 29.8217 0.527668 29.9334C0.527668 30.0451 0.527668 30.0451 0.417236 30.1568C0.19637 30.6036 0.0859375 31.1621 0.0859375 31.6088V32.5024C0.19637 32.8375 0.19637 33.1726 0.417236 33.396C0.417236 33.5077 0.527668 33.6194 0.527668 33.6194C0.527668 33.6194 0.527668 33.731 0.638101 33.731C0.638101 33.8427 0.748534 33.9544 0.748534 34.0661C0.748534 34.0661 0.748534 34.1778 0.858967 34.1778C0.969399 34.4012 1.07983 34.5129 1.19026 34.6246C1.19026 34.6246 1.19026 34.7363 1.3007 34.7363C1.3007 34.7363 1.3007 34.848 1.41113 34.848C1.41113 34.9597 1.52156 34.9597 1.52156 34.9597L1.632 35.0714C1.74243 35.1831 1.85286 35.1831 1.85286 35.2948L1.96329 35.4065C1.96329 35.4065 2.07373 35.4065 2.07373 35.5182C2.18416 35.6299 2.29459 35.7416 2.40503 35.7416C2.40503 35.7416 2.51546 35.7416 2.51546 35.8533C2.62589 35.9649 2.73632 35.9649 2.84676 36.0766H2.95719C3.06762 36.1883 3.17805 36.1883 3.39892 36.1883C3.50935 36.1883 3.73022 36.3 3.84065 36.3H3.95108C4.06152 36.3 4.17195 36.3 4.28238 36.4117H5.27628C5.60757 36.4117 5.82844 36.3 6.15974 36.3H6.27017C6.3806 36.3 6.49104 36.1883 6.60147 36.1883H6.7119C6.82233 36.1883 6.93277 36.0766 7.0432 36.0766H7.15363C7.3745 35.9649 7.7058 35.7416 7.92666 35.6299L8.25796 35.2948L8.36839 35.1831C10.1353 33.2843 13.0066 33.2843 14.7735 35.1831C16.7613 37.3053 20.0743 37.1936 21.9516 34.848C23.2768 33.1726 23.2768 30.7153 21.9516 28.9282C20.1847 26.6943 16.9821 26.5826 15.1048 28.3697L14.8839 28.5931L14.4422 28.9282C12.6753 30.3802 10.0249 30.2685 8.36839 28.5931L8.14753 28.3697L7.81623 27.9229C6.3806 26.1358 6.49104 23.4551 8.14753 21.7797C9.14142 20.8861 9.58315 19.6575 9.58315 18.4288V18.2054V18.0937C9.58315 16.9768 9.14142 15.8598 8.25796 15.078C8.25796 14.9663 8.14753 14.9663 8.14753 14.8546L7.81623 14.4078C6.3806 12.6207 6.49104 9.94 8.14753 8.26457L8.25796 8.15287L8.36839 8.04118C10.1353 6.14236 13.0066 6.14236 14.7735 8.04118L14.8839 8.15287L14.9944 8.26457L15.2152 8.48796C15.3257 8.48796 15.3257 8.59966 15.4361 8.59966C15.5465 8.59966 15.5465 8.71135 15.657 8.71135C15.7674 8.71135 15.7674 8.82305 15.8778 8.82305C15.9883 8.82305 15.9883 8.93474 16.0987 8.93474C16.2091 8.93474 16.2091 9.04644 16.3196 9.04644C16.43 9.04644 16.43 9.15813 16.5404 9.15813C16.6508 9.15813 16.6509 9.15813 16.7613 9.26983C16.8717 9.26983 16.8717 9.26982 16.9821 9.38152H18.8595C18.9699 9.38152 19.0804 9.38152 19.1908 9.26983H19.4117C19.5221 9.26983 19.6325 9.15813 19.743 9.15813H19.8534C19.9638 9.15813 20.0743 9.04644 20.2951 8.93474C20.7369 8.71135 21.1786 8.37626 21.5099 8.04118L21.6203 7.92948C23.3872 6.03067 26.2585 6.03067 28.0254 7.92948C29.9028 10.1634 33.3262 10.0517 35.0931 7.70609C36.4183 6.03067 36.4183 3.57338 35.0931 1.89795Z" fill="black"/>
<path d="M60.2706 15.749C59.608 15.0788 59.0558 14.6321 58.2828 14.297C57.6202 13.9619 56.8471 13.7385 55.8533 13.7385C54.9698 13.7385 54.0863 13.9619 53.4237 14.297C52.7611 14.6321 52.209 15.0788 51.7672 15.749C51.3255 16.3075 50.9942 16.9777 50.7733 17.7595C50.5525 18.5414 50.442 19.3233 50.442 20.1051C50.442 20.887 50.5525 21.6688 50.8838 22.4507C51.1046 23.2326 51.5464 23.7911 51.9881 24.3495C52.4298 24.908 53.0924 25.3548 53.755 25.6899C54.4176 26.025 55.1907 26.1367 56.0741 26.1367C57.068 26.1367 57.841 25.9133 58.5036 25.5782C59.1662 25.2431 59.8288 24.7963 60.381 24.1261L62.7001 26.5834C61.8166 27.5887 60.8227 28.2589 59.7184 28.7056C58.6141 29.1524 57.3993 29.3758 56.0741 29.3758C54.7489 29.3758 53.4237 29.1524 52.3194 28.7056C51.2151 28.2589 50.2212 27.5887 49.4482 26.8068C48.6751 26.025 48.0125 25.0197 47.5708 23.9028C47.1291 22.7858 46.9082 21.4455 46.9082 20.1051C46.9082 18.7648 47.1291 17.4244 47.5708 16.3075C48.0125 15.1905 48.6751 14.1853 49.4482 13.2917C50.2212 12.5099 51.2151 11.8397 52.3194 11.3929C53.4237 10.9461 54.7489 10.7227 56.0741 10.7227C57.3993 10.7227 58.6141 10.9461 59.7184 11.3929C60.9332 11.8397 61.9271 12.6215 62.8105 13.5151L60.2706 15.749ZM67.78 19.8817C67.78 20.7753 67.8904 21.6688 68.2217 22.339C68.4426 23.1209 68.8843 23.7911 69.326 24.3495C69.7678 24.908 70.4304 25.3548 71.093 25.5782C71.7556 25.9133 72.639 26.025 73.5225 26.025C74.4059 26.025 75.179 25.9133 75.952 25.5782C76.6146 25.2431 77.2772 24.7963 77.7189 24.3495C78.1607 23.7911 78.6024 23.1209 78.8233 22.339C79.0441 21.5572 79.265 20.7753 79.265 19.8817C79.265 18.9882 79.1546 18.0946 78.8233 17.4244C78.6024 16.6426 78.1607 15.9724 77.7189 15.4139C77.2772 14.8554 76.6146 14.4087 75.952 14.1853C75.2894 13.8502 74.4059 13.7385 73.5225 13.7385C72.639 13.7385 71.866 13.8502 71.093 14.1853C70.4304 14.5204 69.7678 14.9671 69.326 15.4139C68.8843 15.9724 68.4426 16.6426 68.2217 17.4244C68.0009 18.2063 67.78 18.9882 67.78 19.8817ZM64.2461 19.8817C64.2461 18.5414 64.467 17.3127 64.9087 16.1958C65.3505 15.0788 66.0131 14.0736 66.8965 13.18C67.78 12.2865 68.6634 11.6163 69.8782 11.1695C70.9825 10.7227 72.1973 10.3876 73.5225 10.3876C74.8477 10.3876 76.0624 10.611 77.1668 11.1695C78.2711 11.6163 79.265 12.2865 80.1484 13.18C81.0319 14.0736 81.5841 15.0788 82.1362 16.1958C82.578 17.3127 82.7988 18.5414 82.7988 19.8817C82.7988 21.2221 82.578 22.4507 82.1362 23.5677C81.6945 24.6846 81.0319 25.6899 80.1484 26.5834C79.265 27.477 78.3815 28.0355 77.1668 28.5939C76.0624 29.0407 74.8477 29.3758 73.5225 29.3758C72.1973 29.3758 70.9825 29.1524 69.8782 28.5939C68.7739 28.1472 67.78 27.477 66.8965 26.5834C66.0131 25.6899 65.4609 24.7963 64.9087 23.5677C64.5774 22.4507 64.2461 21.2221 64.2461 19.8817ZM86.2222 28.929H89.5352V11.0578H86.2222V28.929ZM85.4492 4.5795C85.4492 3.90933 85.6701 3.35085 86.1118 2.79238C86.5536 2.3456 87.1057 2.01051 87.7683 2.01051C88.4309 2.01051 88.9831 2.2339 89.4248 2.79238C89.8665 3.23916 90.0874 3.90933 90.0874 4.5795C90.0874 5.24967 89.8665 5.80815 89.4248 6.36662C88.9831 6.8134 88.4309 7.14849 87.7683 7.14849C87.1057 7.14849 86.5536 6.9251 86.1118 6.36662C85.6701 5.91984 85.4492 5.24967 85.4492 4.5795ZM94.1734 11.0578H97.4864V13.8502H97.5968C98.0386 12.8449 98.7011 12.0631 99.8055 11.5046C100.799 10.9461 102.014 10.611 103.45 10.611C104.333 10.611 105.106 10.7227 105.879 11.0578C106.652 11.2812 107.315 11.728 107.867 12.2865C108.419 12.8449 108.861 13.5151 109.303 14.4087C109.634 15.3022 109.855 16.3075 109.855 17.5361V29.0407H106.542V18.4297C106.542 17.6478 106.431 16.866 106.211 16.3075C105.99 15.749 105.658 15.1905 105.327 14.8554C104.996 14.5204 104.554 14.1853 104.002 14.0736C103.56 13.9619 103.008 13.8502 102.456 13.8502C101.793 13.8502 101.131 13.9619 100.579 14.1853C100.026 14.4087 99.4742 14.7438 99.0324 15.3022C98.5907 15.749 98.2594 16.4192 98.0385 17.201C97.8177 17.9829 97.7073 18.8765 97.7073 19.8817V29.1524H94.3943V11.0578H94.1734ZM122.113 26.1367C122.996 26.1367 123.769 26.025 124.542 25.6899C125.315 25.3548 125.868 24.908 126.42 24.3495C126.861 23.7911 127.303 23.1209 127.524 22.339C127.745 21.5572 127.966 20.7753 127.966 19.77C127.966 18.8765 127.855 17.9829 127.524 17.201C127.303 16.4192 126.861 15.749 126.42 15.1905C125.868 14.6321 125.315 14.1853 124.542 13.8502C123.769 13.5151 122.996 13.4034 122.113 13.4034C121.229 13.4034 120.456 13.5151 119.683 13.8502C118.91 14.1853 118.358 14.6321 117.806 15.1905C117.364 15.749 116.923 16.4192 116.702 17.201C116.481 17.9829 116.26 18.7648 116.26 19.77C116.26 20.6636 116.37 21.5572 116.702 22.339C116.923 23.1209 117.364 23.7911 117.806 24.3495C118.248 24.908 118.91 25.3548 119.683 25.6899C120.346 25.9133 121.229 26.1367 122.113 26.1367ZM131.279 28.8173H127.966V26.2483H127.855C127.193 27.2536 126.309 27.9238 125.205 28.4823C124.101 29.0407 122.886 29.2641 121.671 29.2641C120.346 29.2641 119.021 29.0407 117.916 28.5939C116.812 28.1472 115.818 27.477 115.045 26.5834C114.272 25.6899 113.61 24.6846 113.278 23.5677C112.837 22.4507 112.616 21.2221 112.616 19.8817C112.616 18.5414 112.837 17.3127 113.278 16.0841C113.72 14.9671 114.272 13.9619 115.045 13.0683C115.818 12.1748 116.812 11.5046 117.916 11.0578C119.021 10.611 120.236 10.3876 121.671 10.3876C122.886 10.3876 124.101 10.611 125.205 11.1695C126.309 11.728 127.193 12.5099 127.745 13.4034H127.855V0H131.168L131.279 28.8173ZM148.175 18.4297C148.175 17.6478 148.065 16.9777 147.844 16.3075C147.623 15.6373 147.292 15.0788 146.85 14.6321C146.408 14.1853 145.856 13.8502 145.304 13.5151C144.641 13.2917 143.979 13.0683 143.095 13.0683C142.322 13.0683 141.549 13.18 140.886 13.5151C140.224 13.8502 139.672 14.1853 139.12 14.7438C138.678 15.1905 138.236 15.749 138.015 16.4192C137.794 17.0893 137.573 17.6478 137.573 18.2063H148.175V18.4297ZM137.573 21.2221C137.573 22.0039 137.794 22.6741 138.126 23.3443C138.457 24.0144 138.899 24.5729 139.451 25.0197C140.003 25.4665 140.666 25.8016 141.328 26.025C142.101 26.2483 142.764 26.36 143.537 26.36C144.531 26.36 145.525 26.1367 146.298 25.5782C147.071 25.1314 147.733 24.4612 148.396 23.6794L150.936 25.6899C149.058 28.1472 146.408 29.3758 143.095 29.3758C141.659 29.3758 140.445 29.1524 139.34 28.7056C138.236 28.2589 137.242 27.5887 136.469 26.6951C135.696 25.8016 135.034 24.908 134.702 23.6794C134.26 22.5624 134.04 21.3338 134.04 19.9934C134.04 18.6531 134.26 17.4244 134.702 16.3075C135.144 15.1905 135.807 14.1853 136.58 13.2917C137.353 12.3982 138.346 11.8397 139.451 11.2812C140.555 10.8344 141.77 10.611 143.095 10.611C144.641 10.611 145.966 10.8344 147.071 11.3929C148.175 11.9514 149.058 12.6215 149.721 13.5151C150.384 14.4087 150.936 15.4139 151.267 16.5309C151.598 17.6478 151.709 18.7648 151.709 19.9934V21.2221H137.573ZM164.74 15.5256C164.298 15.0788 163.856 14.6321 163.304 14.297C162.752 13.9619 161.979 13.7385 161.206 13.7385C160.433 13.7385 159.77 13.9619 159.108 14.297C158.556 14.6321 158.224 15.0788 158.224 15.749C158.224 16.3075 158.445 16.7543 158.777 16.9777C159.108 17.3127 159.55 17.5361 159.991 17.7595C160.433 17.9829 160.985 18.0946 161.427 18.2063C161.979 18.318 162.421 18.4297 162.752 18.4297C163.415 18.6531 164.188 18.7648 164.74 19.0999C165.403 19.3233 165.955 19.6583 166.396 20.1051C166.838 20.5519 167.169 20.9987 167.501 21.5572C167.722 22.1156 167.942 22.7858 167.942 23.6794C167.942 24.6846 167.722 25.5782 167.28 26.2483C166.838 26.9185 166.286 27.5887 165.623 28.0355C164.961 28.4823 164.188 28.8173 163.304 29.0407C162.421 29.2641 161.537 29.3758 160.764 29.3758C159.329 29.3758 158.004 29.1524 156.899 28.7056C155.795 28.2589 154.801 27.477 153.918 26.2483L156.457 24.1261C157.01 24.6846 157.562 25.1314 158.224 25.5782C158.887 26.025 159.66 26.2483 160.654 26.2483C161.096 26.2483 161.537 26.2483 161.979 26.1367C162.421 26.025 162.752 25.9133 163.083 25.6899C163.415 25.4665 163.636 25.2431 163.856 25.0197C164.077 24.6846 164.188 24.3495 164.188 24.0144C164.188 23.5677 164.077 23.1209 163.746 22.7858C163.415 22.4507 163.083 22.2273 162.642 22.0039C162.2 21.7805 161.758 21.6688 161.316 21.5572L159.991 21.2221C159.329 20.9987 158.556 20.887 158.004 20.6636C157.341 20.4402 156.789 20.1051 156.347 19.77C155.905 19.4349 155.464 18.8765 155.132 18.318C154.801 17.7595 154.691 16.9777 154.691 16.1958C154.691 15.3022 154.911 14.4087 155.243 13.7385C155.574 13.0683 156.126 12.5099 156.789 12.0631C157.451 11.6163 158.114 11.2812 158.887 11.0578C159.66 10.8344 160.543 10.7227 161.316 10.7227C162.531 10.7227 163.636 10.9461 164.74 11.3929C165.844 11.8397 166.728 12.6215 167.39 13.6268L164.74 15.5256ZM171.145 0.44678H174.458V18.5414L181.967 10.9461H186.495L178.434 18.9882L187.268 28.5939H182.52L174.458 19.4349V28.5939H171.145V0.44678Z" fill="black"/>
</g>
<defs>
<clipPath id="clip0">
<rect width="187.184" height="36.7477" fill="white" transform="translate(0.0859375)"/>
</clipPath>
</defs>
</svg>
