<svg width="163" height="32" viewBox="0 0 163 32" fill="none" xmlns="http://www.w3.org/2000/svg">
<path d="M14.2325 16.1458C14.2325 17.0212 14.9056 17.7021 15.7711 17.7021C16.6366 17.7021 17.3098 17.0212 17.3098 16.1458C17.3098 15.2705 16.6366 14.5896 15.7711 14.5896C14.9056 14.5896 14.2325 15.2705 14.2325 16.1458ZM27.2148 14.5896C26.3493 14.5896 25.6761 15.2705 25.6761 16.1458C25.6761 17.0212 26.3493 17.7021 27.2148 17.7021C28.0803 17.7021 28.7534 17.0212 28.7534 16.1458C28.7534 15.2705 28.0803 14.5896 27.2148 14.5896ZM27.2148 26.3586C26.3493 26.3586 25.6761 27.0394 25.6761 27.9148C25.6761 28.7902 26.3493 29.4711 27.2148 29.4711C28.0803 29.4711 28.7534 28.7902 28.7534 27.9148C28.7534 27.0394 28.0803 26.3586 27.2148 26.3586Z" fill="black"/>
<path d="M30.4844 1.6535C28.9457 -0.29179 26.1569 -0.389055 24.5221 1.16718L24.3298 1.3617L23.9451 1.6535C22.4065 2.91794 20.0985 2.82067 18.656 1.3617V1.26444C18.1752 0.778118 17.5021 0.389061 16.8289 0.194532C16.7327 0.194532 16.5404 0.0972674 16.4442 0.0972674H14.9056C14.8094 0.0972674 14.7133 0.0972674 14.6171 0.194532H14.4248C14.3286 0.194532 14.2324 0.291796 14.1363 0.291796C14.1363 0.291796 14.0401 0.291796 14.0401 0.389061C13.944 0.389061 13.8478 0.486325 13.7516 0.486325C13.7516 0.486325 13.6555 0.486325 13.6555 0.58359C13.5593 0.680854 13.4631 0.680854 13.367 0.778118C13.367 0.778118 13.2708 0.778118 13.2708 0.875383C13.1746 0.972647 13.0785 0.972647 12.9823 1.06991L12.8861 1.16718L12.6938 1.3617L12.3091 1.6535C10.7705 2.91794 8.46254 2.82067 7.11622 1.3617C7.11622 1.3617 7.02006 1.3617 7.02006 1.26444L6.82773 1.06991C6.25074 0.58359 5.57758 0.194532 4.80826 0.0972674H4.4236H3.17345H3.07729C3.07729 0.194532 2.98112 0.194532 2.88496 0.291796H2.78879C2.30796 0.486325 1.82714 0.680854 1.44248 1.06991L1.34631 1.16718L1.05782 1.45897C0.673156 1.84803 0.480826 2.33435 0.288496 2.72341C0.288496 2.82067 0.19233 2.91794 0.19233 3.0152C0.19233 3.11246 0.0961652 3.20973 0.0961652 3.40426C0 4.08511 0 4.76596 0.19233 5.44681C0.19233 5.54408 0.288496 5.64134 0.288496 5.7386V5.83587C0.288496 5.93313 0.384661 6.0304 0.384661 6.12766C0.480826 6.22493 0.480826 6.32219 0.576991 6.51672C0.769321 6.61398 0.961652 6.80851 1.05782 6.90578L1.25015 7.10031L1.44248 7.29483C2.88496 8.7538 2.88496 11.2827 1.34631 12.8389C1.15398 13.0334 0.865487 13.3252 0.769321 13.5198C0.673156 13.617 0.673156 13.7143 0.576991 13.9088V14.0061C0.480826 14.1033 0.480826 14.2006 0.384661 14.2979V14.3951C0.384661 14.4924 0.288496 14.5897 0.288496 14.6869V14.7842C0.288496 14.8815 0.288496 14.9787 0.19233 15.076V16.535C0.19233 16.6322 0.19233 16.7295 0.288496 16.8267V16.924C0.480826 17.6049 0.865487 18.2857 1.44248 18.8693C2.98112 20.4255 2.98112 22.9544 1.44248 24.5106L1.34631 24.6079L1.15398 24.8024V24.8997C1.05782 24.997 0.961652 25.0942 0.961652 25.1915C0.961652 25.1915 0.961652 25.2888 0.865487 25.2888C0.769321 25.386 0.769321 25.4833 0.673156 25.5805L0.576991 25.6778C0.576991 25.7751 0.480826 25.7751 0.480826 25.8723C0.480826 25.9696 0.384661 25.9696 0.384661 26.0669C0.384661 26.1641 0.384661 26.1641 0.288496 26.2614C0.0961652 26.6505 0 27.1368 0 27.5258V28.3039C0.0961652 28.5957 0.0961652 28.8875 0.288496 29.0821C0.288496 29.1793 0.384661 29.2766 0.384661 29.2766C0.384661 29.2766 0.384661 29.3739 0.480826 29.3739C0.480826 29.4711 0.576991 29.5684 0.576991 29.6657C0.576991 29.6657 0.576991 29.7629 0.673156 29.7629C0.769321 29.9574 0.865487 30.0547 0.961652 30.152C0.961652 30.152 0.961652 30.2492 1.05782 30.2492C1.05782 30.2492 1.05782 30.3465 1.15398 30.3465C1.15398 30.4438 1.25015 30.4438 1.25015 30.4438L1.34631 30.541C1.44248 30.6383 1.53864 30.6383 1.53864 30.7356L1.63481 30.8328C1.63481 30.8328 1.73097 30.8328 1.73097 30.9301C1.82714 31.0274 1.9233 31.1246 2.01947 31.1246C2.01947 31.1246 2.11563 31.1246 2.11563 31.2219C2.2118 31.3191 2.30796 31.3191 2.40413 31.4164H2.50029C2.59646 31.5137 2.69263 31.5137 2.88496 31.5137C2.98112 31.5137 3.17345 31.6109 3.26962 31.6109H3.36578C3.46195 31.6109 3.55811 31.6109 3.65428 31.7082H4.51976C4.80826 31.7082 5.00059 31.6109 5.28908 31.6109H5.38525C5.48142 31.6109 5.57758 31.5137 5.67375 31.5137H5.76991C5.86608 31.5137 5.96224 31.4164 6.05841 31.4164H6.15457C6.3469 31.3191 6.6354 31.1246 6.82773 31.0274L7.11622 30.7356L7.21239 30.6383C8.75103 28.9848 11.2513 28.9848 12.79 30.6383C14.5209 32.4863 17.4059 32.3891 19.0407 30.3465C20.1947 28.8875 20.1947 26.7477 19.0407 25.1915C17.5021 23.2462 14.7133 23.1489 13.0785 24.7052L12.8861 24.8997L12.5015 25.1915C10.9628 26.4559 8.65487 26.3587 7.21239 24.8997L7.02006 24.7052L6.73156 24.3161C5.48142 22.7599 5.57758 20.4255 7.02006 18.9666C7.88554 18.1884 8.27021 17.1185 8.27021 16.0486V15.8541V15.7568C8.27021 14.7842 7.88554 13.8116 7.11622 13.1307C7.11622 13.0334 7.02006 13.0334 7.02006 12.9362L6.73156 12.5471C5.48142 10.9909 5.57758 8.65654 7.02006 7.19757L7.11622 7.10031L7.21239 7.00304C8.75103 5.34955 11.2513 5.34955 12.79 7.00304L12.8861 7.10031L12.9823 7.19757L13.1746 7.3921C13.2708 7.3921 13.2708 7.48936 13.367 7.48936C13.4631 7.48936 13.4631 7.58663 13.5593 7.58663C13.6555 7.58663 13.6555 7.68389 13.7516 7.68389C13.8478 7.68389 13.8478 7.78116 13.944 7.78116C14.0401 7.78116 14.0401 7.87842 14.1363 7.87842C14.2324 7.87842 14.2324 7.97569 14.3286 7.97569C14.4248 7.97569 14.4248 7.97569 14.5209 8.07295C14.6171 8.07295 14.6171 8.07295 14.7133 8.17021H16.3481C16.4442 8.17021 16.5404 8.17021 16.6366 8.07295H16.8289C16.9251 8.07295 17.0212 7.97569 17.1174 7.97569H17.2136C17.3097 7.97569 17.4059 7.87842 17.5982 7.78116C17.9829 7.58663 18.3675 7.29483 18.656 7.00304L18.7522 6.90578C20.2909 5.25228 22.7911 5.25228 24.3298 6.90578C25.9646 8.85107 28.9457 8.7538 30.4844 6.71125C31.6383 5.25228 31.6383 3.11246 30.4844 1.6535Z" fill="black"/>
<path d="M52.41 13.7143C51.833 13.1307 51.3522 12.7416 50.679 12.4498C50.102 12.1581 49.4289 11.9635 48.5634 11.9635C47.794 11.9635 47.0247 12.1581 46.4477 12.4498C45.8707 12.7416 45.3899 13.1307 45.0053 13.7143C44.6206 14.2006 44.3321 14.7842 44.1398 15.465C43.9474 16.1459 43.8513 16.8267 43.8513 17.5076C43.8513 18.1884 43.9474 18.8693 44.2359 19.5502C44.4283 20.231 44.8129 20.7173 45.1976 21.2036C45.5822 21.69 46.1592 22.079 46.7362 22.3708C47.3132 22.6626 47.9864 22.7599 48.7557 22.7599C49.6212 22.7599 50.2943 22.5653 50.8713 22.2736C51.4483 21.9818 52.0253 21.5927 52.5061 21.0091L54.5256 23.1489C53.7563 24.0243 52.8908 24.6079 51.9291 24.997C50.9675 25.386 49.9097 25.5805 48.7557 25.5805C47.6017 25.5805 46.4477 25.386 45.4861 24.997C44.5244 24.6079 43.6589 24.0243 42.9858 23.3435C42.3126 22.6626 41.7356 21.7872 41.351 20.8146C40.9663 19.8419 40.774 18.6748 40.774 17.5076C40.774 16.3404 40.9663 15.1733 41.351 14.2006C41.7356 13.228 42.3126 12.3526 42.9858 11.5745C43.6589 10.8936 44.5244 10.31 45.4861 9.92097C46.4477 9.53191 47.6017 9.33739 48.7557 9.33739C49.9097 9.33739 50.9675 9.53191 51.9291 9.92097C52.987 10.31 53.8524 10.9909 54.6218 11.769L52.41 13.7143ZM58.9492 17.3131C58.9492 18.0912 59.0454 18.8693 59.3339 19.4529C59.5262 20.1337 59.9109 20.7173 60.2955 21.2036C60.6802 21.69 61.2572 22.079 61.8342 22.2736C62.4111 22.5653 63.1805 22.6626 63.9498 22.6626C64.7191 22.6626 65.3923 22.5653 66.0654 22.2736C66.6424 21.9818 67.2194 21.5927 67.6041 21.2036C67.9887 20.7173 68.3734 20.1337 68.5657 19.4529C68.7581 18.772 68.9504 18.0912 68.9504 17.3131C68.9504 16.535 68.8542 15.7568 68.5657 15.1733C68.3734 14.4924 67.9887 13.9088 67.6041 13.4225C67.2194 12.9362 66.6424 12.5471 66.0654 12.3526C65.4884 12.0608 64.7191 11.9635 63.9498 11.9635C63.1805 11.9635 62.5073 12.0608 61.8342 12.3526C61.2572 12.6444 60.6802 13.0334 60.2955 13.4225C59.9109 13.9088 59.5262 14.4924 59.3339 15.1733C59.1415 15.8541 58.9492 16.535 58.9492 17.3131ZM55.8719 17.3131C55.8719 16.1459 56.0642 15.076 56.4489 14.1033C56.8336 13.1307 57.4106 12.2553 58.1799 11.4772C58.9492 10.6991 59.7185 10.1155 60.7763 9.72644C61.738 9.33739 62.7958 9.04559 63.9498 9.04559C65.1038 9.04559 66.1616 9.24012 67.1232 9.72644C68.0849 10.1155 68.9504 10.6991 69.7197 11.4772C70.489 12.2553 70.9698 13.1307 71.4507 14.1033C71.8353 15.076 72.0277 16.1459 72.0277 17.3131C72.0277 18.4802 71.8353 19.5502 71.4507 20.5228C71.066 21.4954 70.489 22.3708 69.7197 23.1489C68.9504 23.9271 68.1811 24.4134 67.1232 24.8997C66.1616 25.2888 65.1038 25.5805 63.9498 25.5805C62.7958 25.5805 61.738 25.386 60.7763 24.8997C59.8147 24.5106 58.9492 23.9271 58.1799 23.1489C57.4106 22.3708 56.9297 21.5927 56.4489 20.5228C56.1604 19.5502 55.8719 18.4802 55.8719 17.3131ZM75.0088 25.1915H77.8937V9.62918H75.0088V25.1915ZM74.3356 3.98784C74.3356 3.40426 74.528 2.91793 74.9126 2.43161C75.2973 2.04255 75.7781 1.75076 76.3551 1.75076C76.9321 1.75076 77.4129 1.94529 77.7976 2.43161C78.1822 2.82067 78.3746 3.40426 78.3746 3.98784C78.3746 4.57143 78.1822 5.05775 77.7976 5.54407C77.4129 5.93313 76.9321 6.22492 76.3551 6.22492C75.7781 6.22492 75.2973 6.0304 74.9126 5.54407C74.528 5.15501 74.3356 4.57143 74.3356 3.98784ZM81.9327 9.62918H84.8176V12.0608H84.9138C85.2985 11.1854 85.8755 10.5046 86.8371 10.0182C87.7026 9.53192 88.7604 9.24012 90.0105 9.24012C90.7799 9.24012 91.453 9.33739 92.1262 9.62918C92.7993 9.82371 93.3763 10.2128 93.8572 10.6991C94.338 11.1854 94.7226 11.769 95.1073 12.5471C95.3958 13.3252 95.5881 14.2006 95.5881 15.2705V25.2888H92.7032V16.0486C92.7032 15.3678 92.607 14.6869 92.4147 14.2006C92.2223 13.7143 91.9339 13.228 91.6454 12.9362C91.3569 12.6444 90.9722 12.3526 90.4914 12.2553C90.1067 12.1581 89.6259 12.0608 89.1451 12.0608C88.5681 12.0608 87.9911 12.1581 87.5103 12.3526C87.0294 12.5471 86.5486 12.8389 86.1639 13.3252C85.7793 13.7143 85.4908 14.2979 85.2985 14.9787C85.1061 15.6596 85.01 16.4377 85.01 17.3131V25.386H82.125V9.62918H81.9327ZM106.262 22.7599C107.032 22.7599 107.705 22.6626 108.378 22.3708C109.051 22.079 109.532 21.69 110.013 21.2036C110.398 20.7173 110.782 20.1337 110.975 19.4529C111.167 18.772 111.359 18.0912 111.359 17.2158C111.359 16.4377 111.263 15.6596 110.975 14.9787C110.782 14.2979 110.398 13.7143 110.013 13.228C109.532 12.7416 109.051 12.3526 108.378 12.0608C107.705 11.769 107.032 11.6717 106.262 11.6717C105.493 11.6717 104.82 11.769 104.147 12.0608C103.474 12.3526 102.993 12.7416 102.512 13.228C102.127 13.7143 101.743 14.2979 101.55 14.9787C101.358 15.6596 101.166 16.3404 101.166 17.2158C101.166 17.9939 101.262 18.772 101.55 19.4529C101.743 20.1337 102.127 20.7173 102.512 21.2036C102.897 21.69 103.474 22.079 104.147 22.3708C104.724 22.5653 105.493 22.7599 106.262 22.7599ZM114.244 25.0942H111.359V22.8571H111.263C110.686 23.7325 109.917 24.3161 108.955 24.8024C107.993 25.2888 106.936 25.4833 105.878 25.4833C104.724 25.4833 103.57 25.2888 102.608 24.8997C101.647 24.5106 100.781 23.9271 100.108 23.1489C99.4347 22.3708 98.8577 21.4954 98.5692 20.5228C98.1846 19.5502 97.9923 18.4802 97.9923 17.3131C97.9923 16.1459 98.1846 15.076 98.5692 14.0061C98.9539 13.0334 99.4347 12.1581 100.108 11.3799C100.781 10.6018 101.647 10.0182 102.608 9.62918C103.57 9.24012 104.628 9.04559 105.878 9.04559C106.936 9.04559 107.993 9.24012 108.955 9.72644C109.917 10.2128 110.686 10.8936 111.167 11.6717H111.263V0H114.148L114.244 25.0942ZM128.957 16.0486C128.957 15.3678 128.861 14.7842 128.669 14.2006C128.477 13.617 128.188 13.1307 127.803 12.7416C127.419 12.3526 126.938 12.0608 126.457 11.769C125.88 11.5745 125.303 11.3799 124.534 11.3799C123.861 11.3799 123.188 11.4772 122.611 11.769C122.034 12.0608 121.553 12.3526 121.072 12.8389C120.687 13.228 120.303 13.7143 120.11 14.2979C119.918 14.8815 119.726 15.3678 119.726 15.8541H128.957V16.0486ZM119.726 18.4802C119.726 19.1611 119.918 19.7447 120.206 20.3283C120.495 20.9119 120.88 21.3982 121.36 21.7872C121.841 22.1763 122.418 22.4681 122.995 22.6626C123.668 22.8571 124.245 22.9544 124.918 22.9544C125.784 22.9544 126.649 22.7599 127.323 22.2736C127.996 21.8845 128.573 21.3009 129.15 20.6201L131.362 22.3708C129.727 24.5106 127.419 25.5805 124.534 25.5805C123.284 25.5805 122.226 25.386 121.264 24.997C120.303 24.6079 119.437 24.0243 118.764 23.2462C118.091 22.4681 117.514 21.69 117.225 20.6201C116.841 19.6474 116.648 18.5775 116.648 17.4103C116.648 16.2432 116.841 15.1733 117.225 14.2006C117.61 13.228 118.187 12.3526 118.86 11.5745C119.533 10.7964 120.399 10.31 121.36 9.82371C122.322 9.43465 123.38 9.24012 124.534 9.24012C125.88 9.24012 127.034 9.43465 127.996 9.92097C128.957 10.4073 129.727 10.9909 130.304 11.769C130.881 12.5471 131.362 13.4225 131.65 14.3951C131.939 15.3678 132.035 16.3404 132.035 17.4103V18.4802H119.726ZM143.382 13.5198C142.998 13.1307 142.613 12.7416 142.132 12.4498C141.651 12.1581 140.978 11.9635 140.305 11.9635C139.632 11.9635 139.055 12.1581 138.478 12.4498C137.997 12.7416 137.708 13.1307 137.708 13.7143C137.708 14.2006 137.901 14.5897 138.189 14.7842C138.478 15.076 138.862 15.2705 139.247 15.465C139.632 15.6596 140.113 15.7568 140.497 15.8541C140.978 15.9514 141.363 16.0486 141.651 16.0486C142.228 16.2432 142.901 16.3404 143.382 16.6322C143.959 16.8267 144.44 17.1185 144.825 17.5076C145.209 17.8967 145.498 18.2857 145.786 18.772C145.979 19.2584 146.171 19.8419 146.171 20.6201C146.171 21.4954 145.979 22.2736 145.594 22.8571C145.209 23.4407 144.729 24.0243 144.152 24.4134C143.575 24.8024 142.901 25.0942 142.132 25.2888C141.363 25.4833 140.593 25.5805 139.92 25.5805C138.67 25.5805 137.516 25.386 136.554 24.997C135.593 24.6079 134.727 23.9271 133.958 22.8571L136.17 21.0091C136.651 21.4954 137.131 21.8845 137.708 22.2736C138.285 22.6626 138.959 22.8571 139.824 22.8571C140.209 22.8571 140.593 22.8571 140.978 22.7599C141.363 22.6626 141.651 22.5653 141.94 22.3708C142.228 22.1763 142.421 21.9818 142.613 21.7872C142.805 21.4954 142.901 21.2036 142.901 20.9119C142.901 20.5228 142.805 20.1337 142.517 19.8419C142.228 19.5502 141.94 19.3556 141.555 19.1611C141.17 18.9666 140.786 18.8693 140.401 18.772L139.247 18.4802C138.67 18.2857 137.997 18.1884 137.516 17.9939C136.939 17.7994 136.458 17.5076 136.074 17.2158C135.689 16.924 135.304 16.4377 135.016 15.9514C134.727 15.465 134.631 14.7842 134.631 14.1033C134.631 13.3252 134.824 12.5471 135.112 11.9635C135.401 11.3799 135.881 10.8936 136.458 10.5046C137.035 10.1155 137.612 9.82371 138.285 9.62918C138.959 9.43465 139.728 9.33739 140.401 9.33739C141.459 9.33739 142.421 9.53191 143.382 9.92097C144.344 10.31 145.113 10.9909 145.69 11.8663L143.382 13.5198ZM148.96 0.389058H151.845V16.1459L158.384 9.53192H162.327L155.307 16.535L163 24.8997H158.865L151.845 16.924V24.8997H148.96V0.389058Z" fill="black"/>
</svg>
