<svg width="180" height="48" viewBox="0 0 180 48" fill="none" xmlns="http://www.w3.org/2000/svg">
<g clip-path="url(#clip0)">
<mask id="mask0" mask-type="alpha" maskUnits="userSpaceOnUse" x="0" y="0" width="53" height="47">
<path d="M0.144531 0.412109H52.3086V46.9824H0.144531V0.412109Z" fill="white"/>
</mask>
<g mask="url(#mask0)">
<path fill-rule="evenodd" clip-rule="evenodd" d="M4.98008 10.3658C5.41835 10.1146 5.97988 10.2635 6.23352 10.698C6.48633 11.1334 6.33633 11.6893 5.89725 11.9399C5.45844 12.1905 4.89744 12.0417 4.64354 11.6077C4.39099 11.1723 4.54072 10.6165 4.98008 10.3658ZM3.73155 36.5939C3.21119 36.892 2.54574 36.7154 2.24493 36.1998C1.94439 35.6845 2.12275 35.0257 2.64393 34.7275C3.16428 34.4307 3.82946 34.6068 4.13 35.1221C4.43027 35.6375 4.25136 36.297 3.73155 36.5939ZM16.5771 44.5126L18.3845 44.6044C18.4262 44.3338 18.5301 44.0737 18.6918 43.8474L13.2886 39.2089C13.2417 39.248 13.1904 39.2842 13.1356 39.315C12.8847 39.459 12.6003 39.4922 12.3387 39.4292L11.2936 41.9019C11.5756 42.0515 11.8189 42.2779 11.9904 42.5723C12.4827 43.4158 12.1906 44.4945 11.3389 44.9815C10.4866 45.469 9.39739 45.1797 8.90594 44.3362C8.41476 43.4922 8.70603 42.4135 9.55829 41.927C10.0042 41.6718 10.515 41.6302 10.9715 41.7685L12.0155 39.2964C11.8691 39.2062 11.7417 39.0792 11.649 38.9209C11.3493 38.4053 11.5271 37.7461 12.0474 37.449C12.5683 37.151 13.2332 37.3277 13.5341 37.843C13.7413 38.1976 13.7212 38.6217 13.5182 38.9477L18.9204 43.5856C19.0196 43.4927 19.132 43.4095 19.2555 43.3388C20.1073 42.8518 21.1965 43.1411 21.6877 43.9846C22.1797 44.8275 21.8879 45.9068 21.0362 46.3943C20.1844 46.8805 19.0946 46.5915 18.6035 45.7485C18.4565 45.4963 18.3793 45.2221 18.3659 44.9488L16.5591 44.858C16.4958 45.1451 16.3161 45.4044 16.0393 45.5638C15.5189 45.8603 14.8535 45.6842 14.5532 45.1692C14.2527 44.6533 14.4311 43.994 14.9511 43.6969C15.4715 43.3995 16.1372 43.5762 16.4383 44.091C16.516 44.2244 16.5613 44.3686 16.5771 44.5126ZM17.6421 7.85642L15.7969 11.1934C15.9534 11.3055 16.0887 11.451 16.1915 11.6271C16.5809 12.294 16.3502 13.1475 15.6766 13.5321C15.0038 13.9169 14.142 13.6882 13.7536 13.0219C13.3652 12.3545 13.5954 11.5021 14.2693 11.1164L14.3192 11.0886L12.2146 5.51583C11.625 5.65628 10.9879 5.40348 10.6688 4.85655C10.2802 4.1897 10.5106 3.33676 11.1845 2.95161C11.8574 2.56647 12.7186 2.7955 13.1075 3.46208C13.4964 4.12893 13.2657 4.98133 12.5918 5.36648L12.5413 5.39456L14.6468 10.9673C14.9312 10.9003 15.2263 10.9238 15.4911 11.0278L17.3353 7.69032C17.2276 7.6074 17.1348 7.50288 17.0626 7.37891C16.7615 6.86358 16.9404 6.20429 17.4605 5.90773C17.9808 5.60983 18.6465 5.78646 18.9471 6.30125C19.2474 6.81712 19.069 7.47614 18.5486 7.77405C18.2626 7.93772 17.9312 7.95717 17.6421 7.85642ZM14.1583 34.2633C13.7893 34.2724 13.434 34.2724 13.0953 34.263C10.9045 34.2022 9.48848 33.813 9.23075 33.0827L9.21466 33.0379C8.98776 32.1844 10.05 30.9109 12.0194 29.4641C12.1658 30.3629 12.4252 31.2285 12.7923 32.0448C13.1479 32.8364 13.6055 33.5802 14.1583 34.2633ZM18.0182 35.5689C19.5959 35.3501 21.3067 35.0263 23.1045 34.5968C24.8453 34.1812 26.6573 33.672 28.4976 33.0727C29.8454 32.6333 33.0851 31.5024 36.3941 29.9551C36.0275 30.9722 35.5279 31.8832 34.911 32.6851C34.3388 32.4483 33.6657 32.4699 33.0892 32.7997C32.2519 33.2785 31.8824 34.2527 32.1412 35.1327C30.69 36.007 28.9612 36.5928 27.0115 36.882C26.9892 36.8356 26.9641 36.7897 26.9382 36.7443C26.3128 35.6718 24.9279 35.3042 23.8449 35.9235C23.3922 36.182 23.0647 36.5717 22.8814 37.0165C21.0059 36.8423 19.3736 36.333 18.0182 35.5689ZM32.3051 15.2839C32.2306 15.7692 32.3157 16.2824 32.5822 16.741C33.2075 17.8132 34.5924 18.1811 35.676 17.5618C36.7581 16.9425 37.1301 15.5712 36.5048 14.4979C35.8794 13.4265 34.4945 13.0594 33.411 13.6782C33.2695 13.7592 33.1383 13.8543 33.021 13.9593C30.7178 12.9338 28.3242 12.573 25.9692 12.8377C25.5192 12.8884 25.0706 12.9616 24.6247 13.0578C23.9846 12.0296 22.63 11.6868 21.5661 12.2951C20.7119 12.7828 20.3006 13.7408 20.4727 14.6497C19.3706 15.2695 18.3051 16.0382 17.2941 16.9498C16.2918 17.8519 15.4374 18.7945 14.7226 19.7582C14.2058 19.6444 13.6453 19.7144 13.1501 19.9972C12.3693 20.4439 11.9703 21.296 12.0693 22.1311L8.92776 23.0152L8.87703 22.9176C8.72949 22.6648 8.49876 22.4887 8.23995 22.4026L9.11675 17.3749C9.37666 17.387 9.64366 17.3284 9.88584 17.1899C10.5597 16.8053 10.7899 15.9518 10.4016 15.2849C10.0127 14.6186 9.15139 14.3896 8.47858 14.7742C7.80468 15.1599 7.57423 16.0123 7.96313 16.6797C8.14831 16.9978 8.4434 17.2166 8.77203 17.3157L7.89577 22.3437C7.69123 22.3388 7.48314 22.3885 7.29332 22.4977C7.10432 22.6046 6.95787 22.7583 6.85887 22.9344L3.45555 21.6858C3.56164 21.2779 3.51201 20.8328 3.28346 20.4404C2.81901 19.6439 1.79003 19.3706 0.985764 19.8305C0.181229 20.2905 -0.0944953 21.3098 0.370499 22.1063C0.834402 22.9028 1.86339 23.1761 2.66765 22.7156C2.96656 22.5447 3.19292 22.2967 3.33528 22.0112L6.73669 23.2599C6.68133 23.5264 6.72087 23.8122 6.86842 24.0655C7.1886 24.6152 7.89795 24.8029 8.4524 24.4863C8.86912 24.2478 9.07994 23.7927 9.02348 23.3479L12.138 22.4712C12.186 22.6395 12.2558 22.8042 12.3485 22.963C12.447 23.1329 12.5656 23.2842 12.699 23.416C12.4145 24.1673 12.2067 24.9185 12.0714 25.6618C11.9569 26.2938 11.895 26.9209 11.8844 27.5375C8.82685 29.6266 7.18041 31.7339 7.62795 33.4184C7.64759 33.49 7.66477 33.5486 7.68059 33.5934C8.19795 35.0584 10.1697 35.816 13.0898 35.897C13.8889 35.9186 14.7698 35.8941 15.718 35.8206C16.1478 36.1677 16.6104 36.4885 17.1062 36.7786C18.6918 37.7066 20.608 38.3211 22.8089 38.5163C22.859 38.6776 22.9278 38.8353 23.0161 38.9868C23.6415 40.0588 25.0258 40.4264 26.1094 39.8071C26.6739 39.4849 27.0451 38.9561 27.182 38.3732C29.418 38.0477 31.407 37.3598 33.0764 36.3219C33.6933 36.68 34.4817 36.7078 35.1453 36.3286C35.5715 36.0856 35.8751 35.7147 36.0371 35.2937L40.2463 36.5339C40.1939 36.8423 40.2452 37.1689 40.4145 37.4606C40.8043 38.1269 41.6653 38.3554 42.3383 37.9708L42.3471 37.9656L44.6906 40.9898C44.6066 41.0835 44.5447 41.1935 44.5065 41.3104L37.2526 40.4194C37.2526 40.1825 37.1918 39.9432 37.063 39.7236C36.6741 39.0571 35.8134 38.8286 35.1401 39.2137C34.518 39.5686 34.2739 40.323 34.5466 40.9617L28.0195 44.6876C27.6893 44.2841 27.1015 44.1669 26.6324 44.4351C26.1118 44.733 25.934 45.392 26.234 45.9068C26.5348 46.4227 27.2003 46.5988 27.7212 46.3025C28.1889 46.0335 28.3806 45.4719 28.1941 44.9869L34.7203 41.2615C34.8065 41.3744 34.9077 41.4708 35.0195 41.5511L33.1745 44.8885C32.8846 44.7873 32.5544 44.8075 32.268 44.9709C31.7479 45.2686 31.569 45.9279 31.8696 46.4437C32.1698 46.9585 32.8347 47.136 33.3556 46.8372C33.8765 46.5407 34.0544 45.8814 33.7541 45.3655C33.6826 45.2421 33.5888 45.1376 33.4814 45.0552L35.3263 41.7177C35.7122 41.8687 36.1606 41.8495 36.5484 41.6286C36.8904 41.4322 37.1184 41.1154 37.2079 40.7635L44.4626 41.6545C44.4724 41.7885 44.5117 41.9224 44.5831 42.0469C44.8368 42.481 45.398 42.6303 45.8371 42.3792C46.2759 42.1288 46.4262 41.5727 46.1726 41.1376C45.9285 40.7197 45.3991 40.5647 44.9688 40.7789L42.6239 37.7555C43.0692 37.3199 43.18 36.6271 42.8541 36.0658C42.6953 35.7936 42.4589 35.5953 42.1883 35.4808L43.375 31.3868C43.6191 31.4173 43.8746 31.3736 44.1037 31.2429C44.3401 31.1073 44.5106 30.9009 44.6033 30.6673L47.3188 31.2755C47.2785 31.6204 47.3445 31.9813 47.5329 32.3048C47.9974 33.1013 49.0266 33.3744 49.8309 32.9144C50.6352 32.4545 50.9111 31.436 50.4467 30.6389C49.9822 29.8422 48.953 29.5691 48.1487 30.0296C47.7803 30.24 47.5223 30.5676 47.3965 30.9379L44.68 30.3297C44.696 30.1088 44.648 29.8803 44.5278 29.6734C44.2081 29.1243 43.4985 28.936 42.9435 29.2537C42.3896 29.5705 42.199 30.2732 42.5194 30.8218C42.6443 31.036 42.8284 31.1953 43.0384 31.2909L41.8515 35.3855C41.5447 35.3374 41.2199 35.3895 40.93 35.5554C40.6605 35.7099 40.4626 35.94 40.3453 36.2025L36.135 34.9604C36.2149 34.5598 36.1745 34.1342 35.9986 33.7406C37.048 32.4283 37.8119 30.8599 38.2401 29.0473C42.5292 26.8264 46.3485 23.9764 45.5876 21.1113C45.5685 21.0397 45.5505 20.9811 45.5355 20.9363C45.1286 19.783 43.8192 19.0683 41.8559 18.7766C41.809 18.6578 41.7493 18.5417 41.677 18.4304C41.1026 17.5486 39.6539 17.45 39.0531 17.8276C37.1961 18.9933 38.4128 22.1684 41.1345 21.0211C41.7536 20.7599 41.599 20.6403 41.743 20.3912C43.0011 20.5671 43.798 20.9171 43.9853 21.4467L44.0014 21.4921C44.4468 23.1696 41.8303 25.1691 38.566 26.9457C38.6225 25.7636 38.3489 24.9174 37.8267 24.3424C37.8599 23.9499 37.7768 23.5437 37.5627 23.1772C37.0066 22.2216 35.7728 21.8943 34.8076 22.4461C34.4231 22.6654 34.1397 22.9919 33.9725 23.366C33.0327 23.4508 32.0016 23.6609 30.933 23.9542C27.9745 24.7664 24.7185 26.243 22.5645 27.2939C21.9326 26.7467 20.9958 26.6292 20.2281 27.0681C19.2634 27.6188 18.9332 28.8415 19.4898 29.7968C20.047 30.7518 21.2808 31.0786 22.2449 30.5274C22.9436 30.1282 23.3101 29.3771 23.2469 28.63C25.3493 27.6045 28.5063 26.1733 31.3348 25.3963C32.2593 25.1432 33.1467 24.9611 33.9352 24.8979C33.9725 24.9922 34.0173 25.084 34.0694 25.1748C34.6265 26.1295 35.8603 26.4566 36.8255 25.9054L36.8372 25.8992C37.0194 26.2646 37.0865 26.741 37.0096 27.346C36.9916 27.4943 36.9703 27.6415 36.9469 27.786C33.168 29.6599 29.0731 31.1521 27.9448 31.5197C26.1216 32.1142 24.3541 32.6122 22.6815 33.0111C20.2772 33.5851 18.043 33.9659 16.0936 34.1469C15.27 33.3566 14.6244 32.4399 14.1717 31.4354C13.761 30.5228 13.5076 29.5348 13.4239 28.5017C18.1284 25.4659 23.3581 23.2963 28.781 21.8114C29.399 22.4823 30.5987 22.5347 31.2025 22.1557C31.8077 21.776 31.9067 21.4738 32.01 21.0176C32.1284 20.5009 32.0144 19.9783 31.7204 19.5272L31.7182 19.5251V19.524L31.7171 19.5224L31.7149 19.5205L31.7138 19.5183L31.7119 19.5162L31.7108 19.5135L31.7097 19.5113L31.698 19.4956L31.6958 19.4935L31.6947 19.4908L31.6926 19.4886L31.6915 19.4867L31.6896 19.484L31.6874 19.4819L31.6863 19.4791L31.6661 19.4532L31.665 19.4508L31.6639 19.4486L31.6617 19.4459L31.6607 19.4448V19.4438L31.6416 19.4195C31.0364 18.6551 29.9466 18.4442 29.1219 18.9617C28.6501 19.2577 28.3623 19.7303 28.2879 20.2424C23.0789 21.6663 18.0485 23.7131 13.4675 26.5209C13.4921 26.3232 13.5218 26.126 13.5575 25.9264C13.6704 25.3042 13.8425 24.6738 14.0754 24.0423C14.5025 24.0755 14.9435 23.9858 15.3425 23.7574C16.3914 23.158 16.7503 21.8303 16.1451 20.7918C16.0998 20.714 16.0505 20.6392 15.997 20.57C16.6423 19.7114 17.4119 18.8693 18.3133 18.0585C19.2449 17.2182 20.224 16.5136 21.2333 15.9464C21.9416 16.5419 22.9804 16.6648 23.8305 16.1781C24.4665 15.8146 24.857 15.192 24.9448 14.5233C25.3395 14.4382 25.7374 14.3729 26.1358 14.328C28.1908 14.0968 30.2831 14.4045 32.3051 15.2839ZM39.2926 12.2959L39.3065 12.2875L37.8831 8.77229C37.4315 8.87196 36.948 8.67614 36.7028 8.25886C36.6401 8.1492 36.5975 8.03414 36.5762 7.91719L32.448 8.01145C32.4044 8.57216 32.0899 9.10342 31.5617 9.40619C30.7105 9.89316 29.6207 9.60417 29.1284 8.76068C28.9749 8.4968 28.8971 8.20997 28.8909 7.92557L24.6983 7.62577C24.6317 7.9045 24.4542 8.15595 24.1848 8.30963C23.6638 8.60754 22.9984 8.4309 22.6976 7.91557C22.3976 7.40024 22.5757 6.74123 23.096 6.44332C23.3639 6.28964 23.6718 6.26236 23.9478 6.34285L25.577 2.97943C25.394 2.86356 25.2353 2.70313 25.1186 2.50381C24.7307 1.83696 24.962 0.984557 25.6346 0.59887C26.3079 0.214264 27.1692 0.442759 27.5581 1.10907C27.947 1.77619 27.7157 2.62913 27.0424 3.01373C26.6791 3.22224 26.2605 3.25006 25.8915 3.12825L24.2625 6.49221C24.3898 6.58025 24.4995 6.69639 24.5821 6.83765C24.6642 6.97809 24.71 7.12853 24.7242 7.28032L28.9165 7.58012C29.0027 7.08208 29.3041 6.62374 29.7805 6.35095C30.3696 6.01496 31.0716 6.04872 31.6116 6.38093L34.3304 2.87518C34.275 2.81549 34.224 2.74905 34.1801 2.67504C33.8809 2.16025 34.0587 1.50097 34.5785 1.20333C35.0994 0.905421 35.7654 1.0826 36.0657 1.59847C36.3662 2.11326 36.1884 2.77281 35.6672 3.07018C35.3285 3.26329 34.929 3.25654 34.6074 3.08612L31.8897 6.59187C32.0144 6.70747 32.124 6.84305 32.2135 6.99646C32.3373 7.20956 32.4117 7.43644 32.4396 7.66547L36.5675 7.57202C36.6122 7.25358 36.7999 6.95919 37.1012 6.7866C37.6221 6.48896 38.2881 6.66587 38.5876 7.1812C38.8846 7.69086 38.7141 8.34069 38.2071 8.64292L39.6305 12.1589C39.8797 12.096 40.1364 12.1055 40.3739 12.1805L42.2683 8.17513C42.1382 8.08735 42.0242 7.96932 41.9399 7.82428C41.6407 7.30841 41.8174 6.64886 42.3383 6.35257C42.8595 6.05439 43.5241 6.23157 43.8247 6.74609C44.125 7.26196 43.9471 7.9207 43.4273 8.21888C43.1609 8.37013 42.8584 8.39822 42.5846 8.32179L40.6903 12.3267C40.8673 12.4379 41.0205 12.5924 41.1326 12.7845C41.1645 12.8382 41.191 12.8947 41.2144 12.9511L48.4332 11.0902C48.3958 10.684 48.593 10.274 48.9734 10.0563C49.4943 9.7592 50.159 9.93584 50.4606 10.4506C50.7598 10.9662 50.582 11.625 50.0611 11.9231C49.9885 11.9647 49.9119 11.9974 49.8342 12.0212L50.8866 19.7303C51.3767 19.726 51.8561 19.9767 52.1193 20.4277C52.509 21.0945 52.278 21.9469 51.6047 22.3326C50.9313 22.717 50.0695 22.4887 49.6817 21.8219C49.3569 21.2663 49.4633 20.5811 49.898 20.1455L46.3951 15.7449L46.3717 15.7587C45.6986 16.1444 44.8368 15.9159 44.4479 15.2485C44.059 14.5822 44.2902 13.7287 44.9633 13.3441C45.6367 12.9587 46.4985 13.1874 46.8874 13.8543C47.2114 14.4104 47.1047 15.0961 46.67 15.5307L50.1729 19.9313L50.1963 19.9175C50.306 19.8543 50.4232 19.8078 50.5405 19.7768L49.4878 12.0671C49.1224 12.0566 48.7708 11.8651 48.575 11.5285C48.5556 11.4948 48.5376 11.4605 48.5215 11.4251L41.3031 13.2857C41.3691 13.8022 41.1228 14.3307 40.6393 14.6076C39.9948 14.9752 39.1712 14.7575 38.7995 14.119C38.4267 13.4808 38.6481 12.6643 39.2926 12.2959Z" fill="black"/>
</g>
<mask id="mask1" mask-type="alpha" maskUnits="userSpaceOnUse" x="66" y="8" width="114" height="34">
<path d="M66.1655 8.3894H179.901V41.2431H66.1655V8.3894Z" fill="white"/>
</mask>
<g mask="url(#mask1)">
<path fill-rule="evenodd" clip-rule="evenodd" d="M172.997 19.1314L179.901 8.68715H176.4L171.483 16.3785L166.617 8.68715H163.016L169.918 19.2059V26.0528H172.997V19.1314ZM160.381 26.0528L154.075 17.1717L160.132 8.68715H156.632L152.287 14.9142L147.967 8.68715H144.366L150.449 17.2217L144.118 26.0528H147.619L152.212 19.478L156.781 26.0528H160.381ZM135.499 19.1558H129.515L132.495 12.2101L135.499 19.1558ZM133.959 8.56269H131.129L123.482 26.0528H126.611L128.397 21.8612H136.617L138.379 26.0528H141.607L133.959 8.56269ZM108.407 26.0528H120.598V23.2742H111.461V8.68715H108.407V26.0528ZM98.1245 19.1558H92.1402L95.1195 12.2101L98.1245 19.1558ZM96.5845 8.56269H93.7535L86.1071 26.0528H89.2354L91.0227 21.8612H99.2419L101.004 26.0528H104.232L96.5845 8.56269ZM173.643 41.1112H179.002V39.8917H174.986V33.4809H173.643V41.1112ZM158.497 38.0826H155.868L157.176 35.0289L158.497 38.0826ZM157.82 33.4264H156.577L153.217 41.1112H154.59L155.376 39.2703H158.989L159.762 41.1112H161.182L157.82 33.4264ZM139.858 34.7231H142.28V33.4809H136.083V34.7231H138.506V41.1112H139.858V34.7231ZM122.093 41.1112H123.433V33.4809H122.093V41.1112ZM109.117 40.0554V36.8502H105.866V38.0156H107.818V39.4465C107.585 39.6183 107.312 39.7598 106.996 39.8643C106.679 39.9709 106.338 40.0206 105.974 40.0206C105.582 40.0206 105.226 39.9536 104.911 39.8145C104.595 39.6779 104.321 39.4864 104.091 39.2429C103.863 38.9996 103.689 38.7087 103.563 38.3758C103.439 38.043 103.378 37.68 103.378 37.2876C103.378 36.9148 103.442 36.567 103.568 36.2389C103.696 35.9135 103.871 35.6253 104.091 35.379C104.314 35.1307 104.577 34.9369 104.877 34.7952C105.179 34.6537 105.505 34.5817 105.855 34.5817C106.096 34.5817 106.315 34.6016 106.515 34.6439C106.713 34.6835 106.899 34.7356 107.065 34.8053C107.233 34.875 107.393 34.9592 107.544 35.0614C107.698 35.1632 107.846 35.2748 107.993 35.3993L108.845 34.3879C108.647 34.219 108.446 34.0722 108.239 33.9457C108.031 33.8189 107.812 33.7096 107.579 33.6227C107.346 33.5357 107.093 33.4684 106.821 33.4211C106.547 33.374 106.244 33.3493 105.909 33.3493C105.335 33.3493 104.805 33.4559 104.321 33.6673C103.836 33.8784 103.421 34.1616 103.072 34.5218C102.724 34.8821 102.453 35.3022 102.26 35.7819C102.067 36.2613 101.97 36.7707 101.97 37.3072C101.97 37.8664 102.065 38.3883 102.254 38.8677C102.443 39.345 102.71 39.7621 103.057 40.1153C103.4 40.4654 103.818 40.7438 104.305 40.9424C104.793 41.144 105.335 41.2431 105.93 41.2431C106.265 41.2431 106.584 41.2133 106.89 41.1511C107.196 41.0889 107.482 41.0019 107.747 40.8954C108.013 40.7861 108.26 40.6569 108.49 40.5128C108.718 40.3684 108.927 40.2144 109.117 40.0554ZM87.772 41.1112H89.115V33.4809H87.772V41.1112ZM73.508 37.3072C73.508 37.6848 73.446 38.0328 73.3179 38.3485C73.1895 38.6641 73.0119 38.9374 72.783 39.1658C72.5533 39.3947 72.2758 39.5734 71.9486 39.7002C71.6206 39.8271 71.2576 39.8917 70.8583 39.8917H69.3525V34.7035H70.8583C71.2576 34.7035 71.6206 34.7681 71.9486 34.8997C72.2758 35.0289 72.5533 35.2102 72.783 35.4437C73.0119 35.6774 73.1895 35.9507 73.3179 36.2663C73.446 36.5816 73.508 36.9297 73.508 37.3072ZM74.9154 37.2876C74.9154 36.7484 74.8171 36.2464 74.6222 35.7819C74.4243 35.3147 74.1469 34.9122 73.7864 34.5716C73.4258 34.2312 72.997 33.963 72.4996 33.7715C72.0011 33.578 71.4528 33.4809 70.8583 33.4809H68.0086V41.1112H70.8583C71.4528 41.1112 72.0011 41.0145 72.4996 40.8182C72.997 40.622 73.4258 40.3535 73.7864 40.0108C74.1469 39.6681 74.4243 39.2652 74.6222 38.7957C74.8171 38.3288 74.9154 37.8241 74.9154 37.2876ZM82.4287 23.6464V16.3529H75.0296V19.0082H79.4744V22.2577C78.9443 22.6543 78.3191 22.9729 77.5997 23.2126C76.8798 23.4523 76.1059 23.572 75.2781 23.572C74.3841 23.572 73.5769 23.4151 72.8569 23.101C72.137 22.7856 71.516 22.353 70.9951 21.7983C70.473 21.2448 70.0722 20.5865 69.7903 19.8258C69.5093 19.065 69.3683 18.2382 69.3683 17.345C69.3683 16.5017 69.5135 15.7074 69.8031 14.9642C70.0925 14.2198 70.4906 13.5663 70.9951 13.0033C71.4993 12.4414 72.0958 11.9984 72.783 11.6762C73.4699 11.354 74.2101 11.1924 75.0045 11.1924C75.5511 11.1924 76.0523 11.2376 76.5067 11.3284C76.962 11.4204 77.3804 11.5437 77.761 11.7006C78.1418 11.8587 78.5059 12.0531 78.8534 12.2845C79.2008 12.5158 79.5403 12.7719 79.8713 13.0533L81.8083 10.7458C81.3613 10.3655 80.9015 10.0306 80.4301 9.74087C79.958 9.45235 79.4577 9.2082 78.9279 9.00931C78.3984 8.81041 77.8232 8.65797 77.2022 8.55108C76.5818 8.443 75.8905 8.3894 75.1297 8.3894C73.8215 8.3894 72.6173 8.62909 71.516 9.10816C70.4155 9.58842 69.4679 10.2375 68.6734 11.0563C67.879 11.8751 67.2621 12.83 66.8232 13.9221C66.3848 15.013 66.1655 16.1704 66.1655 17.395C66.1655 18.6684 66.381 19.8514 66.811 20.9423C67.2416 22.0332 67.8495 22.9813 68.6362 23.7825C69.4226 24.5861 70.3696 25.2132 71.4793 25.669C72.5881 26.1237 73.8215 26.3505 75.1786 26.3505C75.9405 26.3505 76.6685 26.2809 77.364 26.14C78.0589 25.9992 78.7086 25.8051 79.3132 25.5574C79.9169 25.3084 80.4795 25.0187 81.001 24.6885C81.5225 24.3571 81.9987 24.0106 82.4287 23.6464Z" fill="black"/>
</g>
</g>
<defs>
<clipPath id="clip0">
<rect width="179.855" height="46.7253" fill="white" transform="translate(0.144531 0.412109)"/>
</clipPath>
</defs>
</svg>
