<svg width="1164" height="246" viewBox="0 0 1164 246" fill="none" xmlns="http://www.w3.org/2000/svg">
<path d="M0.76947 321.736H109.572C111.583 321.736 113.553 321.177 115.264 320.121L213.094 259.759C214.805 258.703 216.775 258.144 218.786 258.144H262.37C264.38 258.144 266.351 258.703 268.062 259.759L429.407 359.311C431.118 360.367 433.089 360.926 435.099 360.926H476.886C478.896 360.926 480.867 360.367 482.578 359.311L592.391 291.555C594.102 290.499 596.073 289.94 598.084 289.94H635.675C637.686 289.94 639.657 289.381 641.368 288.325L785.935 199.125C787.646 198.069 789.617 197.51 791.627 197.51H823.826C825.837 197.51 827.807 196.951 829.518 195.896L953.114 119.636C954.825 118.58 956.795 118.021 958.806 118.021H988.608C990.618 118.021 992.589 118.58 994.3 119.636L1117.9 195.896C1119.61 196.951 1121.58 197.51 1123.59 197.51H1166" stroke="#FABF00" stroke-width="3.42"/>
<path d="M0.770508 293.922H231.211C233.221 293.922 235.192 293.363 236.903 292.308L375.479 206.805C377.189 205.749 379.16 205.19 381.171 205.19H416.965C418.975 205.19 420.946 205.749 422.657 206.805L493.522 250.53C495.233 251.585 497.204 252.144 499.214 252.144H538.005C540.015 252.144 541.986 251.585 543.697 250.53L643.923 188.689C645.634 187.633 647.605 187.074 649.615 187.074H682.413C684.424 187.074 686.395 187.633 688.105 188.689L818.891 269.385C820.602 270.441 822.573 271 824.583 271H860.977C862.987 271 864.958 270.441 866.669 269.385L990.264 193.125C991.975 192.07 993.946 191.51 995.956 191.51H1028.16C1030.17 191.51 1032.14 190.951 1033.85 189.896L1123.89 134.34C1125.6 133.284 1127.57 132.725 1129.58 132.725H1166" stroke="#C32238" stroke-width="3.42"/>
<path d="M0.769104 342.81H232.41C234.42 342.81 236.391 342.251 238.102 341.195L365.892 262.347C367.603 261.291 369.574 260.732 371.584 260.732H405.581C407.591 260.732 409.562 260.173 411.273 259.118L571.42 160.305C573.131 159.249 575.101 158.69 577.112 158.69H609.91C611.92 158.69 613.891 158.131 615.602 157.075L702.047 103.738C703.758 102.682 705.728 102.123 707.739 102.123H739.938C741.948 102.123 743.919 102.682 745.63 103.738L877.614 185.174C879.325 186.23 881.296 186.789 883.306 186.789H918.501C920.512 186.789 922.483 186.23 924.194 185.174L1115.5 67.1356C1117.21 66.0799 1119.18 65.5209 1121.19 65.5209H1166" stroke="#09AA74" stroke-width="3.42"/>
<path d="M0.769043 353.556H96.39C98.4004 353.556 100.371 352.997 102.082 351.942L150.777 321.896C152.488 320.841 154.458 320.282 156.469 320.282H419.362C421.373 320.282 423.344 320.841 425.054 321.896L508.503 373.385C510.214 374.441 512.185 375 514.195 375H543.997C546.008 375 547.978 374.441 549.689 373.385L622.352 328.551C624.063 327.496 626.034 326.937 628.044 326.937H661.442C663.452 326.937 665.423 327.496 667.134 328.551L705.043 351.942C706.754 352.997 708.724 353.556 710.735 353.556H744.132C746.143 353.556 748.113 352.997 749.824 351.942L827.88 303.78C829.591 302.725 831.562 302.165 833.572 302.165H866.97C868.98 302.165 870.951 302.725 872.662 303.78L896.789 318.667C898.5 319.723 900.47 320.282 902.481 320.282H940.073C942.083 320.282 944.054 319.723 945.765 318.667L1111.3 216.527C1113.02 215.471 1114.99 214.912 1117 214.912H1166" stroke="#433BCE" stroke-width="3.42"/>
<path d="M0.768311 379.042H191.064C193.074 379.042 195.045 378.483 196.756 377.428L218.486 364.02C220.197 362.964 222.168 362.405 224.178 362.405H259.972C261.983 362.405 263.954 361.846 265.664 360.79L367.089 298.21C368.8 297.154 370.771 296.595 372.781 296.595H402.583C404.594 296.595 406.565 297.154 408.276 298.21L451.577 324.927C453.288 325.983 455.259 326.542 457.269 326.542H486.472C488.483 326.542 490.454 325.983 492.164 324.927L594.188 261.977C595.899 260.922 597.87 260.363 599.881 260.363H624.29C626.3 260.363 628.271 259.803 629.982 258.748L743.99 188.403C745.701 187.348 747.672 186.789 749.682 186.789H784.278C786.288 186.789 788.259 186.229 789.97 185.174L966.296 76.3785C968.007 75.3229 969.977 74.7638 971.988 74.7638H995.199C997.209 74.7638 999.18 74.2047 1000.89 73.149L1113.7 3.54393C1115.41 2.48827 1117.38 1.9292 1119.39 1.9292H1166" stroke="#327EE8" stroke-width="3.42"/>
</svg>
