<svg width="116" height="27" viewBox="0 0 116 27" fill="none" xmlns="http://www.w3.org/2000/svg">
<path d="M34.2352 1.68652H39.0978V24.37H34.2352V1.68652Z" fill="white"/>
<path d="M52.1679 7.50488C54.1074 7.50488 55.7095 8.12327 56.9743 9.33193C58.2392 10.5406 58.8575 12.5363 58.8575 15.319V24.3699H54.276V15.6001C54.276 12.7331 53.1517 11.2995 50.9031 11.2995C49.7226 11.2995 48.795 11.693 48.1486 12.5082C47.5021 13.2952 47.1648 14.4196 47.1648 15.8812V24.3981H42.5833V7.70164H46.5745L46.9961 9.78167C47.5864 9.07895 48.2891 8.51679 49.1042 8.12327C49.9474 7.72975 50.9593 7.50488 52.1679 7.50488Z" fill="white"/>
<path d="M78.4486 1.68652V24.37H74.4573L74.0076 22.0651C72.7427 23.7235 71.0001 24.5668 68.8077 24.5668C67.3461 24.5668 66.025 24.2295 64.8445 23.5268C63.664 22.8241 62.7645 21.8122 62.09 20.5192C61.4435 19.2262 61.1062 17.7083 61.1062 16.0218C61.1062 14.3353 61.4435 12.8456 62.09 11.5807C62.7645 10.2877 63.6921 9.2758 64.8445 8.6012C66.025 7.89849 67.3742 7.53308 68.8358 7.53308C71.0001 7.53308 72.6865 8.29201 73.867 9.80986V1.68652H78.4486ZM69.8758 20.8284C71.1125 20.8284 72.0963 20.4067 72.8271 19.5354C73.5579 18.6359 73.9233 17.4835 73.9233 16.078C73.9233 14.6164 73.5579 13.464 72.8271 12.5645C72.0963 11.665 71.1125 11.2434 69.8758 11.2434C68.639 11.2434 67.6553 11.6931 66.8964 12.5645C66.1656 13.464 65.8002 14.6164 65.8002 16.0218C65.8002 17.4554 66.1656 18.6078 66.8964 19.4792C67.6272 20.4067 68.639 20.8284 69.8758 20.8284Z" fill="white"/>
<path d="M80.978 16.0782C80.978 14.3354 81.3153 12.8457 82.018 11.5808C82.7207 10.2878 83.7045 9.27593 84.9693 8.60132C86.2341 7.89861 87.7238 7.5332 89.3822 7.5332C91.0686 7.5332 92.5583 7.8705 93.8232 8.54511C95.1161 9.1916 96.128 10.1192 96.8307 11.3278C97.5615 12.5084 97.955 13.9138 97.955 15.5441C97.955 16.1344 97.8988 16.6403 97.8145 17.0901H85.7001V17.2306C85.8125 18.4393 86.206 19.395 86.8806 20.0696C87.5552 20.7723 88.4827 21.1096 89.6352 21.1096C90.5627 21.1096 91.3216 20.9128 91.94 20.5193C92.5584 20.0977 92.98 19.5074 93.1767 18.7485H97.702C97.5334 19.8447 97.1118 20.8566 96.4372 21.728C95.7626 22.5993 94.8913 23.3301 93.767 23.8361C92.6708 24.342 91.4059 24.595 89.9725 24.595C88.1174 24.595 86.4871 24.2577 85.1379 23.555C83.7888 22.8523 82.7488 21.8685 82.018 20.6036C81.3434 19.2825 80.978 17.7928 80.978 16.0782ZM93.4297 14.0825C93.2891 13.0706 92.8675 12.2835 92.1648 11.7495C91.4903 11.1873 90.647 10.9062 89.607 10.9062C88.6233 10.9062 87.7801 11.1873 87.0774 11.7776C86.4028 12.3397 86.0093 13.0987 85.8687 14.0825H93.4297Z" fill="white"/>
<path d="M104.447 15.8812L98.5449 7.70166H103.773L107.23 12.6487L110.772 7.72977H115.662L109.788 15.9093L116 24.3981H110.772L106.949 19.1699L103.155 24.37H98.2638L104.447 15.8812Z" fill="white"/>
<path fill-rule="evenodd" clip-rule="evenodd" d="M13.1262 26.1408C20.378 26.1408 26.2525 20.2943 26.2525 13.0704C26.2525 5.84655 20.378 0 13.1262 0C5.87448 0 0 5.84655 0 13.0704C0 20.2943 5.87448 26.1408 13.1262 26.1408ZM13.1262 21.6435C18.4386 21.6435 22.7109 17.371 22.7109 12.1147C22.7109 6.85846 18.4105 4.666 13.1262 4.666C7.81391 4.666 3.54156 6.83035 3.54156 12.1147C3.51345 17.3991 7.81391 21.6435 13.1262 21.6435Z" fill="white"/>
<path fill-rule="evenodd" clip-rule="evenodd" d="M7.44846 13.6609C8.01062 13.6609 8.51655 13.436 8.91006 13.0987C9.10681 13.4641 9.35978 13.8576 9.58464 14.2512C10.0906 15.0944 10.6527 15.9658 11.1587 16.6123C11.4116 16.9496 11.6927 17.2588 11.9457 17.4836C12.1705 17.6804 12.564 17.9615 13.0138 17.9615C13.4635 17.9615 13.857 17.6804 14.0819 17.4836C14.3629 17.2588 14.644 16.9496 14.897 16.6404C15.431 15.9939 16.0213 15.1225 16.5553 14.2793C16.8083 13.8576 17.0613 13.4641 17.2861 13.0706C17.6796 13.436 18.2137 13.689 18.7758 13.689C19.9563 13.689 20.9401 12.7333 20.9401 11.5527C20.9401 10.3722 19.9844 9.4165 18.7758 9.4165C17.8202 9.4165 16.9769 10.063 16.724 10.9344C16.6678 11.0187 16.6115 11.1311 16.5553 11.2436C16.218 11.8619 15.7402 12.6771 15.2343 13.4922C14.7283 14.3074 14.1662 15.1225 13.6883 15.6847C13.4354 15.9658 13.2386 16.1906 13.07 16.3312C13.0419 16.3593 13.0138 16.3593 13.0138 16.3874C12.9857 16.3874 12.9857 16.3593 12.9575 16.3312C12.7889 16.1906 12.5922 15.9939 12.3673 15.6847C11.9176 15.0944 11.3835 14.3074 10.9057 13.4922C10.4279 12.6771 9.97815 11.8619 9.64085 11.2436C9.58464 11.1592 9.55653 11.0749 9.52843 11.0187C9.27546 10.0911 8.43223 9.4165 7.44846 9.4165C6.26795 9.4165 5.28418 10.3722 5.28418 11.5527C5.28418 12.7052 6.23984 13.6609 7.44846 13.6609Z" fill="white"/>
</svg>
