<svg width="375" height="265" viewBox="0 0 375 265" fill="none" xmlns="http://www.w3.org/2000/svg">
<path d="M-275.999 222.938H-200.833C-199.444 222.938 -198.083 222.552 -196.901 221.822L-129.315 180.121C-128.133 179.392 -126.772 179.006 -125.383 179.006H-95.2732C-93.8843 179.006 -92.5228 179.392 -91.3408 180.121L20.1243 248.897C21.3063 249.626 22.6678 250.012 24.0567 250.012H52.9247C54.3136 250.012 55.6751 249.626 56.8571 248.897L132.722 202.087C133.904 201.358 135.265 200.972 136.654 200.972H162.624C164.013 200.972 165.375 200.585 166.557 199.856L266.431 138.232C267.613 137.503 268.974 137.117 270.363 137.117H292.608C293.997 137.117 295.358 136.731 296.54 136.001L381.926 83.3172C383.108 82.5879 384.469 82.2017 385.858 82.2017H406.447C407.836 82.2017 409.197 82.5879 410.379 83.3172L495.765 136.001C496.947 136.731 498.308 137.117 499.697 137.117H528.999" stroke="#FABF00" stroke-width="3"/>
<path d="M-275.999 203.723H-116.799C-115.41 203.723 -114.049 203.337 -112.867 202.607L-17.1323 143.538C-15.9503 142.809 -14.5888 142.422 -13.1999 142.422H11.5285C12.9174 142.422 14.2789 142.809 15.4609 143.538L64.4179 173.745C65.5999 174.474 66.9614 174.861 68.3503 174.861H95.1485C96.5374 174.861 97.8989 174.474 99.0809 173.745L168.322 131.022C169.504 130.293 170.866 129.907 172.254 129.907H194.913C196.302 129.907 197.663 130.293 198.845 131.022L289.199 186.771C290.381 187.501 291.742 187.887 293.131 187.887H318.273C319.662 187.887 321.024 187.501 322.206 186.771L407.591 134.087C408.773 133.358 410.135 132.972 411.524 132.972H433.768C435.157 132.972 436.519 132.586 437.701 131.856L499.904 93.4756C501.086 92.7463 502.448 92.3601 503.837 92.3601H529" stroke="#C32238" stroke-width="3"/>
<path d="M-276 237.497H-115.971C-114.582 237.497 -113.221 237.111 -112.039 236.381L-23.7552 181.909C-22.5732 181.18 -21.2117 180.794 -19.8228 180.794H3.66367C5.05255 180.794 6.41407 180.407 7.59606 179.678L118.233 111.413C119.415 110.684 120.777 110.298 122.166 110.298H144.824C146.213 110.298 147.575 109.912 148.757 109.182L208.477 72.3342C209.659 71.6049 211.02 71.2187 212.409 71.2187H234.654C236.043 71.2187 237.404 71.6049 238.586 72.3342L329.767 128.594C330.949 129.324 332.311 129.71 333.7 129.71H358.014C359.403 129.71 360.764 129.324 361.946 128.594L494.109 47.0477C495.291 46.3184 496.653 45.9322 498.042 45.9322H529" stroke="#09AA74" stroke-width="3"/>
<path d="M-276 244.921H-209.94C-208.551 244.921 -207.19 244.535 -206.008 243.805L-172.367 223.049C-171.185 222.319 -169.824 221.933 -168.435 221.933H13.1848C14.5737 221.933 15.9352 222.319 17.1172 223.049L74.7674 258.62C75.9494 259.349 77.3109 259.735 78.6998 259.735H99.2886C100.677 259.735 102.039 259.349 103.221 258.62L153.42 227.646C154.602 226.917 155.963 226.531 157.352 226.531H180.425C181.814 226.531 183.175 226.917 184.357 227.646L210.546 243.805C211.728 244.535 213.09 244.921 214.479 244.921H237.551C238.94 244.921 240.302 244.535 241.484 243.805L295.408 210.533C296.59 209.804 297.952 209.418 299.341 209.418H322.413C323.802 209.418 325.164 209.804 326.346 210.533L343.014 220.818C344.196 221.547 345.557 221.933 346.946 221.933H372.917C374.305 221.933 375.667 221.547 376.849 220.818L491.212 150.254C492.394 149.525 493.755 149.139 495.144 149.139H529" stroke="#433BCE" stroke-width="3"/>
<path d="M-276 262.528H-144.535C-143.146 262.528 -141.784 262.142 -140.603 261.412L-125.59 252.149C-124.408 251.42 -123.047 251.034 -121.658 251.034H-96.9294C-95.5405 251.034 -94.179 250.648 -92.997 249.918L-22.928 206.685C-21.746 205.956 -20.3845 205.569 -18.9956 205.569H1.59317C2.98205 205.569 4.34356 205.956 5.52555 206.685L35.4404 225.143C36.6224 225.872 37.9839 226.258 39.3728 226.258H59.5476C60.9365 226.258 62.298 225.872 63.48 225.143L133.963 181.654C135.145 180.924 136.507 180.538 137.895 180.538H154.759C156.147 180.538 157.509 180.152 158.691 179.423L237.453 130.825C238.635 130.096 239.997 129.71 241.386 129.71H265.286C266.675 129.71 268.036 129.323 269.218 128.594L391.033 53.4332C392.215 52.7039 393.576 52.3176 394.965 52.3176H411C412.389 52.3176 413.751 51.9314 414.933 51.2021L492.867 3.11554C494.049 2.38623 495.41 2 496.799 2H528.999" stroke="#327EE8" stroke-width="3"/>
</svg>
