<svg width="100" height="100" viewBox="0 0 100 100" fill="none" xmlns="http://www.w3.org/2000/svg">
<path fill-rule="evenodd" clip-rule="evenodd" d="M49.8867 97.799C76.3966 97.799 97.8867 76.3944 97.8867 49.991C97.8867 23.5873 76.3966 2.18298 49.8867 2.18298C23.3771 2.18298 1.88672 23.5873 1.88672 49.991C1.88672 76.3944 23.3771 97.799 49.8867 97.799ZM49.8867 81.3872C69.2745 81.3872 84.9912 65.773 84.9912 46.5115C84.9912 27.25 69.2745 19.3082 49.8867 19.3082C30.4991 19.3082 14.7823 27.25 14.7823 46.5115C14.7823 65.773 30.4991 81.3872 49.8867 81.3872Z" fill="#020203"/>
<path fill-rule="evenodd" clip-rule="evenodd" d="M29.1091 52.1314C31.1669 52.1314 33.0403 51.3457 34.4438 50.0597C35.208 51.4202 36.0376 52.8618 36.9009 54.3052C38.7349 57.3726 40.7684 60.5295 42.6799 62.9494C43.6295 64.1517 44.6203 65.2638 45.6041 66.1017C46.457 66.8282 47.8443 67.8293 49.527 67.8293C51.1951 67.8293 52.5906 66.8421 53.4542 66.1244C54.4538 65.2938 55.4713 64.189 56.4544 62.9894C58.4324 60.5756 60.5559 57.4233 62.4797 54.3574C63.4286 52.8453 64.3406 51.3354 65.1762 49.918C66.5951 51.2881 68.5293 52.1314 70.6612 52.1314C75.0139 52.1314 78.5421 48.6174 78.5421 44.2825C78.5421 39.9474 75.0139 36.4333 70.6612 36.4333C67.1146 36.4333 64.1148 38.7671 63.126 41.9769C62.9313 42.3271 62.7198 42.7058 62.4928 43.1082C61.2241 45.3596 59.4903 48.3505 57.6194 51.3323C55.7374 54.3313 53.7637 57.2447 52.0142 59.3798C51.1333 60.4546 50.3795 61.2449 49.7824 61.7414C49.6898 61.8182 49.6088 61.8815 49.5385 61.9338C49.4771 61.8865 49.4076 61.8305 49.3293 61.7636C48.7556 61.2752 48.031 60.4918 47.1842 59.4197C45.5023 57.2908 43.6177 54.3824 41.8251 51.3845C40.0432 48.4047 38.3988 45.4153 37.1971 43.165C37.0345 42.8605 36.8802 42.5698 36.7349 42.2949C35.8514 38.9224 32.7721 36.4333 29.1091 36.4333C24.7568 36.4333 21.2285 39.9474 21.2285 44.2825C21.2285 48.6174 24.7568 52.1314 29.1091 52.1314Z" fill="#020203"/>
</svg>
