<svg width="183" height="21" viewBox="0 0 183 21" fill="none" xmlns="http://www.w3.org/2000/svg">
<path fill-rule="evenodd" clip-rule="evenodd" d="M15.1016 5.87186L20.1243 0.638672V15.8116L15.1016 20.3836V5.87186Z" fill="black"/>
<path fill-rule="evenodd" clip-rule="evenodd" d="M7.72545 8.52766L10.1467 10.5111L12.7481 8.2251V15.8115L7.72545 20.3836V8.52766Z" fill="black"/>
<path fill-rule="evenodd" clip-rule="evenodd" d="M5.36051 5.87186L0.33786 0.638672V20.4396L5.36051 16.1814V5.87186Z" fill="black"/>
<path d="M30.0459 17.7949H33.1879V8.38192L37.2533 14.5228H37.3321L41.4426 8.32589V17.8061H44.6296V3.2832H41.1723L37.3434 9.42408L33.5145 3.2832H30.0572V17.7949H30.0459ZM57.952 17.7949H69.0559V14.9486H61.139V11.9006H68.0198V9.06549H61.139V6.11831H68.9545V3.2832H57.952V17.7949ZM86.9279 18.0079C90.0699 18.0079 92.2884 16.3942 92.2884 13.5031V13.4582C92.2884 10.9257 90.6217 9.87232 87.6599 9.0991C85.1374 8.46036 84.518 8.1466 84.518 7.19409V7.14926C84.518 6.44329 85.1599 5.88299 86.3987 5.88299C87.6262 5.88299 88.8987 6.42088 90.1938 7.31735L91.8605 4.90807C90.3852 3.73144 88.5721 3.05908 86.4437 3.05908C83.4594 3.05908 81.3422 4.79601 81.3422 7.42941V7.47424C81.3422 10.3542 83.2342 11.161 86.1734 11.9118C88.6059 12.5393 89.1127 12.954 89.1127 13.7608V13.8056C89.1127 14.6573 88.3244 15.1727 87.0068 15.1727C85.3401 15.1727 83.9662 14.4892 82.6486 13.4134L80.7454 15.677C82.4909 17.2346 84.7207 18.0079 86.9279 18.0079ZM109.879 18.0079C113.021 18.0079 115.239 16.3942 115.239 13.5031V13.4582C115.239 10.9257 113.573 9.87232 110.611 9.0991C108.088 8.46036 107.469 8.1466 107.469 7.19409V7.14926C107.469 6.44329 108.111 5.88299 109.35 5.88299C110.577 5.88299 111.85 6.42088 113.145 7.31735L114.812 4.90807C113.336 3.73144 111.523 3.05908 109.395 3.05908C106.41 3.05908 104.293 4.79601 104.293 7.42941V7.47424C104.293 10.3542 106.185 11.161 109.124 11.9118C111.557 12.5393 112.064 12.954 112.064 13.7608V13.8056C112.064 14.6573 111.275 15.1727 109.958 15.1727C108.291 15.1727 106.917 14.4892 105.6 13.4134L103.708 15.677C105.442 17.2346 107.672 18.0079 109.879 18.0079ZM126.298 17.7949H129.564L130.893 14.534H137.064L138.393 17.7949H141.749L135.499 3.18235H132.548L126.298 17.7949ZM132.042 11.7213L133.979 7.01479L135.916 11.7213H132.042ZM153.833 17.7949H157.042V13.1557H159.565L162.696 17.7949H166.446L162.887 12.6066C164.745 11.923 166.018 10.455 166.018 8.10177V8.06815C166.018 6.70103 165.579 5.55802 164.768 4.75119C163.81 3.79868 162.369 3.2832 160.522 3.2832H153.833V17.7949ZM157.042 10.3318V6.16314H160.229C161.795 6.16314 162.752 6.86912 162.752 8.23624V8.28107C162.752 9.50252 161.851 10.3318 160.297 10.3318H157.042ZM178.867 17.7949H182.077V3.2832H178.867V17.7949Z" fill="black"/>
</svg>
