<svg id="Layer_1" data-name="Layer 1" xmlns="http://www.w3.org/2000/svg" viewBox="0 0 144 135">
  <defs>
    <style>
      .cls-1 {
        fill: #010101;
      }

      .cls-2 {
        fill: #0bab74;
        fill-opacity: 0.12;
        stroke: #0bab74;
        stroke-width: 3.61px;
      }
    </style>
  </defs>
  <g>
    <path class="cls-1" d="M14.44,85.7,8.38,80.19l1.56-1.71,1,.93.06-.07a2.56,2.56,0,0,1-.32-1.3,2.16,2.16,0,0,1,.63-1.39,2.53,2.53,0,0,1,1.28-.79,2.39,2.39,0,0,1,1.49.19h0a2.29,2.29,0,0,1-.27-1.45,2.65,2.65,0,0,1,.24-.77,2.85,2.85,0,0,1,.49-.75,2.14,2.14,0,0,1,1.84-.77,3.91,3.91,0,0,1,2.21,1.14l3.82,3.45-1.56,1.72-3.67-3.33c-.77-.7-1.41-.77-1.91-.22a1.62,1.62,0,0,0-.41.9,1,1,0,0,0,.38.92l3.94,3.57-1.55,1.71L14,78.85c-.78-.7-1.41-.78-1.92-.22a2.36,2.36,0,0,0-.28.42,1.17,1.17,0,0,0,0,1,1.31,1.31,0,0,0,.31.43L16,84ZM26.26,72.93a4.28,4.28,0,0,1-1.35,1,3.61,3.61,0,0,1-1.48.35,3.82,3.82,0,0,1-1.52-.34,6.31,6.31,0,0,1-2.62-2.37,3.8,3.8,0,0,1-.51-1.46A3.11,3.11,0,0,1,19,68.63a4.2,4.2,0,0,1,.87-1.43,4,4,0,0,1,1.42-1,3.42,3.42,0,0,1,1.48-.27,3.84,3.84,0,0,1,1.45.41,5.93,5.93,0,0,1,1.32.9l.51.46-3.54,3.9.09.09a1.88,1.88,0,0,0,1.26.54,1.78,1.78,0,0,0,1.27-.7,2.17,2.17,0,0,0,.58-1.06,5.06,5.06,0,0,0,0-1.1l1.85.11a3.56,3.56,0,0,1-.23,1.74A5,5,0,0,1,26.26,72.93Zm-5.14-4.58a1.41,1.41,0,0,0-.39,1.14,1.8,1.8,0,0,0,.64,1.11l.09.08,1.93-2.13-.1-.1a2,2,0,0,0-1.13-.55,1.17,1.17,0,0,0-1,.45Zm10.52-1.64a2.5,2.5,0,0,1-1.68.94,2.41,2.41,0,0,1-1.73-.74l-3-2.7-.77.86-1.34-1.21.39-.43a.76.76,0,0,0,.27-.62,1.14,1.14,0,0,0-.37-.57l-1-.9,1.4-1.54,1.64,1.49,1.1-1.21,1.33,1.21L26.79,62.5l3.42,3.09,1-1.11,1.34,1.21ZM25.15,56.63l1.56-1.71,3.52,3.19.06-.07A2.49,2.49,0,0,1,30,56.73a2.33,2.33,0,0,1,.67-1.44,2.24,2.24,0,0,1,1.91-.85,3.89,3.89,0,0,1,2.23,1.13L38.6,59l-1.55,1.72-3.67-3.33a2.19,2.19,0,0,0-1-.6,1,1,0,0,0-.89.4,1.77,1.77,0,0,0-.31.46,1.85,1.85,0,0,0-.17.5,1.26,1.26,0,0,0,.07.51,1.12,1.12,0,0,0,.3.44l3.94,3.57L33.77,64.4Zm17.23-1.47a4.16,4.16,0,0,1-1.32,1,3.13,3.13,0,0,1-1.44.32,4,4,0,0,1-1.51-.36,5.62,5.62,0,0,1-1.5-1,5.92,5.92,0,0,1-1.15-1.39A4.13,4.13,0,0,1,35,52.27a3.5,3.5,0,0,1,.17-1.47A4.38,4.38,0,0,1,36,49.39a4.12,4.12,0,0,1,1.31-1,3.13,3.13,0,0,1,1.44-.32,3.74,3.74,0,0,1,1.51.34,5.62,5.62,0,0,1,1.5,1,5.43,5.43,0,0,1,1.14,1.39,3.77,3.77,0,0,1,.5,1.48,3.19,3.19,0,0,1-.17,1.47A4.18,4.18,0,0,1,42.38,55.16ZM41,53.93a1.34,1.34,0,0,0,.4-1.07,1.76,1.76,0,0,0-.64-1.09l-1.24-1.12a1.76,1.76,0,0,0-1.14-.53A1.54,1.54,0,0,0,37,51.69a1.76,1.76,0,0,0,.64,1.09l1.24,1.12a1.76,1.76,0,0,0,1.14.53,1.35,1.35,0,0,0,1-.5Zm7.27-7.63-.06.06a2.56,2.56,0,0,1,.27.64,2.12,2.12,0,0,1,0,.71,1.68,1.68,0,0,1-.21.69,2,2,0,0,1-.41.64,2.72,2.72,0,0,1-2.39,1,6.81,6.81,0,0,1-4.74-4.29,2.74,2.74,0,0,1,.77-2.49,2.47,2.47,0,0,1,1.27-.75,1.87,1.87,0,0,1,1.37.17l.05-.06L40.7,39.44l1.55-1.72,8.58,7.77-1.55,1.72ZM47,47.22a1.86,1.86,0,0,0,.49-1,1.07,1.07,0,0,0-.37-.93l-1.78-1.63a1,1,0,0,0-1-.27,1.74,1.74,0,0,0-1,.58A1.43,1.43,0,0,0,43,45.1a1.7,1.7,0,0,0,.63,1.14l1.05,1a1.81,1.81,0,0,0,1.22.52A1.46,1.46,0,0,0,47,47.22Zm7.65-5.66a4.16,4.16,0,0,1-1.32,1,3.25,3.25,0,0,1-1.44.31,4,4,0,0,1-1.51-.35,5.62,5.62,0,0,1-1.5-1,5.55,5.55,0,0,1-1.15-1.4,4.15,4.15,0,0,1-.49-1.45,3.5,3.5,0,0,1,.17-1.47,4.38,4.38,0,0,1,.87-1.41,4,4,0,0,1,1.31-1,3.13,3.13,0,0,1,1.44-.32,3.74,3.74,0,0,1,1.51.34,5.62,5.62,0,0,1,1.5,1,5.43,5.43,0,0,1,1.14,1.39,3.77,3.77,0,0,1,.5,1.48,3.19,3.19,0,0,1-.17,1.47,3.91,3.91,0,0,1-.88,1.41Zm-1.36-1.22a1.32,1.32,0,0,0,.4-1.08,1.73,1.73,0,0,0-.64-1.08l-1.24-1.13a1.81,1.81,0,0,0-1.14-.53,1.4,1.4,0,0,0-1,.51,1.34,1.34,0,0,0-.4,1.07A1.76,1.76,0,0,0,50,39.19l1.24,1.12a1.76,1.76,0,0,0,1.14.53,1.35,1.35,0,0,0,1-.5Zm6.45-4.68a2,2,0,0,1-2.77.58,2,2,0,0,1-.44-.39L49.66,29.6l1.55-1.72,7.25,6.56.69-.76,1.33,1.2Zm4-4.15a4.12,4.12,0,0,1-1.31,1,3.29,3.29,0,0,1-1.45.31,4,4,0,0,1-1.51-.35,5.78,5.78,0,0,1-1.5-1,5.31,5.31,0,0,1-1.14-1.4,3.91,3.91,0,0,1-.5-1.45,3.5,3.5,0,0,1,.17-1.47,4.4,4.4,0,0,1,.88-1.41,4,4,0,0,1,1.3-1,3.13,3.13,0,0,1,1.44-.32,3.74,3.74,0,0,1,1.51.34,5.62,5.62,0,0,1,1.5,1,5.68,5.68,0,0,1,1.15,1.39,3.92,3.92,0,0,1,.49,1.48,3.19,3.19,0,0,1-.17,1.47,4.11,4.11,0,0,1-.87,1.41Zm-1.4-1.22a1.32,1.32,0,0,0,.4-1.08,1.73,1.73,0,0,0-.64-1.08L60.93,27a1.76,1.76,0,0,0-1.14-.53,1.4,1.4,0,0,0-1,.51,1.34,1.34,0,0,0-.4,1.07A1.76,1.76,0,0,0,59,29.13l1.24,1.12a1.72,1.72,0,0,0,1.15.53A1.35,1.35,0,0,0,62.38,30.29Zm10.45-8.21a2.79,2.79,0,0,1,.7,1,2,2,0,0,1,.13,1.11,3.64,3.64,0,0,1-.53,1.38,9.83,9.83,0,0,1-1.26,1.68,10.47,10.47,0,0,1-1.33,1.25,3.81,3.81,0,0,1-1.08.64,1.59,1.59,0,0,1-.89.1,1.66,1.66,0,0,1-1.26-1.41,1.88,1.88,0,0,1,.4-1.16l-.13-.12a1.35,1.35,0,0,1-1,.33,1.59,1.59,0,0,1-.89-.41,1.17,1.17,0,0,1-.31-.48,1.39,1.39,0,0,1-.08-.54,1.87,1.87,0,0,1,.12-.57,3.65,3.65,0,0,1,.25-.53l0-.05a2.46,2.46,0,0,1-1.44.2,2.66,2.66,0,0,1-1.28-.68,2.52,2.52,0,0,1-.91-2,4,4,0,0,1,1.22-2.49,5.13,5.13,0,0,1,1-.92L64,18.2a1.24,1.24,0,0,1-.48-.86,1.38,1.38,0,0,1,.4-.89l.87-1L66,16.61,64.9,18l.07.06a2.31,2.31,0,0,1,1.42-.14,2.76,2.76,0,0,1,1.26.67,2.52,2.52,0,0,1,.88,2A4,4,0,0,1,67.3,23a5.5,5.5,0,0,1-1.1,1,.75.75,0,0,0,.25.71.55.55,0,0,0,.49.15,1.43,1.43,0,0,0,.63-.46l1.6-1.76a3.11,3.11,0,0,1,1.92-1.19,2.25,2.25,0,0,1,1.77.6ZM71.6,23.9a.64.64,0,0,0-.59-.16,1.93,1.93,0,0,0-.8.61l-1.83,2.08a1.17,1.17,0,0,0,.1.41,1.5,1.5,0,0,0,.24.31.69.69,0,0,0,.75.15,2.89,2.89,0,0,0,1.06-.84l.63-.7a2.83,2.83,0,0,0,.73-1.13.69.69,0,0,0-.26-.73ZM66.18,22a1.42,1.42,0,0,0,.47-.94,1,1,0,0,0-.39-.82l-.14-.13a1,1,0,0,0-.85-.3,1.47,1.47,0,0,0-.9.55,1.59,1.59,0,0,0-.47,1,1,1,0,0,0,.39.8l.14.12a1.08,1.08,0,0,0,.85.33A1.61,1.61,0,0,0,66.18,22Zm1-8a1.42,1.42,0,0,1-.92.56,1.15,1.15,0,0,1-.83-.32L65.18,14a1.09,1.09,0,0,1-.39-.77,1.41,1.41,0,0,1,.45-1,1.31,1.31,0,0,1,.92-.53A1.09,1.09,0,0,1,67,12l.26.23a1.08,1.08,0,0,1,.39.8,1.31,1.31,0,0,1-.48,1Zm-.12,1.45,1.55-1.72,6.08,5.52L73.14,21Zm11.09.26a4.78,4.78,0,0,1-1.62,1.23,4.59,4.59,0,0,1-1.79.34l-.11-1.93a3.59,3.59,0,0,0,1.22-.2,2.55,2.55,0,0,0,1-.71,1.57,1.57,0,0,0,.49-.84.71.71,0,0,0-.25-.59c-.29-.26-.64-.2-1.07.16l-.68.58c-1.41,1.22-2.65,1.33-3.73.35a2.46,2.46,0,0,1-.65-.88,2.27,2.27,0,0,1-.2-1A2.87,2.87,0,0,1,71,11.1,4,4,0,0,1,71.77,10a6.05,6.05,0,0,1,.82-.78,3.89,3.89,0,0,1,.78-.48,3.47,3.47,0,0,1,.77-.25A7.68,7.68,0,0,1,75,8.36l.12,1.89a3,3,0,0,0-1,.26,2.47,2.47,0,0,0-.85.58,1.44,1.44,0,0,0-.42.75.57.57,0,0,0,.2.52.68.68,0,0,0,.5.22,1.33,1.33,0,0,0,.64-.34l.72-.6c1.38-1.18,2.6-1.29,3.64-.35a2.49,2.49,0,0,1,.65.92,2.53,2.53,0,0,1,.16,1.12,3.11,3.11,0,0,1-.33,1.2,4.41,4.41,0,0,1-.82,1.14Zm5.13-5.95a2.51,2.51,0,0,1-1.68.95A2.38,2.38,0,0,1,79.87,10l-3-2.69-.77.85-1.34-1.2.39-.43a.76.76,0,0,0,.27-.62,1.14,1.14,0,0,0-.37-.57l-1-.9,1.4-1.55,1.64,1.5,1.09-1.21,1.34,1.21-1.09,1.2,3.41,3.1,1-1.11,1.33,1.2Z"/>
    <path class="cls-2" d="M92.47,15.21a10.23,10.23,0,0,1,17.4,4.4l25.42,98.47a10.21,10.21,0,0,1-12.4,12.47L28.33,106.66a10.22,10.22,0,0,1-5-16.86Z"/>
  </g>
</svg>
