<svg width="76" height="76" viewBox="0 0 76 76" fill="none" xmlns="http://www.w3.org/2000/svg">
<path d="M50.7657 57H24.6957V51.06L36.9607 40.115C38.9041 38.355 40.3891 36.6867 41.4157 35.11C42.4791 33.4967 43.0107 31.81 43.0107 30.05V29.335C43.0107 27.465 42.4424 25.9983 41.3057 24.935C40.2057 23.8717 38.7024 23.34 36.7957 23.34C35.7324 23.34 34.7974 23.505 33.9907 23.835C33.2207 24.1283 32.5424 24.55 31.9557 25.1C31.3691 25.65 30.8741 26.2917 30.4707 27.025C30.1041 27.7583 29.8107 28.5467 29.5907 29.39L24.1457 27.3C24.5491 26.09 25.0991 24.935 25.7957 23.835C26.4924 22.6983 27.3724 21.69 28.4357 20.81C29.4991 19.93 30.7457 19.2333 32.1757 18.72C33.6424 18.2067 35.3474 17.95 37.2907 17.95C39.2341 17.95 40.9757 18.2433 42.5157 18.83C44.0557 19.38 45.3391 20.1683 46.3657 21.195C47.4291 22.185 48.2357 23.3767 48.7857 24.77C49.3357 26.1633 49.6107 27.685 49.6107 29.335C49.6107 30.875 49.3724 32.305 48.8957 33.625C48.4191 34.945 47.7591 36.1917 46.9157 37.365C46.0724 38.5383 45.0824 39.6567 43.9457 40.72C42.8457 41.7833 41.6724 42.865 40.4257 43.965L31.4057 51.72H50.7657V57Z" fill="#327EE8"/>
<circle cx="38" cy="38" r="35" stroke="#327EE8" stroke-width="6"/>
</svg>
