<svg width="76" height="76" viewBox="0 0 76 76" fill="none" xmlns="http://www.w3.org/2000/svg">
<path d="M35.4207 34.395C37.8041 34.395 39.5641 33.9 40.7007 32.91C41.8374 31.8833 42.4057 30.5817 42.4057 29.005V28.62C42.4057 26.86 41.8557 25.5217 40.7557 24.605C39.6557 23.6517 38.1707 23.175 36.3007 23.175C34.4674 23.175 32.9091 23.5967 31.6257 24.44C30.3424 25.2467 29.2607 26.3833 28.3807 27.85L24.2557 24.275C24.8424 23.4317 25.5024 22.625 26.2357 21.855C26.9691 21.085 27.8307 20.425 28.8207 19.875C29.8107 19.2883 30.9291 18.83 32.1757 18.5C33.4224 18.1333 34.8524 17.95 36.4657 17.95C38.2624 17.95 39.9307 18.17 41.4707 18.61C43.0107 19.05 44.3307 19.71 45.4307 20.59C46.5307 21.4333 47.3924 22.4783 48.0157 23.725C48.6391 24.935 48.9507 26.31 48.9507 27.85C48.9507 29.06 48.7491 30.16 48.3457 31.15C47.9791 32.14 47.4474 33.02 46.7507 33.79C46.0907 34.5233 45.3024 35.1283 44.3857 35.605C43.5057 36.0817 42.5707 36.43 41.5807 36.65V36.925C42.6807 37.145 43.7074 37.5117 44.6607 38.025C45.6507 38.5017 46.5124 39.1433 47.2457 39.95C47.9791 40.72 48.5474 41.655 48.9507 42.755C49.3907 43.8183 49.6107 45.0467 49.6107 46.44C49.6107 48.1267 49.2807 49.6667 48.6207 51.06C47.9607 52.4167 47.0257 53.59 45.8157 54.58C44.6424 55.57 43.2124 56.34 41.5257 56.89C39.8391 57.4033 37.9691 57.66 35.9157 57.66C34.1191 57.66 32.5424 57.4583 31.1857 57.055C29.8291 56.6883 28.6191 56.1933 27.5557 55.57C26.5291 54.91 25.6124 54.1767 24.8057 53.37C24.0357 52.5267 23.3574 51.665 22.7707 50.785L27.3357 47.21C27.8124 47.98 28.3074 48.695 28.8207 49.355C29.3707 49.9783 29.9757 50.5283 30.6357 51.005C31.3324 51.445 32.1024 51.7933 32.9457 52.05C33.8257 52.3067 34.8157 52.435 35.9157 52.435C38.2624 52.435 40.0591 51.885 41.3057 50.785C42.5524 49.6483 43.1757 48.09 43.1757 46.11V45.725C43.1757 43.745 42.5157 42.2417 41.1957 41.215C39.8757 40.1883 38.0057 39.675 35.5857 39.675H31.5157V34.395H35.4207Z" fill="#433BCE"/>
<circle cx="38" cy="38" r="35" stroke="#433BCE" stroke-width="6"/>
</svg>
