<svg id="Layer_1" data-name="Layer 1" xmlns="http://www.w3.org/2000/svg" viewBox="0 0 147 140">
  <defs>
    <style>
      .cls-1 {
        fill: #fabf00;
        fill-opacity: 0.12;
      }

      .cls-2 {
        fill: none;
        stroke: #fabf00;
        stroke-width: 3.61px;
      }
    </style>
  </defs>
  <g>
    <path class="cls-1" d="M89.48,15.93a10.23,10.23,0,0,1,17.4,4.4L132.3,118.8a10.22,10.22,0,0,1-12.4,12.47L25.34,107.38a10.22,10.22,0,0,1-5-16.86Z"/>
    <path class="cls-2" d="M89.48,15.93a10.23,10.23,0,0,1,17.4,4.4L132.3,118.8a10.22,10.22,0,0,1-12.4,12.47L25.34,107.38a10.22,10.22,0,0,1-5-16.86Z"/>
  </g>
  <path d="M17.16,80.17a4.47,4.47,0,0,1-1.33,1,3.3,3.3,0,0,1-1.45.29,3.91,3.91,0,0,1-1.51-.38,6.1,6.1,0,0,1-2.6-2.43,3.86,3.86,0,0,1-.48-1.46,3.37,3.37,0,0,1,.2-1.47,4.15,4.15,0,0,1,.89-1.39,4.2,4.2,0,0,1,1.31-1,3.22,3.22,0,0,1,1.45-.29,3.65,3.65,0,0,1,1.51.35,6,6,0,0,1,1.48,1,5.79,5.79,0,0,1,1.13,1.41,4.1,4.1,0,0,1,.47,1.49A3.25,3.25,0,0,1,18,78.79,4.18,4.18,0,0,1,17.16,80.17Zm-1.34-1.25a1.32,1.32,0,0,0,.41-1.06,1.73,1.73,0,0,0-.62-1.1l-1.22-1.14a1.74,1.74,0,0,0-1.14-.54,1.31,1.31,0,0,0-1,.49,1.3,1.3,0,0,0-.42,1.06,1.78,1.78,0,0,0,.62,1.1l1.23,1.14a1.77,1.77,0,0,0,1.14.54A1.33,1.33,0,0,0,15.82,78.92ZM20.77,76l-6-5.59,1.58-1.7L17.64,70l.06-.06a2.4,2.4,0,0,1-.33-.61,2,2,0,0,1-.15-.69,1.84,1.84,0,0,1,.14-.72,2.17,2.17,0,0,1,.46-.73l.28-.29,1.58,1.47-.4.42A3.47,3.47,0,0,0,18.44,70a1,1,0,0,0,.39,1l3.51,3.27Zm9.78-9.62a2.62,2.62,0,0,1,.68,1,1.89,1.89,0,0,1,.12,1.11,3.54,3.54,0,0,1-.55,1.37,9.54,9.54,0,0,1-1.29,1.66,9.57,9.57,0,0,1-1.34,1.23,4,4,0,0,1-1.1.63,1.74,1.74,0,0,1-.89.09,1.53,1.53,0,0,1-.72-.4A1.39,1.39,0,0,1,25,72a1.93,1.93,0,0,1,.41-1.16l-.13-.11a1.37,1.37,0,0,1-1,.31,1.57,1.57,0,0,1-.89-.42,1.22,1.22,0,0,1-.33-.48,1.67,1.67,0,0,1-.07-.54,1.94,1.94,0,0,1,.12-.57,5.2,5.2,0,0,1,.26-.53l0,0a2.4,2.4,0,0,1-1.45.17A2.71,2.71,0,0,1,20.59,68a2.56,2.56,0,0,1-.88-2A4,4,0,0,1,21,63.5,5.24,5.24,0,0,1,22,62.59l-.23-.22a1.25,1.25,0,0,1-.48-.87,1.36,1.36,0,0,1,.42-.87l.88-1,1.26,1.17-1.24,1.33.07.06a2.36,2.36,0,0,1,1.42-.13,2.84,2.84,0,0,1,1.26.7,2.49,2.49,0,0,1,.85,2A4,4,0,0,1,25,67.24a5.59,5.59,0,0,1-1.12.94.75.75,0,0,0,.24.72.59.59,0,0,0,.49.16,1.5,1.5,0,0,0,.63-.46l1.63-1.74a3.09,3.09,0,0,1,1.93-1.16A2.28,2.28,0,0,1,30.55,66.4Zm-1.26,1.8A.59.59,0,0,0,28.7,68a1.87,1.87,0,0,0-.81.59L26,70.69a1.24,1.24,0,0,0,.09.4,1.69,1.69,0,0,0,.25.32.69.69,0,0,0,.74.16,3,3,0,0,0,1.07-.82l.64-.69a2.9,2.9,0,0,0,.75-1.12A.7.7,0,0,0,29.29,68.2Zm-5.42-2a1.57,1.57,0,0,0,.49-.93,1.07,1.07,0,0,0-.39-.83l-.14-.13A1,1,0,0,0,23,64a1.89,1.89,0,0,0-1.39,1.5,1,1,0,0,0,.38.8l.14.13a1.08,1.08,0,0,0,.84.34A1.6,1.6,0,0,0,23.87,66.2Zm11.06-5.37a1.53,1.53,0,0,1-1,.5A1.79,1.79,0,0,1,32.81,61l-.06.07a1.92,1.92,0,0,1,.32,1.44,2.87,2.87,0,0,1-.78,1.43,2.6,2.6,0,0,1-1.77.94,2.34,2.34,0,0,1-1.71-.71,2.13,2.13,0,0,1-.77-2,4.54,4.54,0,0,1,1.29-2.33l.88-1-.37-.35a1.19,1.19,0,0,0-1.88.11,1.86,1.86,0,0,0-.53,1,3,3,0,0,0,0,1l-1.83.18a3.57,3.57,0,0,1,0-1.69,4.23,4.23,0,0,1,1.1-1.8,3.88,3.88,0,0,1,2.35-1.4,2.79,2.79,0,0,1,2.23.88L34,59.22l.53-.56,1.31,1.23ZM31.7,62.2a1.84,1.84,0,0,0,.49-.89.85.85,0,0,0-.31-.86l-.71-.66-.76.82c-.62.66-.71,1.21-.26,1.62l.18.16a.8.8,0,0,0,.68.26A1.37,1.37,0,0,0,31.7,62.2Zm5.16-3.45-6-5.59,1.57-1.7,1,.95.07-.07A2.41,2.41,0,0,1,33.23,51a2.25,2.25,0,0,1,.69-1.43,2.22,2.22,0,0,1,1.91-.82A3.82,3.82,0,0,1,38,49.94l3.77,3.51-1.58,1.69L36.6,51.76a2.19,2.19,0,0,0-1-.62,1,1,0,0,0-.89.39,1.9,1.9,0,0,0-.31.45,1.34,1.34,0,0,0-.17.51,1.06,1.06,0,0,0,.06.5,1,1,0,0,0,.29.45l3.89,3.62Zm.49-13.85a1.47,1.47,0,0,1-.93.54,1.21,1.21,0,0,1-.82-.33l-.25-.24a1.12,1.12,0,0,1-.38-.78,1.4,1.4,0,0,1,.46-1,1.35,1.35,0,0,1,.94-.52,1.07,1.07,0,0,1,.81.31l.26.24a1.12,1.12,0,0,1,.38.8A1.4,1.4,0,0,1,37.35,44.9Zm-.14,1.44,1.57-1.69,6,5.6-1.58,1.69Zm11.09.42A4.84,4.84,0,0,1,46.66,48a4.67,4.67,0,0,1-1.8.31l-.07-1.93A3.29,3.29,0,0,0,46,46.16a2.51,2.51,0,0,0,1-.68,1.71,1.71,0,0,0,.51-.84.71.71,0,0,0-.25-.59c-.28-.26-.63-.22-1.06.14l-.69.58c-1.43,1.19-2.67,1.29-3.74.29a2.54,2.54,0,0,1-.64-.89A2.38,2.38,0,0,1,41,43.12a2.75,2.75,0,0,1,.28-1.1A4,4,0,0,1,42,40.91a5.57,5.57,0,0,1,.83-.76,3.3,3.3,0,0,1,.78-.47,2.92,2.92,0,0,1,.78-.24,6.94,6.94,0,0,1,.83-.11l.08,1.9a3,3,0,0,0-1,.24,2.28,2.28,0,0,0-.85.57,1.43,1.43,0,0,0-.44.75.6.6,0,0,0,.19.52.74.74,0,0,0,.5.23,1.4,1.4,0,0,0,.65-.34l.72-.59c1.41-1.15,2.62-1.25,3.65-.29a2.4,2.4,0,0,1,.63.93,2.61,2.61,0,0,1,.15,1.12,3.3,3.3,0,0,1-.34,1.2A4.85,4.85,0,0,1,48.3,46.76Zm7.47-8.29a1.53,1.53,0,0,1-1,.5,1.86,1.86,0,0,1-1.12-.34l-.06.07a1.9,1.9,0,0,1,.32,1.43,2.86,2.86,0,0,1-.78,1.44,2.55,2.55,0,0,1-1.77.93,2.3,2.3,0,0,1-1.71-.7,2.15,2.15,0,0,1-.77-2,4.56,4.56,0,0,1,1.29-2.32l.88-.95-.37-.35a1.19,1.19,0,0,0-1.88.11,1.82,1.82,0,0,0-.53,1,3,3,0,0,0,0,1l-1.83.18a3.61,3.61,0,0,1,0-1.7,4.26,4.26,0,0,1,1.1-1.79,3.88,3.88,0,0,1,2.35-1.4,2.79,2.79,0,0,1,2.23.88l2.64,2.45.52-.56,1.31,1.23Zm-3.23,1.37A1.77,1.77,0,0,0,53,39a.85.85,0,0,0-.31-.86l-.7-.67-.77.83c-.62.66-.7,1.2-.25,1.62l.17.16a.78.78,0,0,0,.68.25A1.28,1.28,0,0,0,52.54,39.84Zm7.06-5.49a2.53,2.53,0,0,1-1.69.93,2.42,2.42,0,0,1-1.72-.77l-2.94-2.74-.79.84-1.32-1.22.4-.43a.8.8,0,0,0,.28-.61,1.12,1.12,0,0,0-.37-.58l-1-.91,1.42-1.53,1.62,1.52,1.11-1.19,1.31,1.22-1.1,1.19,3.37,3.15,1-1.1,1.32,1.23ZM55.86,25a1.47,1.47,0,0,1-.93.54,1.21,1.21,0,0,1-.82-.33L53.86,25a1.12,1.12,0,0,1-.38-.78,1.4,1.4,0,0,1,.46-1,1.35,1.35,0,0,1,.94-.52,1.07,1.07,0,0,1,.81.31l.26.24a1.12,1.12,0,0,1,.38.8A1.4,1.4,0,0,1,55.86,25Zm-.14,1.44,1.57-1.69,6,5.6-1.58,1.69Zm11.46,0a4.35,4.35,0,0,1-1.33,1,3.45,3.45,0,0,1-1.45.29,4.05,4.05,0,0,1-1.5-.38,5.5,5.5,0,0,1-1.49-1A5.74,5.74,0,0,1,60.29,25a3.67,3.67,0,0,1-.47-1.46A3.22,3.22,0,0,1,60,22a4.15,4.15,0,0,1,.89-1.39,4,4,0,0,1,1.31-1,3.11,3.11,0,0,1,1.45-.29,3.65,3.65,0,0,1,1.51.35,6,6,0,0,1,1.49,1,5.74,5.74,0,0,1,1.12,1.41,3.86,3.86,0,0,1,.47,1.49,3.12,3.12,0,0,1-.19,1.47A4.18,4.18,0,0,1,67.18,26.5Zm-1.34-1.25a1.37,1.37,0,0,0,.42-1.06,1.8,1.8,0,0,0-.63-1.1L64.41,22a1.74,1.74,0,0,0-1.14-.55A1.56,1.56,0,0,0,61.82,23a1.73,1.73,0,0,0,.63,1.09l1.22,1.14a1.74,1.74,0,0,0,1.14.55A1.33,1.33,0,0,0,65.84,25.25Zm5-2.9-6-5.6,1.58-1.69,1,1,.06-.07a2.56,2.56,0,0,1-.29-1.32,2.28,2.28,0,0,1,.69-1.43,2.28,2.28,0,0,1,1.92-.82A3.91,3.91,0,0,1,72,13.54L75.73,17l-1.57,1.7-3.63-3.38a2.11,2.11,0,0,0-1-.62,1,1,0,0,0-.89.39,1.83,1.83,0,0,0-.32.45,1.56,1.56,0,0,0-.17.5,1.49,1.49,0,0,0,.06.51,1,1,0,0,0,.3.44l3.89,3.63Z"/>
</svg>
