<svg width="60" height="60" viewBox="0 0 60 60" fill="none" xmlns="http://www.w3.org/2000/svg">
<circle cx="30" cy="30" r="30" fill="#3CEAAA"/>
<path fill-rule="evenodd" clip-rule="evenodd" d="M22.6379 15.9076C24.4555 14.1271 27.3633 14.1271 29.1809 15.9076L34.0906 20.7172L34.9098 19.9148C36.7274 18.1343 39.6351 18.1343 41.4527 19.9148L46.2936 24.6569C48.165 26.4901 48.165 29.503 46.2936 31.3362L33.2715 44.0926C31.4539 45.8731 28.5461 45.8731 26.7285 44.0926L13.7064 31.3362C11.835 29.503 11.835 26.4901 13.7064 24.6569L22.6379 15.9076ZM30.7503 23.9894L25.9094 19.2473L16.9779 27.9965L21.8188 32.7386L30.7503 23.9894ZM25.1591 36.0108L30 40.7529L34.8409 36.0108L30 31.2687L25.1591 36.0108ZM33.3404 27.9965L38.1813 32.7386L43.0222 27.9965L38.1813 23.2544L33.3404 27.9965Z" fill="black" fill-opacity="0.6"/>
</svg>
