<svg id="Layer_1" data-name="Layer 1" xmlns="http://www.w3.org/2000/svg" viewBox="0 0 144 135">
  <defs>
    <style>
      .cls-1 {
        fill: #4978bc;
        fill-opacity: 0.12;
      }

      .cls-2 {
        fill: none;
        stroke: #4978bc;
        stroke-width: 3.61px;
      }

      .cls-3 {
        fill: #010101;
      }
    </style>
  </defs>
  <g>
    <path class="cls-1" d="M87.86,8.86a10.22,10.22,0,0,1,17.4,4.4l25.42,98.47a10.23,10.23,0,0,1-12.4,12.47L23.72,100.31a10.21,10.21,0,0,1-5-16.86Z"/>
    <path class="cls-2" d="M87.86,8.86a10.22,10.22,0,0,1,17.4,4.4l25.42,98.47a10.23,10.23,0,0,1-12.4,12.47L23.72,100.31a10.21,10.21,0,0,1-5-16.86Z"/>
  </g>
  <path class="cls-3" d="M19.55,57.48l1.55-1.72,1,.92v0a2,2,0,0,1-.31-1.34,2.56,2.56,0,0,1,.63-1.35,2.73,2.73,0,0,1,2.4-1,5.33,5.33,0,0,1,2.9,1.55,5.49,5.49,0,0,1,1.9,2.73,2.75,2.75,0,0,1-.78,2.48,2.19,2.19,0,0,1-.6.49,2.64,2.64,0,0,1-.67.28,2.73,2.73,0,0,1-.7,0,2.19,2.19,0,0,1-.66-.2l-.06.06,3.34,3-1.55,1.72ZM27,59a1.46,1.46,0,0,0,.39-1.1,1.72,1.72,0,0,0-.64-1.16l-1.08-.93a1.72,1.72,0,0,0-1.21-.5,1.38,1.38,0,0,0-1.07.48,1.73,1.73,0,0,0-.49,1,1,1,0,0,0,.36.9L25,59.33a1,1,0,0,0,.94.28A1.77,1.77,0,0,0,27,59Zm6.61-4.78a2,2,0,0,1-2.77.58,2.32,2.32,0,0,1-.44-.39l-6.91-6.25L25,46.45,32.24,53l.69-.76,1.33,1.21Zm5.71-6.3a1.48,1.48,0,0,1-1,.51,1.79,1.79,0,0,1-1.12-.32l-.06.07a1.93,1.93,0,0,1,.34,1.44,2.87,2.87,0,0,1-.75,1.44,2.58,2.58,0,0,1-1.76,1,2.33,2.33,0,0,1-1.73-.68,2.16,2.16,0,0,1-.79-2A4.59,4.59,0,0,1,33.62,47l.87-1-.38-.34a1.19,1.19,0,0,0-1.67-.11,1.59,1.59,0,0,0-.2.24,1.9,1.9,0,0,0-.52,1,3,3,0,0,0,0,.95l-1.83.2a3.71,3.71,0,0,1,0-1.69A4.4,4.4,0,0,1,31,44.46,3.78,3.78,0,0,1,33.3,43a2.76,2.76,0,0,1,2.24.85l2.67,2.41.51-.57,1.34,1.21Zm-3.21,1.42a1.84,1.84,0,0,0,.48-.9.92.92,0,0,0-.32-.86l-.72-.65-.76.84c-.61.67-.68,1.21-.23,1.63l.18.15a.79.79,0,0,0,.68.25,1.41,1.41,0,0,0,.69-.46Zm7-5.59a2.51,2.51,0,0,1-1.68,1A2.41,2.41,0,0,1,39.65,44l-3-2.7-.78.86-1.33-1.21.39-.43a.78.78,0,0,0,.27-.62,1.14,1.14,0,0,0-.37-.57l-1-.9,1.39-1.58,1.65,1.49L38,37.1l1.33,1.21-1.09,1.2,3.42,3.1,1-1.11L44,42.7Zm-2.44-6.94-.78.85-1.33-1.2.77-.86L38.57,35a2.38,2.38,0,0,1-.91-1.66,2.56,2.56,0,0,1,.78-1.77l1-1.11,1.33,1.21-1.1,1.21,1.16,1,1.1-1.21,1.33,1.2-1.1,1.22,4.75,4.3-1.55,1.72Zm10.6-1.88a4.12,4.12,0,0,1-1.31,1,3.45,3.45,0,0,1-1.45.32A4.17,4.17,0,0,1,47,35.9a5.78,5.78,0,0,1-1.5-1,5.64,5.64,0,0,1-1.14-1.39,3.83,3.83,0,0,1-.49-1.46A3.19,3.19,0,0,1,44,30.58a4.47,4.47,0,0,1,2.17-2.4,3.17,3.17,0,0,1,1.45-.32,3.58,3.58,0,0,1,1.51.34,5.62,5.62,0,0,1,1.5,1,5.88,5.88,0,0,1,1.14,1.39,3.86,3.86,0,0,1,.49,1.48,3.19,3.19,0,0,1-.17,1.47A4.24,4.24,0,0,1,51.25,35Zm-1.35-1.23a1.37,1.37,0,0,0,.4-1.07,1.76,1.76,0,0,0-.64-1.09l-1.24-1.12a1.72,1.72,0,0,0-1.15-.53,1.31,1.31,0,0,0-1,.5,1.37,1.37,0,0,0-.4,1.07,1.76,1.76,0,0,0,.64,1.09l1.24,1.12a1.77,1.77,0,0,0,1.15.53,1.33,1.33,0,0,0,1-.46Zm4.9-3L48.69,25.2l1.55-1.72,1.32,1.2v-.06a3,3,0,0,1-.34-.6,2,2,0,0,1-.15-.69,1.82,1.82,0,0,1,.13-.73,2.12,2.12,0,0,1,.45-.73l.27-.3L53.52,23l-.39.43a3.35,3.35,0,0,0-.82,1.3,1,1,0,0,0,.41,1L56.27,29ZM59,26l-6.08-5.51,1.55-1.71,1,.93.06-.07a2.48,2.48,0,0,1-.32-1.3A2.09,2.09,0,0,1,55.85,17a2.42,2.42,0,0,1,1.28-.79,2.32,2.32,0,0,1,1.49.2h0a2,2,0,0,1-.25-.67,2.64,2.64,0,0,1,.24-1.55,2.67,2.67,0,0,1,.48-.75,2.11,2.11,0,0,1,1.84-.77,3.85,3.85,0,0,1,2.22,1.14L67,17.23,65.41,19l-3.67-3.33c-.78-.7-1.42-.77-1.92-.22a1.59,1.59,0,0,0-.41.9,1,1,0,0,0,.39.92l3.94,3.57L62.19,22.5l-3.68-3.32c-.77-.7-1.41-.77-1.91-.22a1.71,1.71,0,0,0-.28.42,1.32,1.32,0,0,0-.13.48,1.18,1.18,0,0,0,.08.49,1.31,1.31,0,0,0,.31.43l3.94,3.57Z"/>
</svg>
