<svg width="53" height="64" viewBox="0 0 53 64" fill="none" xmlns="http://www.w3.org/2000/svg">
<g clip-path="url(#clip0)">
<path d="M0 0V26.1386L12.8317 13.3069L0 0Z" fill="url(#paint0_linear)"/>
<path d="M40.1582 13.3069L52.9899 26.1386V0L40.1582 13.3069Z" fill="url(#paint1_linear)"/>
<path d="M1.82227 28.8317L25.7431 64L14.2579 16.3961L1.82227 28.8317Z" fill="url(#paint2_linear)"/>
<path d="M27.4062 64L51.327 28.8317L38.8914 16.3961L27.4062 64Z" fill="url(#paint3_linear)"/>
<path d="M35.9609 15.8416H26.5351H17.1094L21.7826 36.5148L26.5351 57.1089L31.2876 36.5148L35.9609 15.8416Z" fill="url(#paint4_linear)"/>
</g>
<defs>
<linearGradient id="paint0_linear" x1="0" y1="13.0653" x2="12.8238" y2="13.0653" gradientUnits="userSpaceOnUse">
<stop stop-color="#A71E22"/>
<stop offset="0.1551" stop-color="#B81F24"/>
<stop offset="0.4908" stop-color="#DA2126"/>
<stop offset="0.6826" stop-color="#EC2227"/>
</linearGradient>
<linearGradient id="paint1_linear" x1="40.1582" y1="13.0653" x2="52.982" y2="13.0653" gradientUnits="userSpaceOnUse">
<stop stop-color="#A71E22"/>
<stop offset="0.1551" stop-color="#B81F24"/>
<stop offset="0.4908" stop-color="#DA2126"/>
<stop offset="0.6826" stop-color="#EC2227"/>
</linearGradient>
<linearGradient id="paint2_linear" x1="1.79058" y1="40.1782" x2="25.7272" y2="40.1782" gradientUnits="userSpaceOnUse">
<stop stop-color="#A71E22"/>
<stop offset="0.1551" stop-color="#B81F24"/>
<stop offset="0.4908" stop-color="#DA2126"/>
<stop offset="0.6826" stop-color="#EC2227"/>
</linearGradient>
<linearGradient id="paint3_linear" x1="27.3825" y1="40.1782" x2="51.3112" y2="40.1782" gradientUnits="userSpaceOnUse">
<stop stop-color="#A71E22"/>
<stop offset="0.1551" stop-color="#B81F24"/>
<stop offset="0.4908" stop-color="#DA2126"/>
<stop offset="0.6826" stop-color="#EC2227"/>
</linearGradient>
<linearGradient id="paint4_linear" x1="17.0777" y1="36.4792" x2="35.9925" y2="36.4792" gradientUnits="userSpaceOnUse">
<stop stop-color="#A71E22"/>
<stop offset="0.1551" stop-color="#B81F24"/>
<stop offset="0.4908" stop-color="#DA2126"/>
<stop offset="0.6826" stop-color="#EC2227"/>
</linearGradient>
<clipPath id="clip0">
<rect width="52.9901" height="64" fill="white"/>
</clipPath>
</defs>
</svg>
