<svg width="64" height="64" viewBox="0 0 64 64" fill="none" xmlns="http://www.w3.org/2000/svg">
<path d="M31.9965 63.9931C49.6677 63.9931 63.9931 49.6677 63.9931 31.9965C63.9931 14.3253 49.6677 0 31.9965 0C14.3253 0 0 14.3253 0 31.9965C0 49.6677 14.3253 63.9931 31.9965 63.9931Z" fill="url(#paint0_linear)"/>
<path d="M21.4577 24.0415C21.2019 23.724 20.8139 23.5476 20.3994 23.5476H11.8534C11.7829 23.5476 11.7211 23.5212 11.6682 23.4771C11.6241 23.433 11.5977 23.3801 11.5977 23.3183V17.5593C11.5977 17.4976 11.6241 17.4447 11.6682 17.4006C11.7211 17.3477 11.7829 17.3212 11.8534 17.33H20.8844C23.1598 17.33 25.1265 18.2649 26.7845 20.1257L28.9806 22.8068L24.7032 28.0191L21.4577 24.0415ZM37.2443 20.0993C38.8935 18.256 40.869 17.33 43.1709 17.33H52.1754C52.2371 17.3212 52.2989 17.3477 52.343 17.3829C52.3871 17.427 52.4047 17.4888 52.3959 17.5593V23.3183C52.3959 23.3801 52.3782 23.433 52.343 23.4771C52.2989 23.53 52.2371 23.5565 52.1754 23.5476H43.6295C43.2238 23.5388 42.8357 23.724 42.5712 24.0415L36.2741 31.7055L42.5976 39.4224C42.8534 39.7135 43.2326 39.8899 43.6207 39.8811H52.1666C52.2283 39.8722 52.2989 39.9075 52.3342 39.9516C52.3694 40.0045 52.3959 40.0751 52.3871 40.1368V45.8958C52.3871 45.9576 52.3694 46.0105 52.3342 46.0546C52.2901 46.1075 52.2283 46.134 52.1666 46.1251H43.1709C40.869 46.1251 38.9111 45.1903 37.2707 43.3294L32.032 36.9354L26.7934 43.3294C25.1441 45.1903 23.1686 46.1251 20.8668 46.1251H11.8534C11.7917 46.134 11.7211 46.0987 11.6858 46.0546C11.6418 46.0017 11.6241 45.9311 11.6329 45.8694V40.1104C11.6329 40.0486 11.6506 39.9957 11.6858 39.9516C11.7299 39.8987 11.7917 39.8722 11.8534 39.8811H20.3994C20.805 39.8811 21.1931 39.6958 21.4577 39.3872L27.64 31.8378L37.2443 20.0993Z" fill="#00D1FF"/>
<defs>
<linearGradient id="paint0_linear" x1="32.0009" y1="-0.000185206" x2="32.0009" y2="16.9329" gradientUnits="userSpaceOnUse">
<stop stop-color="#090220"/>
<stop offset="1" stop-color="#170659"/>
</linearGradient>
</defs>
</svg>
