<svg width="64" height="64" viewBox="0 0 64 64" fill="none" xmlns="http://www.w3.org/2000/svg">
<path d="M32 64C49.7334 64 64 49.7334 64 32C64 14.2666 49.7334 0 32 0C14.2666 0 0 14.2666 0 32C0 49.7334 14.2666 64 32 64Z" fill="#2775CA"/>
<path d="M40.8001 37.0666C40.8001 32.4 38.0001 30.8 32.4001 30.1335C28.4001 29.6 27.6001 28.5335 27.6001 26.6666C27.6001 24.7997 28.9336 23.6 31.6001 23.6C34.0001 23.6 35.3336 24.4 36.0001 26.4C36.1335 26.8 36.5335 27.0666 36.9335 27.0666H39.0667C39.6001 27.0666 40.0001 26.6666 40.0001 26.1335V26C39.4667 23.0666 37.0667 20.8 34.0001 20.5335V17.3335C34.0001 16.8 33.6001 16.4 32.9336 16.2666H30.9336C30.4001 16.2666 30.0001 16.6666 29.8667 17.3335V20.4C25.8667 20.9335 23.3336 23.6 23.3336 26.9335C23.3336 31.3335 26.0001 33.0666 31.6001 33.7335C35.3336 34.4 36.5335 35.2 36.5335 37.3335C36.5335 39.4669 34.6667 40.9335 32.1336 40.9335C28.6667 40.9335 27.4667 39.4666 27.0667 37.4666C26.9336 36.9335 26.5336 36.6666 26.1336 36.6666H23.8667C23.3336 36.6666 22.9336 37.0666 22.9336 37.6V37.7335C23.4667 41.0666 25.6001 43.4666 30.0001 44.1335V47.3335C30.0001 47.8666 30.4001 48.2666 31.0667 48.4H33.0667C33.6001 48.4 34.0001 48 34.1336 47.3335V44.1335C38.1335 43.4666 40.8001 40.6666 40.8001 37.0666Z" fill="white"/>
<path d="M25.1997 51.0665C14.7997 47.3334 9.46623 35.7334 13.3331 25.4665C15.3331 19.8665 19.7331 15.5999 25.1997 13.5999C25.7331 13.3334 25.9997 12.9334 25.9997 12.2665V10.3999C25.9997 9.86649 25.7331 9.46649 25.1997 9.33337C25.0662 9.33337 24.7997 9.33337 24.6662 9.46649C11.9997 13.4665 5.06623 26.9334 9.06623 39.5999C11.4662 47.0665 17.1997 52.7999 24.6662 55.1999C25.1997 55.4665 25.7331 55.1999 25.8662 54.6665C25.9997 54.5334 25.9997 54.3999 25.9997 54.1334V52.2665C25.9997 51.8665 25.5997 51.3334 25.1997 51.0665ZM39.3331 9.46649C38.7997 9.19993 38.2662 9.46649 38.1331 9.99993C37.9997 10.1334 37.9997 10.2665 37.9997 10.5334V12.3999C37.9997 12.9334 38.3997 13.4665 38.7997 13.7334C49.1997 17.4665 54.5331 29.0665 50.6662 39.3334C48.6662 44.9334 44.2662 49.1999 38.7997 51.1999C38.2662 51.4665 37.9997 51.8665 37.9997 52.5334V54.3999C37.9997 54.9334 38.2662 55.3334 38.7997 55.4665C38.9331 55.4665 39.1997 55.4665 39.3331 55.3334C51.9997 51.3334 58.9331 37.8665 54.9331 25.1999C52.5331 17.5999 46.6662 11.8665 39.3331 9.46649Z" fill="white"/>
</svg>
