<svg width="334" height="65" viewBox="0 0 334 65" fill="none" xmlns="http://www.w3.org/2000/svg">
<path d="M52.7544 31.5596C52.7265 21.6235 47.6937 12.4045 39.4414 7.17086L42.0534 4.07091L40.8092 3.38469C32.4221 -1.23273 22.3063 -1.11938 14.0201 3.68529C5.73454 8.49024 0.440366 17.3128 0 27.0491V42.4547L48.5118 58.5612V62.6757H6.23027V50.8288H3.95994V62.676H0V65H50.7824V56.8723L44.8933 54.9172V51.4289C49.9473 46.1097 52.7684 38.9788 52.7542 31.5596H52.7544ZM95.5353 13.7586C98.9441 13.7586 102.34 14.1734 105.647 14.9938L104.866 21.1101C101.863 20.5386 98.8169 20.2198 95.7599 20.1571C90.8996 20.1571 89.335 21.8402 89.335 25.8247V40.1915C89.335 44.1758 90.8996 45.8599 95.7601 45.8599C98.8172 45.7976 101.863 45.4783 104.866 44.9056L105.647 51.0219C102.34 51.843 98.9441 52.2578 95.5353 52.2571C86.2617 52.2571 82.2964 48.2726 82.2964 41.4264V24.5906C82.2964 17.7434 86.2617 13.7586 95.5353 13.7586ZM122.688 23.8041C132.017 23.8041 134.531 28.9677 134.531 34.5787V41.4823C134.531 47.0935 132.017 52.2565 122.688 52.2565C113.358 52.2565 110.845 47.0935 110.845 41.4823V34.5787C110.845 28.9677 113.358 23.8041 122.688 23.8041ZM198.407 13.7592C201.652 13.7805 204.881 14.2143 208.015 15.0502L207.625 17.8557C204.637 17.1688 201.585 16.7926 198.519 16.7332C191.145 16.7332 190.139 18.5294 190.139 23.1876C190.139 29.2475 190.307 29.5284 198.127 31.4932C207.903 33.9619 208.463 35.3654 208.463 42.4358C208.464 48.5534 206.395 52.2574 196.955 52.2574C193.376 52.267 189.822 51.6592 186.452 50.461L187.067 47.7677C190.308 48.7553 193.677 49.2659 197.067 49.2833C203.435 49.2833 205.167 47.3746 205.167 42.6044C205.167 36.8235 205.11 36.2073 196.842 34.2986C187.849 32.2216 186.842 30.595 186.842 23.0754C186.842 16.9575 189.079 13.7592 198.407 13.7592ZM254.835 23.8036C261.874 23.8036 264.668 26.6107 264.668 31.7176V51.6959H261.874L261.651 49.5622C258.902 51.3205 255.703 52.256 252.433 52.2571C247.629 52.2571 245.394 49.5064 245.394 44.6253C245.394 38.8443 248.02 37.0491 253.382 37.0491H261.428V31.7176C261.428 27.9576 259.472 26.7227 255.003 26.7227C252.299 26.7624 249.605 27.0633 246.96 27.6211L246.456 24.8701C249.194 24.1743 252.008 23.8161 254.835 23.8036ZM299.808 23.8041C307.463 23.8041 309.697 28.1257 309.697 33.7377V39.0122H292.883V42.4366C292.883 47.3191 294.558 49.395 299.977 49.395C302.888 49.3317 305.78 48.8978 308.58 48.1039L309.139 50.7421C306.112 51.7432 302.944 52.255 299.754 52.2579C292.099 52.2579 289.642 48.2723 289.642 42.3244V33.7377C289.642 28.1257 292.156 23.8041 299.808 23.8041H299.808ZM325.957 23.805C328.557 23.7932 331.148 24.1139 333.666 24.7593L333.33 27.5089C330.826 27.0222 328.283 26.759 325.732 26.7227C320.985 26.7227 320.314 27.9581 320.314 30.9317C320.314 34.6915 320.537 35.0846 325.565 36.3759C333.554 38.3957 334 39.6864 334 44.7939C334 49.7325 332.213 52.2574 324.951 52.2574C322.225 52.2643 319.52 51.789 316.961 50.8538L317.52 48.2167C319.86 48.9196 322.285 49.2974 324.726 49.3391C329.754 49.3391 330.761 48.3851 330.761 44.9059C330.761 40.9775 330.648 40.5844 324.448 39.125C317.632 37.4972 317.073 35.8144 317.073 30.8194C317.073 26.2737 319.253 23.805 325.957 23.805ZM172.521 23.805C177.047 23.805 178.666 27.003 178.666 31.8857V51.6953H171.85V32.6156C171.85 31.1559 171.237 30.4263 169.672 30.4263C167.996 30.4263 165.036 31.4365 162.578 32.7267V51.6953H155.761V24.3659H160.957L161.628 26.6676C165.016 24.9627 168.728 23.9872 172.521 23.805ZM220.642 12.7495V26.7785C223.548 25.3755 228.297 23.805 231.537 23.805C235.782 23.805 237.29 26.2173 237.29 29.9771V51.6953H234.051V29.5842C234.051 27.5645 232.989 26.8349 231.089 26.8349C228.854 26.8349 224.051 28.1821 220.642 29.9771V51.6953H217.404V13.1985L220.642 12.7495ZM285.06 23.805L285.45 27.0033C282.447 28.4482 279.57 30.1375 276.847 32.0541V51.6956H273.608V24.3662H276.513L276.681 28.5177C279.584 26.6104 282.49 24.7593 285.06 23.805ZM147.94 24.3656V51.6951H141.125V24.3656H147.94H147.94ZM261.428 39.967H253.494C249.753 39.967 248.634 41.0886 248.634 44.68C248.634 47.8797 249.304 49.3391 253.103 49.3391C256.095 49.2378 258.991 48.2614 261.428 46.5323V39.9673V39.967ZM122.687 29.6412C119.056 29.6412 117.659 31.2681 117.659 34.3558V41.707C117.659 44.7931 119.056 46.4209 122.687 46.4209C126.32 46.4209 127.715 44.7931 127.715 41.707V34.3542C127.715 31.2681 126.32 29.6412 122.687 29.6412ZM299.808 26.6101C294.724 26.6101 292.882 29.0239 292.882 33.6254V36.0945H306.514V33.6254C306.514 29.0239 304.893 26.6101 299.808 26.6101ZM147.94 12.5806V20.4936H141.125V12.5806H147.94ZM42.6227 54.1632L2.27061 40.7655L2.26949 27.1049C2.67882 18.4346 7.28267 10.5436 14.5466 6.06234C21.8103 1.58078 30.7781 1.09904 38.4606 4.77686L26.6048 18.8461C22.4368 17.8009 18.0891 19.6515 15.8744 23.4129C13.6594 27.1747 14.0923 31.9732 16.9425 35.2565C19.7924 38.5396 24.3977 39.5442 28.3081 37.7361L42.6227 51.487V54.1632ZM27.5607 28.5893C27.5607 29.9423 26.7642 31.1623 25.5426 31.6801C24.3211 32.198 22.915 31.9118 21.98 30.955C21.0453 29.9982 20.7654 28.5591 21.2715 27.3089C21.7776 26.0587 22.9695 25.2438 24.2917 25.2438C26.0962 25.2457 27.5585 26.7424 27.5607 28.5893ZM43.7159 49.3497L30.3243 36.4859C32.9478 34.3956 34.3547 31.085 34.0603 27.6961C33.7659 24.3067 31.8103 21.3023 28.8679 19.7185L37.938 8.95532C45.6988 13.7219 50.4575 22.2964 50.4835 31.5596C50.502 38.1512 48.0846 44.5061 43.7159 49.3497Z" fill="black"/>
</svg>
