<svg width="64" height="64" viewBox="0 0 64 64" fill="none" xmlns="http://www.w3.org/2000/svg">
<path d="M17.9421 63.4754C34.0286 63.4754 34.0286 63.2359 36.7562 62.4263C40.3207 61.3681 26.6922 51.9344 17.9421 51.9344C9.192 51.9344 2.09863 54.518 2.09863 57.7049C2.09863 60.8919 9.19235 63.4754 17.9421 63.4754Z" fill="black"/>
<path d="M54.4697 14.4045L55.2097 15.2019L54.5628 16.0765C33.583 44.4427 21.4973 57.2862 16.3695 55.5636C13.2461 54.5144 10.1138 51.3589 6.98142 46.7769C5.88041 45.1664 4.84651 43.4704 3.90619 41.7827C3.28001 40.6589 2.75002 39.6339 2.47483 39.0565C2.1238 38.3201 1.97559 37.8664 1.85801 37.2706C1.85084 37.2341 1.85084 37.2341 1.84402 37.199C1.79495 36.9461 1.77797 36.8661 1.74128 36.7279C1.10999 34.3486 0.787109 31.8835 0.787109 29.377C0.787109 13.5871 13.5874 0.786865 29.3773 0.786865C34.3241 0.786865 39.0911 2.04584 43.3158 4.40914L43.4249 4.47739C46.8838 6.88555 50.563 10.1946 54.4697 14.4045ZM41.9793 6.66703C38.1573 4.54138 33.8509 3.40982 29.3773 3.40982C15.036 3.40982 3.41006 15.0357 3.41006 29.377C3.41006 31.656 3.70333 33.8949 4.27651 36.0552C4.33319 36.2688 4.35883 36.3895 4.41896 36.6994C4.42527 36.7319 4.42527 36.7319 4.43134 36.7628C4.50722 37.1473 4.58728 37.3924 4.84256 37.928C5.0936 38.4546 5.59808 39.4303 6.19749 40.5061C7.10126 42.1282 8.09443 43.7573 9.14676 45.2966C11.9768 49.4364 14.7835 52.2639 17.2047 53.0772C20.434 54.1621 32.591 41.293 51.8032 15.3953C48.3152 11.7136 45.0386 8.80417 41.9793 6.66703Z" fill="black"/>
<path d="M41.9794 6.667C38.1574 4.54135 33.851 3.40979 29.3774 3.40979C15.0361 3.40979 3.41016 15.0357 3.41016 29.377C3.41016 31.6559 3.70343 33.8949 4.27661 36.0552C4.33329 36.2688 4.35892 36.3895 4.41905 36.6994C4.42536 36.7319 4.42536 36.7319 4.43143 36.7627C4.50732 37.1473 4.58738 37.3924 4.84266 37.9279C5.0937 38.4546 5.59818 39.4303 6.19759 40.5061C7.10136 42.1282 8.09453 43.7573 9.14685 45.2966C11.9769 49.4364 14.7836 52.2639 17.2048 53.0772C20.4341 54.162 32.5911 41.293 51.8033 15.3953C48.3153 11.7136 45.0387 8.80415 41.9794 6.667Z" fill="#EC1C79"/>
<path d="M34.6234 63.213C18.8335 63.213 6.0332 50.4128 6.0332 34.6229C6.0332 18.833 18.8335 6.03271 34.6234 6.03271C50.4133 6.03271 63.2135 18.833 63.2135 34.6229C63.2135 50.4128 50.4133 63.213 34.6234 63.213ZM34.6234 60.5901C48.9647 60.5901 60.5906 48.9642 60.5906 34.6229C60.5906 20.2816 48.9647 8.65567 34.6234 8.65567C20.2821 8.65567 8.65615 20.2816 8.65615 34.6229C8.65615 48.9642 20.2821 60.5901 34.6234 60.5901Z" fill="black"/>
<path d="M34.6235 60.5902C48.9648 60.5902 60.5907 48.9643 60.5907 34.623C60.5907 20.2817 48.9648 8.65576 34.6235 8.65576C20.2822 8.65576 8.65625 20.2817 8.65625 34.623C8.65625 48.9643 20.2822 60.5902 34.6235 60.5902Z" fill="white"/>
<path fill-rule="evenodd" clip-rule="evenodd" d="M15.1988 39.9423L11.7617 29.5869H14.7729L16.5649 35.5357L18.5478 29.5575H21.0008L22.9838 35.5357L24.7758 29.5869H27.7281L24.291 39.9423H21.8087L19.7376 34.0228L17.6812 39.9423H15.1988ZM28.8592 39.8688V29.5869H37.1288V32.0105H31.6794V33.5675H36.6147V35.8148H31.6794V37.4452H37.2022V39.8688H28.8592ZM41.1681 39.8688V32.0839H38.0836V29.5869H47.1023V32.0839H44.0177V39.8688H41.1681ZM48.3508 39.8688V29.5869H51.2004V33.4353H54.8578V29.5869H57.7074V39.8688H54.8578V35.9617H51.2004V39.8688H48.3508Z" fill="black"/>
<path d="M2.49099 26.4941C1.76541 26.1313 1.47131 25.249 1.8341 24.5235C2.19689 23.7979 3.07919 23.5038 3.80478 23.8666L8.0015 25.9649C8.72708 26.3277 9.02118 27.21 8.65839 27.9356C8.2956 28.6612 7.4133 28.9553 6.68772 28.5925L2.49099 26.4941Z" fill="black"/>
<path d="M2.008 33.4527C1.27143 33.1127 0.949898 32.2401 1.28983 31.5035C1.62977 30.7669 2.50244 30.4454 3.23901 30.7853L7.43573 32.7222C8.1723 33.0621 8.49383 33.9348 8.1539 34.6713C7.81396 35.4079 6.94129 35.7294 6.20472 35.3895L2.008 33.4527Z" fill="black"/>
</svg>
