<svg width="199" height="39" viewBox="0 0 199 39" fill="none" xmlns="http://www.w3.org/2000/svg">
<path d="M52.6273 12.9078C52.5469 12.6294 52.7062 12.4284 52.9861 12.4284H54.8204C54.9797 12.4284 55.139 12.5676 55.1792 12.7067L57.2532 20.6641H57.3321L60.5027 12.4485C60.5429 12.3294 60.6419 12.2305 60.8414 12.2305H61.2002C61.3997 12.2305 61.4987 12.3294 61.5389 12.4485L64.7343 20.6641H64.8147L66.8485 12.7067C66.8887 12.5676 67.048 12.4284 67.2074 12.4284H69.0416C69.32 12.4284 69.4809 12.6279 69.4005 12.9078L65.6313 26.3082C65.5911 26.4674 65.4318 26.5865 65.2725 26.5865H64.9539C64.7745 26.5865 64.6554 26.486 64.6151 26.3669L61.0456 17.3349H60.9466L57.4156 26.3669C57.3553 26.486 57.2764 26.5865 57.0769 26.5865H56.7583C56.599 26.5865 56.4397 26.4659 56.3995 26.3082L52.6273 12.9078Z" fill="black"/>
<path d="M73.3501 12.8095C73.3501 12.61 73.5295 12.4307 73.7291 12.4307H75.5834C75.783 12.4307 75.9624 12.61 75.9624 12.8095V26.0105C75.9624 26.2099 75.783 26.3893 75.5834 26.3893H73.7291C73.5295 26.3893 73.3501 26.2099 73.3501 26.0105V12.8095Z" fill="black"/>
<path d="M81.2814 12.5892C81.2814 12.3897 81.4608 12.2305 81.6603 12.2305H82.1583L90.4544 21.043H90.4745V12.8088C90.4745 12.6093 90.6338 12.4299 90.8535 12.4299H92.6877C92.8873 12.4299 93.0667 12.6093 93.0667 12.8088V26.2278C93.0667 26.4272 92.8873 26.5865 92.6877 26.5865H92.2082L83.872 17.4338H83.8519V26.0082C83.8519 26.2077 83.6926 26.387 83.4729 26.387H81.6588C81.4592 26.387 81.2798 26.2077 81.2798 26.0082V12.5892H81.2814Z" fill="black"/>
<path d="M100.231 14.8228H97.1793C96.9596 14.8228 96.8003 14.6434 96.8003 14.444V12.8095C96.8003 12.61 96.9596 12.4307 97.1793 12.4307H105.895C106.114 12.4307 106.273 12.61 106.273 12.8095V14.444C106.273 14.6434 106.114 14.8228 105.895 14.8228H102.843V26.0089C102.843 26.2084 102.664 26.3878 102.464 26.3878H100.61C100.41 26.3878 100.231 26.2084 100.231 26.0089V14.8228Z" fill="black"/>
<path d="M109.996 12.8095C109.996 12.61 110.155 12.4307 110.375 12.4307H118.492C118.711 12.4307 118.871 12.61 118.871 12.8095V14.444C118.871 14.6434 118.711 14.8228 118.492 14.8228H112.588V18.0933H117.514C117.714 18.0933 117.893 18.2727 117.893 18.4721V20.1267C117.893 20.3463 117.714 20.5056 117.514 20.5056H112.588V23.9956H118.492C118.711 23.9956 118.871 24.175 118.871 24.3745V26.0105C118.871 26.2099 118.711 26.3893 118.492 26.3893H110.375C110.155 26.3893 109.996 26.2099 109.996 26.0105V12.8095Z" fill="black"/>
<path d="M123.537 12.8095C123.537 12.61 123.696 12.4307 123.916 12.4307H129.62C132.013 12.4307 133.968 14.345 133.968 16.7186C133.968 18.5525 132.75 20.0478 131.017 20.7468L133.749 25.811C133.889 26.0708 133.749 26.3893 133.411 26.3893H131.317C131.137 26.3893 131.038 26.2903 130.998 26.2099L128.346 20.9262H126.132V26.0105C126.132 26.2099 125.953 26.3893 125.753 26.3893H123.919C123.699 26.3893 123.54 26.2099 123.54 26.0105V12.8095H123.537ZM129.4 18.7907C130.457 18.7907 131.375 17.8737 131.375 16.7573C131.375 15.7011 130.458 14.8228 129.4 14.8228H126.149V18.7907H129.4Z" fill="black"/>
<path d="M139.912 12.5289C139.933 12.3696 140.052 12.2305 140.271 12.2305H140.59C140.749 12.2305 140.868 12.3093 140.929 12.4299L145.316 21.8424C145.357 21.8424 145.357 21.8424 145.377 21.8424L149.765 12.4299C149.825 12.3109 149.924 12.2305 150.103 12.2305H150.422C150.641 12.2305 150.761 12.3696 150.781 12.5289L153.134 25.9278C153.195 26.2061 153.034 26.387 152.775 26.387H150.962C150.782 26.387 150.623 26.2278 150.583 26.0886L149.406 18.5317C149.386 18.5317 149.345 18.5317 149.345 18.5317L145.855 26.3685C145.814 26.4876 145.695 26.5881 145.516 26.5881H145.159C144.979 26.5881 144.88 26.4876 144.82 26.3685L141.289 18.5317C141.289 18.5317 141.249 18.5317 141.229 18.5317L140.072 26.0886C140.052 26.2278 139.892 26.387 139.713 26.387H137.917C137.658 26.387 137.498 26.2077 137.538 25.9278L139.912 12.5289Z" fill="black"/>
<path d="M157.246 12.8095C157.246 12.61 157.426 12.4307 157.625 12.4307H159.519C159.739 12.4307 159.898 12.61 159.898 12.8095V20.9648C159.898 22.6596 161.055 23.9956 162.791 23.9956C164.526 23.9956 165.703 22.6596 165.703 20.9849V12.8095C165.703 12.61 165.862 12.4307 166.081 12.4307H167.977C168.176 12.4307 168.356 12.61 168.356 12.8095V21.104C168.356 24.1348 165.942 26.5872 162.791 26.5872C159.66 26.5872 157.246 24.1348 157.246 21.104V12.8095Z" fill="black"/>
<path d="M175.418 14.8228H172.366C172.147 14.8228 171.988 14.6434 171.988 14.444V12.8095C171.988 12.61 172.147 12.4307 172.366 12.4307H181.082C181.302 12.4307 181.461 12.61 181.461 12.8095V14.444C181.461 14.6434 181.302 14.8228 181.082 14.8228H178.03V26.0089C178.03 26.2084 177.851 26.3878 177.651 26.3878H175.797C175.598 26.3878 175.418 26.2084 175.418 26.0089V14.8228Z" fill="black"/>
<path d="M185.184 12.8095C185.184 12.61 185.343 12.4307 185.563 12.4307H193.68C193.899 12.4307 194.059 12.61 194.059 12.8095V14.444C194.059 14.6434 193.899 14.8228 193.68 14.8228H187.777V18.0933H192.703C192.902 18.0933 193.081 18.2727 193.081 18.4721V20.1267C193.081 20.3463 192.902 20.5056 192.703 20.5056H187.777V23.9956H193.68C193.899 23.9956 194.059 24.175 194.059 24.3745V26.0105C194.059 26.2099 193.899 26.3893 193.68 26.3893H185.563C185.343 26.3893 185.184 26.2099 185.184 26.0105V12.8095Z" fill="black"/>
<path d="M4.86557 24.189C4.85938 24.2138 4.85629 24.2385 4.85319 24.2648C4.84855 24.2942 4.84546 24.322 4.84391 24.3514C4.84391 24.3591 4.84082 24.3668 4.84082 24.3761C4.84082 24.3931 4.84546 24.4086 4.84546 24.4241C4.84701 24.4534 4.84855 24.4813 4.85474 24.5106C4.85938 24.5369 4.86557 24.5617 4.87175 24.5864C4.87794 24.6112 4.88567 24.6359 4.89495 24.6606C4.90423 24.6854 4.91506 24.7101 4.92743 24.7333C4.93826 24.7565 4.95063 24.7782 4.96455 24.8014C4.97847 24.823 4.99394 24.8447 5.0094 24.8648C5.02487 24.8864 5.04188 24.9065 5.06044 24.9266C5.07746 24.9452 5.09756 24.9637 5.11612 24.9807C5.13623 24.9977 5.15479 25.0147 5.17644 25.0302C5.19964 25.0472 5.22439 25.0611 5.24913 25.0766C5.26305 25.0843 5.27542 25.0952 5.29089 25.1029L24.7568 34.8339C24.7645 34.837 24.7722 34.8385 24.7784 34.8416C24.7893 34.8463 24.7985 34.8524 24.8094 34.8571C24.8186 34.8617 24.8295 34.8633 24.8403 34.8679C24.8557 34.8741 24.8728 34.8787 24.8882 34.8834C24.9037 34.888 24.9191 34.8927 24.9346 34.8957C24.9439 34.8973 24.9516 34.9019 24.9609 34.9035C24.9702 34.905 24.9794 34.905 24.9887 34.9066C25.0057 34.9097 25.0227 34.9112 25.0413 34.9128C25.0599 34.9143 25.0784 34.9158 25.0954 34.9158C25.1109 34.9158 25.1279 34.9158 25.1434 34.9158C25.1619 34.9158 25.1789 34.9143 25.1975 34.9128C25.2146 34.9112 25.2316 34.9081 25.2502 34.9066C25.2594 34.905 25.2687 34.905 25.278 34.9035C25.2873 34.9019 25.295 34.8988 25.3043 34.8957C25.3197 34.8927 25.3352 34.888 25.3507 34.8834C25.3661 34.8787 25.3831 34.8725 25.3986 34.8679C25.4094 34.8648 25.4187 34.8617 25.4295 34.8571C25.4404 34.8524 25.4496 34.8463 25.4605 34.8416C25.4682 34.8385 25.4759 34.837 25.4821 34.8339L44.948 25.1029C44.9635 25.0952 44.9743 25.0843 44.9898 25.0766C45.0145 25.0627 45.0392 25.0472 45.0624 25.0302C45.0841 25.0147 45.1026 24.9977 45.1227 24.9807C45.1428 24.9637 45.1614 24.9452 45.1784 24.9266C45.197 24.9065 45.2124 24.8864 45.2294 24.8648C45.2449 24.8447 45.2604 24.823 45.2743 24.8014C45.2882 24.7797 45.299 24.7565 45.3114 24.7333C45.3238 24.7101 45.3346 24.6854 45.3439 24.6606C45.3531 24.6359 45.3609 24.6112 45.3671 24.5864C45.3732 24.5617 45.3794 24.5369 45.3841 24.5106C45.3887 24.4813 45.3903 24.4534 45.3933 24.4241C45.3949 24.4086 45.398 24.3931 45.398 24.3761C45.398 24.3684 45.3964 24.3607 45.3949 24.3514C45.3933 24.322 45.3903 24.2942 45.3856 24.2648C45.3825 24.24 45.3794 24.2138 45.3732 24.189C45.3671 24.1658 45.3593 24.1411 45.3516 24.1179C45.3423 24.0901 45.333 24.0607 45.3191 24.0344C45.316 24.0266 45.3145 24.0189 45.3114 24.0127L35.5769 4.55073C35.5723 4.54145 35.5646 4.53527 35.5599 4.52753C35.5321 4.47651 35.4996 4.42857 35.461 4.38527C35.4517 4.37445 35.444 4.36362 35.4347 4.35434C35.3898 4.30796 35.3388 4.2662 35.283 4.23064C35.2691 4.22136 35.2552 4.21518 35.2413 4.20745C35.1964 4.1827 35.1485 4.1626 35.099 4.14559C35.082 4.13941 35.065 4.13477 35.048 4.13013C34.9861 4.11467 34.9228 4.10384 34.8578 4.10384C34.8547 4.10384 34.8532 4.10229 34.8516 4.10229C34.8439 4.10229 34.8346 4.10539 34.8269 4.10539C34.7757 4.10693 34.7263 4.11157 34.6783 4.1224C34.6629 4.12549 34.6474 4.13322 34.6319 4.13631C34.5902 4.14868 34.55 4.1626 34.5113 4.17961C34.5051 4.1827 34.4974 4.18425 34.4912 4.18734C34.4758 4.19507 34.4649 4.2059 34.4495 4.21363C34.4247 4.22755 34.4 4.24301 34.3768 4.26002C34.3552 4.27548 34.3366 4.29249 34.3165 4.3095C34.2963 4.32651 34.2777 4.34507 34.2607 4.36362C34.2422 4.38372 34.2267 4.40383 34.2097 4.42548C34.1942 4.44558 34.1788 4.46723 34.1649 4.48887C34.1509 4.51052 34.1401 4.53372 34.1277 4.55691C34.1154 4.58011 34.1045 4.60485 34.0953 4.62959C34.086 4.65433 34.0798 4.67907 34.0721 4.70381C34.0659 4.72855 34.0597 4.75329 34.0551 4.77958C34.0504 4.80896 34.0489 4.8368 34.0458 4.86618C34.0442 4.88164 34.0411 4.8971 34.0411 4.91411V22.4185L25.694 14.073C25.6553 14.0343 25.6135 14.0003 25.5687 13.9709C25.5501 13.9585 25.5285 13.9493 25.5084 13.9384C25.4821 13.9245 25.4574 13.9091 25.4295 13.8967C25.4032 13.8859 25.3754 13.8797 25.3491 13.872C25.3259 13.8658 25.3027 13.8565 25.2795 13.8519C25.227 13.841 25.1743 13.8364 25.1202 13.8364C25.0676 13.8364 25.0135 13.8426 24.9609 13.8519C24.9362 13.8565 24.9145 13.8658 24.8898 13.872C24.8619 13.8797 24.8356 13.8859 24.8094 13.8967C24.7815 13.9075 24.7568 13.9245 24.7305 13.9384C24.7104 13.9493 24.6903 13.9585 24.6701 13.9709C24.6252 14.0003 24.5835 14.0343 24.5448 14.073L16.1977 22.4185V4.91411C16.1977 4.8971 16.1931 4.88164 16.1931 4.86618C16.1916 4.8368 16.19 4.80896 16.1838 4.77958C16.1792 4.7533 16.173 4.72855 16.1668 4.70381C16.1606 4.67907 16.1529 4.65433 16.1436 4.62959C16.1343 4.60485 16.1235 4.58011 16.1111 4.55691C16.1003 4.53372 16.0878 4.51207 16.0739 4.48887C16.06 4.46723 16.0446 4.44558 16.0291 4.42548C16.0136 4.40383 15.9966 4.38373 15.9781 4.36362C15.9611 4.34507 15.9409 4.32651 15.9224 4.3095C15.9023 4.29249 15.8837 4.27548 15.8621 4.26002C15.8389 4.24301 15.8142 4.22909 15.7894 4.21363C15.7755 4.2059 15.7631 4.19507 15.7477 4.18734C15.7415 4.18425 15.7337 4.1827 15.7276 4.17961C15.6889 4.16106 15.6487 4.14868 15.6084 4.13631C15.5914 4.13168 15.5759 4.12394 15.5589 4.12085C15.511 4.11003 15.463 4.10539 15.412 4.10384C15.4043 4.10539 15.395 4.1023 15.3873 4.1023C15.3842 4.1023 15.3826 4.10384 15.3811 4.10384C15.3146 4.10384 15.2512 4.11467 15.1909 4.13013C15.1739 4.13477 15.1569 4.14096 15.1399 4.14559C15.0903 4.16106 15.0423 4.18271 14.9975 4.20745C14.9836 4.21518 14.9697 4.22136 14.9557 4.23064C14.9001 4.26621 14.849 4.30641 14.8042 4.35435C14.7949 4.36363 14.7872 4.376 14.7779 4.38527C14.7392 4.42857 14.7068 4.47651 14.6789 4.52753C14.6743 4.53681 14.6665 4.543 14.6619 4.55073L4.92743 24.0127C4.92434 24.0205 4.92279 24.0266 4.9197 24.0344C4.90733 24.0607 4.89805 24.0901 4.88722 24.1179C4.87949 24.1411 4.87175 24.1643 4.86557 24.189ZM15.0501 25.1864L21.0108 31.1459L9.0894 25.1864H15.0501ZM35.1872 25.1864H41.1479L29.2264 31.1459L35.1872 25.1864ZM35.662 23.5643V8.34849L43.2714 23.5643H35.662ZM25.9291 32.1479V16.6012L33.7039 24.3746L25.9291 32.1479ZM24.3082 32.1479L16.5333 24.3746L24.3082 16.6012V32.1479ZM6.96589 23.5643L14.5753 8.34849V23.5643H6.96589Z" fill="black"/>
</svg>
