<svg width="199" height="39" viewBox="0 0 199 39" fill="none" xmlns="http://www.w3.org/2000/svg">
<path d="M52.6283 12.9078C52.5478 12.6294 52.7071 12.4284 52.9871 12.4284H54.8214C54.9807 12.4284 55.14 12.5676 55.1802 12.7067L57.2542 20.6641H57.3331L60.5037 12.4485C60.5439 12.3294 60.6429 12.2305 60.8424 12.2305H61.2012C61.4007 12.2305 61.4997 12.3294 61.5399 12.4485L64.7353 20.6641H64.8157L66.8495 12.7067C66.8897 12.5676 67.049 12.4284 67.2083 12.4284H69.0426C69.321 12.4284 69.4819 12.6279 69.4015 12.9078L65.6323 26.3082C65.5921 26.4674 65.4328 26.5865 65.2735 26.5865H64.9549C64.7755 26.5865 64.6563 26.486 64.6161 26.3669L61.0466 17.3349H60.9476L57.4166 26.3669C57.3563 26.486 57.2774 26.5865 57.0779 26.5865H56.7593C56.6 26.5865 56.4407 26.4659 56.4005 26.3082L52.6283 12.9078Z" fill="black"/>
<path d="M73.3516 12.8095C73.3516 12.61 73.531 12.4307 73.7305 12.4307H75.5849C75.7844 12.4307 75.9639 12.61 75.9639 12.8095V26.0105C75.9639 26.2099 75.7844 26.3893 75.5849 26.3893H73.7305C73.531 26.3893 73.3516 26.2099 73.3516 26.0105V12.8095Z" fill="black"/>
<path d="M81.2829 12.5892C81.2829 12.3897 81.4623 12.2305 81.6617 12.2305H82.1597L90.4559 21.043H90.476V12.8088C90.476 12.6093 90.6353 12.4299 90.8549 12.4299H92.6892C92.8887 12.4299 93.0682 12.6093 93.0682 12.8088V26.2278C93.0682 26.4272 92.8887 26.5865 92.6892 26.5865H92.2097L83.8735 17.4338H83.8534V26.0082C83.8534 26.2077 83.694 26.387 83.4744 26.387H81.6602C81.4607 26.387 81.2812 26.2077 81.2812 26.0082V12.5892H81.2829Z" fill="black"/>
<path d="M100.231 14.8228H97.1798C96.9601 14.8228 96.8008 14.6434 96.8008 14.444V12.8095C96.8008 12.61 96.9601 12.4307 97.1798 12.4307H105.895C106.115 12.4307 106.274 12.61 106.274 12.8095V14.444C106.274 14.6434 106.115 14.8228 105.895 14.8228H102.843V26.0089C102.843 26.2084 102.664 26.3878 102.465 26.3878H100.61C100.411 26.3878 100.231 26.2084 100.231 26.0089V14.8228Z" fill="black"/>
<path d="M109.998 12.8095C109.998 12.61 110.157 12.4307 110.377 12.4307H118.494C118.713 12.4307 118.873 12.61 118.873 12.8095V14.444C118.873 14.6434 118.713 14.8228 118.494 14.8228H112.59V18.0933H117.516C117.716 18.0933 117.895 18.2727 117.895 18.4721V20.1267C117.895 20.3463 117.716 20.5056 117.516 20.5056H112.59V23.9956H118.494C118.713 23.9956 118.873 24.175 118.873 24.3745V26.0105C118.873 26.2099 118.713 26.3893 118.494 26.3893H110.377C110.157 26.3893 109.998 26.2099 109.998 26.0105V12.8095Z" fill="black"/>
<path d="M123.537 12.8095C123.537 12.61 123.696 12.4307 123.916 12.4307H129.62C132.013 12.4307 133.968 14.345 133.968 16.7186C133.968 18.5525 132.75 20.0478 131.017 20.7468L133.749 25.811C133.889 26.0708 133.749 26.3893 133.411 26.3893H131.317C131.137 26.3893 131.038 26.2903 130.998 26.2099L128.346 20.9262H126.132V26.0105C126.132 26.2099 125.953 26.3893 125.753 26.3893H123.919C123.699 26.3893 123.54 26.2099 123.54 26.0105V12.8095H123.537ZM129.4 18.7907C130.457 18.7907 131.375 17.8737 131.375 16.7573C131.375 15.7011 130.458 14.8228 129.4 14.8228H126.149V18.7907H129.4Z" fill="black"/>
<path d="M139.913 12.5289C139.934 12.3696 140.053 12.2305 140.272 12.2305H140.591C140.75 12.2305 140.869 12.3093 140.93 12.4299L145.317 21.8424C145.358 21.8424 145.358 21.8424 145.378 21.8424L149.765 12.4299C149.826 12.3109 149.925 12.2305 150.104 12.2305H150.423C150.642 12.2305 150.761 12.3696 150.782 12.5289L153.135 25.9278C153.195 26.2061 153.035 26.387 152.776 26.387H150.963C150.783 26.387 150.624 26.2278 150.584 26.0886L149.407 18.5317C149.387 18.5317 149.346 18.5317 149.346 18.5317L145.856 26.3685C145.815 26.4876 145.696 26.5881 145.517 26.5881H145.16C144.98 26.5881 144.881 26.4876 144.821 26.3685L141.29 18.5317C141.29 18.5317 141.25 18.5317 141.23 18.5317L140.073 26.0886C140.053 26.2278 139.893 26.387 139.714 26.387H137.918C137.659 26.387 137.499 26.2077 137.539 25.9278L139.913 12.5289Z" fill="black"/>
<path d="M157.246 12.8095C157.246 12.61 157.426 12.4307 157.625 12.4307H159.52C159.74 12.4307 159.899 12.61 159.899 12.8095V20.9648C159.899 22.6596 161.056 23.9956 162.791 23.9956C164.527 23.9956 165.704 22.6596 165.704 20.9849V12.8095C165.704 12.61 165.863 12.4307 166.082 12.4307H167.977C168.176 12.4307 168.356 12.61 168.356 12.8095V21.104C168.356 24.1348 165.943 26.5872 162.791 26.5872C159.661 26.5872 157.246 24.1348 157.246 21.104V12.8095Z" fill="black"/>
<path d="M175.42 14.8228H172.368C172.149 14.8228 171.99 14.6434 171.99 14.444V12.8095C171.99 12.61 172.149 12.4307 172.368 12.4307H181.084C181.304 12.4307 181.463 12.61 181.463 12.8095V14.444C181.463 14.6434 181.304 14.8228 181.084 14.8228H178.032V26.0089C178.032 26.2084 177.853 26.3878 177.653 26.3878H175.799C175.6 26.3878 175.42 26.2084 175.42 26.0089V14.8228Z" fill="black"/>
<path d="M185.186 12.8095C185.186 12.61 185.345 12.4307 185.565 12.4307H193.681C193.9 12.4307 194.06 12.61 194.06 12.8095V14.444C194.06 14.6434 193.9 14.8228 193.681 14.8228H187.778V18.0933H192.704C192.903 18.0933 193.082 18.2727 193.082 18.4721V20.1267C193.082 20.3463 192.903 20.5056 192.704 20.5056H187.778V23.9956H193.681C193.9 23.9956 194.06 24.175 194.06 24.3745V26.0105C194.06 26.2099 193.9 26.3893 193.681 26.3893H185.565C185.345 26.3893 185.186 26.2099 185.186 26.0105V12.8095Z" fill="black"/>
<path d="M4.86654 24.1889C4.86036 24.2137 4.85726 24.2384 4.85417 24.2647C4.84953 24.2941 4.84644 24.3219 4.84489 24.3513C4.84489 24.359 4.8418 24.3667 4.8418 24.376C4.8418 24.393 4.84644 24.4085 4.84644 24.424C4.84798 24.4533 4.84953 24.4812 4.85572 24.5105C4.86036 24.5368 4.86654 24.5616 4.87273 24.5863C4.87892 24.6111 4.88665 24.6358 4.89593 24.6605C4.90521 24.6853 4.91604 24.71 4.92841 24.7332C4.93924 24.7564 4.95161 24.7781 4.96553 24.8013C4.97945 24.8229 4.99491 24.8446 5.01038 24.8647C5.02585 24.8863 5.04286 24.9064 5.06142 24.9265C5.07843 24.9451 5.09854 24.9636 5.1171 24.9806C5.1372 24.9976 5.15576 25.0146 5.17742 25.0301C5.20062 25.0471 5.22536 25.061 5.25011 25.0765C5.26403 25.0842 5.2764 25.0951 5.29187 25.1028L24.7577 34.8338C24.7654 34.8369 24.7731 34.8384 24.7793 34.8415C24.7902 34.8462 24.7994 34.8523 24.8103 34.857C24.8196 34.8616 24.8305 34.8632 24.8413 34.8678C24.8567 34.874 24.8738 34.8786 24.8892 34.8833C24.9047 34.8879 24.9201 34.8926 24.9356 34.8956C24.9449 34.8972 24.9526 34.9018 24.9619 34.9034C24.9712 34.9049 24.9804 34.9049 24.9897 34.9065C25.0067 34.9096 25.0237 34.9111 25.0423 34.9127C25.0609 34.9142 25.0794 34.9157 25.0964 34.9157C25.1119 34.9157 25.1289 34.9157 25.1444 34.9157C25.1629 34.9157 25.1799 34.9142 25.1985 34.9127C25.2155 34.9111 25.2325 34.908 25.2511 34.9065C25.2603 34.9049 25.2696 34.9049 25.2789 34.9034C25.2882 34.9018 25.2959 34.8987 25.3052 34.8956C25.3207 34.8926 25.3362 34.8879 25.3517 34.8833C25.3671 34.8786 25.3841 34.8724 25.3996 34.8678C25.4104 34.8647 25.4197 34.8616 25.4305 34.857C25.4414 34.8523 25.4506 34.8462 25.4615 34.8415C25.4692 34.8384 25.4769 34.8369 25.4831 34.8338L44.9489 25.1028C44.9644 25.0951 44.9752 25.0842 44.9907 25.0765C45.0154 25.0626 45.0401 25.0471 45.0634 25.0301C45.0851 25.0146 45.1036 24.9976 45.1237 24.9806C45.1438 24.9636 45.1624 24.9451 45.1794 24.9265C45.198 24.9064 45.2134 24.8863 45.2304 24.8647C45.2459 24.8446 45.2614 24.8229 45.2753 24.8013C45.2892 24.7796 45.3 24.7564 45.3124 24.7332C45.3248 24.71 45.3356 24.6853 45.3449 24.6605C45.3541 24.6358 45.3619 24.6111 45.3681 24.5863C45.3742 24.5616 45.3804 24.5368 45.3851 24.5105C45.3897 24.4812 45.3913 24.4533 45.3943 24.424C45.3959 24.4085 45.399 24.393 45.399 24.376C45.399 24.3683 45.3974 24.3606 45.3959 24.3513C45.3943 24.3219 45.3913 24.2941 45.3866 24.2647C45.3835 24.2399 45.3804 24.2137 45.3742 24.1889C45.3681 24.1657 45.3603 24.141 45.3526 24.1178C45.3433 24.09 45.334 24.0606 45.3201 24.0343C45.317 24.0265 45.3155 24.0188 45.3124 24.0126L35.5779 4.55061C35.5733 4.54133 35.5656 4.53514 35.5609 4.52741C35.5331 4.47638 35.5006 4.42845 35.462 4.38515C35.4527 4.37433 35.445 4.3635 35.4356 4.35422C35.3907 4.30783 35.3397 4.26608 35.284 4.23052C35.2701 4.22124 35.2562 4.21505 35.2423 4.20732C35.1974 4.18258 35.1495 4.16248 35.1 4.14547C35.083 4.13929 35.066 4.13465 35.049 4.13001C34.9871 4.11454 34.9238 4.10372 34.8587 4.10372C34.8556 4.10372 34.8541 4.10217 34.8525 4.10217C34.8448 4.10217 34.8355 4.10527 34.8278 4.10527C34.7767 4.10681 34.7273 4.11145 34.6793 4.12227C34.6639 4.12537 34.6484 4.1331 34.6329 4.13619C34.5912 4.14856 34.551 4.16248 34.5123 4.17949C34.5061 4.18258 34.4984 4.18413 34.4922 4.18722C34.4768 4.19495 34.4659 4.20578 34.4505 4.21351C34.4257 4.22742 34.4009 4.24289 34.3777 4.2599C34.3561 4.27536 34.3375 4.29237 34.3174 4.30938C34.2973 4.32639 34.2787 4.34494 34.2617 4.3635C34.2432 4.3836 34.2277 4.40371 34.2107 4.42535C34.1952 4.44546 34.1798 4.4671 34.1659 4.48875C34.1519 4.5104 34.1411 4.5336 34.1287 4.55679C34.1164 4.57998 34.1055 4.60473 34.0963 4.62947C34.087 4.65421 34.0808 4.67895 34.0731 4.70369C34.0669 4.72843 34.0607 4.75317 34.0561 4.77946C34.0514 4.80884 34.0499 4.83667 34.0468 4.86605C34.0452 4.88152 34.0421 4.89698 34.0421 4.91399V22.4184L25.695 14.0729C25.6563 14.0342 25.6145 14.0002 25.5697 13.9708C25.5511 13.9584 25.5295 13.9491 25.5094 13.9383C25.4831 13.9244 25.4584 13.9089 25.4305 13.8966C25.4042 13.8858 25.3764 13.8796 25.3501 13.8718C25.3269 13.8656 25.3036 13.8564 25.2804 13.8517C25.2279 13.8409 25.1753 13.8363 25.1212 13.8363C25.0686 13.8363 25.0145 13.8425 24.9619 13.8517C24.9372 13.8564 24.9155 13.8656 24.8908 13.8718C24.8629 13.8796 24.8366 13.8858 24.8103 13.8966C24.7824 13.9074 24.7577 13.9244 24.7314 13.9383C24.7113 13.9491 24.6912 13.9584 24.6711 13.9708C24.6262 14.0002 24.5845 14.0342 24.5458 14.0729L16.1986 22.4184V4.91399C16.1986 4.89698 16.194 4.88152 16.194 4.86606C16.1925 4.83668 16.1909 4.80884 16.1847 4.77946C16.1801 4.75317 16.1739 4.72843 16.1677 4.70369C16.1615 4.67895 16.1538 4.65421 16.1445 4.62947C16.1352 4.60473 16.1244 4.57999 16.112 4.55679C16.1012 4.5336 16.0888 4.51195 16.0749 4.48875C16.061 4.4671 16.0456 4.44546 16.0301 4.42535C16.0146 4.40371 15.9976 4.3836 15.9791 4.3635C15.9621 4.34495 15.9419 4.32639 15.9234 4.30938C15.9033 4.29237 15.8847 4.27536 15.8631 4.2599C15.8399 4.24289 15.8152 4.22897 15.7904 4.21351C15.7765 4.20578 15.7641 4.19495 15.7487 4.18722C15.7425 4.18413 15.7347 4.18258 15.7286 4.17949C15.6898 4.16093 15.6496 4.14856 15.6094 4.13619C15.5924 4.13155 15.5769 4.12382 15.5599 4.12073C15.512 4.10991 15.464 4.10527 15.413 4.10372C15.4053 4.10527 15.396 4.10217 15.3883 4.10217C15.3852 4.10217 15.3836 4.10372 15.3821 4.10372C15.3156 4.10372 15.2522 4.11455 15.1918 4.13001C15.1748 4.13465 15.1578 4.14083 15.1408 4.14547C15.0913 4.16094 15.0433 4.18258 14.9985 4.20732C14.9846 4.21506 14.9707 4.22124 14.9567 4.23052C14.9011 4.26608 14.85 4.30629 14.8052 4.35423C14.7959 4.3635 14.7882 4.37587 14.7789 4.38515C14.7402 4.42845 14.7077 4.47638 14.6799 4.52741C14.6753 4.53669 14.6675 4.54288 14.6629 4.55061L4.92841 24.0126C4.92532 24.0204 4.92377 24.0265 4.92068 24.0343C4.9083 24.0606 4.89902 24.09 4.8882 24.1178C4.88046 24.141 4.87273 24.1642 4.86654 24.1889ZM15.0511 25.1863L21.0118 31.1458L9.09038 25.1863H15.0511ZM35.1882 25.1863H41.1489L29.2274 31.1458L35.1882 25.1863ZM35.663 23.5642V8.34837L43.2724 23.5642H35.663ZM25.9301 32.1478V16.6011L33.7049 24.3745L25.9301 32.1478ZM24.3091 32.1478L16.5343 24.3745L24.3091 16.6011V32.1478ZM6.96687 23.5642L14.5763 8.34837V23.5642H6.96687Z" fill="black"/>
</svg>
