<svg width="64" height="64" viewBox="0 0 64 64" fill="none" xmlns="http://www.w3.org/2000/svg">
<g clip-path="url(#clip0)">
<path d="M52.185 13.4315L50.4277 15.1888C54.6209 19.7743 56.9462 25.763 56.9462 31.9766C56.9462 38.1903 54.6209 44.179 50.4277 48.7645L52.185 50.5218C56.8482 45.4636 59.4372 38.8358 59.4372 31.9561C59.4372 25.0764 56.8482 18.4486 52.185 13.3905V13.4315Z" fill="#5A5564"/>
<path d="M15.2299 13.5837C19.8154 9.39055 25.8041 7.06523 32.0178 7.06523C38.2314 7.06523 44.2201 9.39055 48.8056 13.5837L50.5629 11.8264C45.5047 7.1632 38.877 4.57422 31.9973 4.57422C25.1176 4.57422 18.4898 7.1632 13.4316 11.8264L15.2299 13.5837Z" fill="#5A5564"/>
<path d="M13.5837 48.7819C9.39552 44.1975 7.07326 38.2124 7.07326 32.0029C7.07326 25.7934 9.39552 19.8083 13.5837 15.2238L11.8264 13.4666C7.1632 18.5247 4.57422 25.1525 4.57422 32.0322C4.57422 38.9119 7.1632 45.5397 11.8264 50.5978L13.5837 48.7819Z" fill="#5A5564"/>
<path d="M48.7822 50.4045C44.1967 54.5977 38.208 56.923 31.9943 56.923C25.7807 56.923 19.792 54.5977 15.2065 50.4045L13.4492 52.1618C18.5074 56.825 25.1351 59.414 32.0148 59.414C38.8945 59.414 45.5223 56.825 50.5805 52.1618L48.7822 50.4045Z" fill="#5A5564"/>
<path d="M43.0947 26.1365C42.7433 22.4696 39.5802 21.2396 35.5794 20.8647V15.8154H32.4866V20.7709C31.6724 20.7709 30.8406 20.7709 30.0147 20.7709V15.8154H26.9454V20.8998H20.6719V24.2094C20.6719 24.2094 22.9563 24.1684 22.9212 24.2094C23.3331 24.164 23.7465 24.2804 24.0743 24.5339C24.4021 24.7874 24.6187 25.1583 24.6785 25.5683V39.4859C24.6697 39.6306 24.632 39.7719 24.5676 39.9017C24.5032 40.0315 24.4134 40.1471 24.3036 40.2416C24.1958 40.3379 24.0697 40.4114 23.9328 40.4577C23.7959 40.504 23.651 40.5221 23.5069 40.511C23.548 40.5462 21.2576 40.511 21.2576 40.511L20.6719 44.2072H26.8868V49.3736H29.9796V44.2833H32.4515V49.3501H35.5501V44.2423C40.7751 43.926 44.4185 42.6373 44.8754 37.7462C45.2445 33.8099 43.3935 32.0527 40.4354 31.3439C42.2337 30.4594 43.3466 28.8193 43.0947 26.1365ZM38.7601 37.137C38.7601 40.9796 32.1762 40.5403 30.0792 40.5403V33.7221C32.1762 33.7279 38.7601 33.1246 38.7601 37.137ZM37.325 27.5306C37.325 31.0452 31.8306 30.6176 30.085 30.6176V24.4202C31.8306 24.4202 37.325 23.8696 37.325 27.5306Z" fill="#F09242"/>
<path d="M31.9942 64C25.6657 63.9989 19.4796 62.1213 14.2181 58.6046C8.95664 55.088 4.85603 50.0902 2.43475 44.2432C0.0134704 38.3962 -0.619743 31.9625 0.615171 25.7557C1.85009 19.5488 4.89767 13.8475 9.3726 9.3726C13.8475 4.89767 19.5488 1.85009 25.7557 0.615171C31.9625 -0.619743 38.3962 0.0134704 44.2432 2.43475C50.0902 4.85603 55.088 8.95664 58.6046 14.2181C62.1213 19.4796 63.9989 25.6657 64 31.9942C64.0008 36.1974 63.1735 40.3597 61.5653 44.2432C59.9571 48.1267 57.5996 51.6553 54.6274 54.6274C51.6553 57.5996 48.1267 59.9571 44.2432 61.5653C40.3597 63.1735 36.1974 64.0008 31.9942 64ZM31.9942 2.49535C26.1637 2.49998 20.4654 4.23301 15.6196 7.47539C10.7738 10.7178 6.99803 15.324 4.76946 20.7117C2.5409 26.0995 1.95962 32.0271 3.09908 37.7451C4.23854 43.4632 7.0476 48.7151 11.1712 52.8371C15.2948 56.9591 20.5478 59.766 26.2664 60.9032C31.9849 62.0404 37.9122 61.4568 43.2991 59.2261C48.686 56.9954 53.2907 53.2178 56.5311 48.3707C59.7716 43.5236 61.5024 37.8247 61.5047 31.9942C61.5062 28.1189 60.7439 24.2813 59.2612 20.7009C57.7786 17.1205 55.6047 13.8674 52.864 11.1278C50.1232 8.38809 46.8693 6.21553 43.2883 4.73431C39.7073 3.25309 35.8694 2.49227 31.9942 2.49535Z" fill="#282138"/>
</g>
<defs>
<clipPath id="clip0">
<rect width="64" height="64" fill="white"/>
</clipPath>
</defs>
</svg>
