<svg width="121" height="33" viewBox="0 0 121 33" fill="none" xmlns="http://www.w3.org/2000/svg">
<g clip-path="url(#clip0)">
<path d="M0 8.03345H7.18148L11.3632 18.5798L15.5991 8.03345H22.5915L12.0626 33H5.02589L7.90802 26.3843L0 8.03345Z" fill="black"/>
<path d="M29.8758 7.61353C24.48 7.61353 21.0689 12.3839 21.0689 17.1344C21.0689 22.4802 24.8087 26.7184 29.7734 26.7184C33.4769 26.7184 34.8732 24.4941 34.8732 24.4941V26.2268H41.1369V8.03348H34.8732V9.68741C34.8732 9.68741 33.3153 7.61353 29.8758 7.61353ZM31.2081 13.4601C33.6977 13.4601 34.9825 15.4021 34.9825 17.1544C34.9825 19.0413 33.6061 20.893 31.2081 20.893C29.2206 20.893 27.4246 19.2919 27.4246 17.2347C27.4246 15.1484 28.8693 13.4601 31.2081 13.4601Z" fill="black"/>
<path d="M43.2941 26.2267V0H49.8455V9.75045C49.8455 9.75045 51.4016 7.61582 54.6607 7.61582C58.6472 7.61582 60.9828 10.5439 60.9828 14.7279V26.2267H54.4794V16.3031C54.4794 14.8871 53.7952 13.5192 52.2453 13.5192C50.6677 13.5192 49.8455 14.9079 49.8455 16.3031V26.2267H43.2941Z" fill="black"/>
<path d="M72.1526 7.61572C65.9734 7.61572 62.294 12.2476 62.294 17.2102C62.294 22.8577 66.7489 26.7184 72.176 26.7184C77.4362 26.7184 82.039 23.0329 82.039 17.3049C82.039 11.0375 77.2197 7.61572 72.1526 7.61572ZM72.2116 13.5137C74.3943 13.5137 75.9046 15.3058 75.9046 17.2169C75.9046 18.8469 74.4973 20.8574 72.2116 20.8574C70.1173 20.8574 68.5455 19.2013 68.5455 17.1991C68.5455 15.2703 69.8523 13.5137 72.2116 13.5137Z" fill="black"/>
<path d="M92.9532 7.61572C86.7741 7.61572 83.0947 12.2476 83.0947 17.2102C83.0947 22.8577 87.5496 26.7184 92.9766 26.7184C98.2368 26.7184 102.84 23.0329 102.84 17.3049C102.84 11.0375 98.0203 7.61572 92.9532 7.61572ZM93.0122 13.5137C95.1949 13.5137 96.7052 15.3058 96.7052 17.2169C96.7052 18.8469 95.2979 20.8574 93.0122 20.8574C90.9179 20.8574 89.3461 19.2013 89.3461 17.1991C89.3461 15.2703 90.6529 13.5137 93.0122 13.5137Z" fill="black"/>
<path d="M108.009 26.6129C110.412 26.6129 112.359 24.6929 112.359 22.3244C112.359 19.9559 110.412 18.0359 108.009 18.0359C105.606 18.0359 103.659 19.9559 103.659 22.3244C103.659 24.6929 105.606 26.6129 108.009 26.6129Z" fill="black"/>
<path d="M113.789 16.4606H105.957L112.908 0H120.711L113.789 16.4606Z" fill="black"/>
</g>
<defs>
<clipPath id="clip0">
<rect width="120.711" height="33" fill="white"/>
</clipPath>
</defs>
</svg>
